<?xml version="1.0" encoding="UTF-8" standalone="no"?>
<!-- Created with Inkscape (http://www.inkscape.org/) -->

<svg
   width="210mm"
   height="297mm"
   viewBox="0 0 210 297"
   version="1.1"
   id="svg1"
   xml:space="preserve"
   inkscape:export-filename="bitmap.svg"
   inkscape:export-xdpi="8.5521889"
   inkscape:export-ydpi="8.5521889"
   sodipodi:docname="dark-snail.svg"
   inkscape:version="1.4.2 (ebf0e940, 2025-05-08)"
   xmlns:inkscape="http://www.inkscape.org/namespaces/inkscape"
   xmlns:sodipodi="http://sodipodi.sourceforge.net/DTD/sodipodi-0.dtd"
   xmlns="http://www.w3.org/2000/svg"
   xmlns:svg="http://www.w3.org/2000/svg"><sodipodi:namedview
     id="namedview1"
     pagecolor="#ffffff"
     bordercolor="#999999"
     borderopacity="1"
     inkscape:showpageshadow="2"
     inkscape:pageopacity="0"
     inkscape:pagecheckerboard="0"
     inkscape:deskcolor="#d1d1d1"
     inkscape:document-units="mm"
     inkscape:zoom="2.6561366"
     inkscape:cx="520.11632"
     inkscape:cy="606.70825"
     inkscape:window-width="1600"
     inkscape:window-height="900"
     inkscape:window-x="0"
     inkscape:window-y="44"
     inkscape:window-maximized="0"
     inkscape:current-layer="layer1"
     showgrid="false"><inkscape:page
       x="0"
       y="0"
       width="210"
       height="297"
       id="page2"
       margin="0"
       bleed="0" /></sodipodi:namedview><defs
     id="defs1"><inkscape:path-effect
       effect="bspline"
       id="path-effect23"
       is_visible="true"
       lpeversion="1.3"
       weight="33.333333"
       steps="2"
       helper_size="0"
       apply_no_weight="true"
       apply_with_weight="true"
       only_selected="false"
       uniform="false" /><inkscape:path-effect
       effect="bspline"
       id="path-effect22"
       is_visible="true"
       lpeversion="1.3"
       weight="33.333333"
       steps="2"
       helper_size="0"
       apply_no_weight="true"
       apply_with_weight="true"
       only_selected="false"
       uniform="false" /><inkscape:path-effect
       effect="bspline"
       id="path-effect17"
       is_visible="true"
       lpeversion="1.3"
       weight="33.333333"
       steps="2"
       helper_size="0"
       apply_no_weight="true"
       apply_with_weight="true"
       only_selected="false"
       uniform="false" /><inkscape:path-effect
       effect="powerstroke"
       message=""
       id="path-effect19"
       is_visible="true"
       lpeversion="1.3"
       scale_width="1"
       interpolator_type="CubicBezierJohan"
       interpolator_beta="0.2"
       start_linecap_type="zerowidth"
       end_linecap_type="zerowidth"
       offset_points="0,0.56483903"
       linejoin_type="extrp_arc"
       miter_limit="4"
       not_jump="false"
       sort_points="true" /><inkscape:path-effect
       effect="bspline"
       id="path-effect18"
       is_visible="true"
       lpeversion="1.3"
       weight="33.333333"
       steps="2"
       helper_size="0"
       apply_no_weight="true"
       apply_with_weight="true"
       only_selected="false"
       uniform="false" /><inkscape:path-effect
       effect="powerstroke"
       message=""
       id="path-effect3"
       is_visible="true"
       lpeversion="1.3"
       scale_width="1"
       interpolator_type="CubicBezierJohan"
       interpolator_beta="0.2"
       start_linecap_type="zerowidth"
       end_linecap_type="zerowidth"
       offset_points="0,0.56483903"
       linejoin_type="extrp_arc"
       miter_limit="4"
       not_jump="false"
       sort_points="true" /><inkscape:path-effect
       effect="bspline"
       id="path-effect2"
       is_visible="true"
       lpeversion="1.3"
       weight="33.333333"
       steps="2"
       helper_size="0"
       apply_no_weight="true"
       apply_with_weight="true"
       only_selected="false"
       uniform="false" /><inkscape:path-effect
       effect="powerstroke"
       message=""
       id="path-effect16"
       is_visible="true"
       lpeversion="1.3"
       scale_width="1"
       interpolator_type="CubicBezierJohan"
       interpolator_beta="0.2"
       start_linecap_type="zerowidth"
       end_linecap_type="zerowidth"
       offset_points="0,0.56483903"
       linejoin_type="extrp_arc"
       miter_limit="4"
       not_jump="false"
       sort_points="true" /><inkscape:path-effect
       effect="bspline"
       id="path-effect15"
       is_visible="true"
       lpeversion="1.3"
       weight="33.333333"
       steps="2"
       helper_size="0"
       apply_no_weight="true"
       apply_with_weight="true"
       only_selected="false"
       uniform="false" /><inkscape:path-effect
       effect="powerstroke"
       message=""
       id="path-effect13"
       is_visible="true"
       lpeversion="1.3"
       scale_width="1"
       interpolator_type="CubicBezierJohan"
       interpolator_beta="0.2"
       start_linecap_type="zerowidth"
       end_linecap_type="zerowidth"
       offset_points="7.6539386e-16,0.56483903"
       linejoin_type="extrp_arc"
       miter_limit="4"
       not_jump="false"
       sort_points="true" /><inkscape:path-effect
       effect="bspline"
       id="path-effect12"
       is_visible="true"
       lpeversion="1.3"
       weight="33.333333"
       steps="2"
       helper_size="0"
       apply_no_weight="true"
       apply_with_weight="true"
       only_selected="false"
       uniform="false" /><inkscape:path-effect
       effect="fill_between_many"
       method="bsplinespiro"
       autoreverse="false"
       close="false"
       join="false"
       linkedpaths="#path12,0,1"
       id="path-effect14"
       is_visible="true"
       lpeversion="0" /><inkscape:path-effect
       effect="fill_between_many"
       method="bsplinespiro"
       autoreverse="false"
       close="false"
       join="false"
       linkedpaths="#path2,0,1"
       id="path-effect4" /><inkscape:path-effect
       effect="fill_between_many"
       method="bsplinespiro"
       autoreverse="false"
       close="false"
       join="false"
       linkedpaths="#path18,0,1"
       id="path-effect20" /><inkscape:path-effect
       effect="bspline"
       id="path-effect23-6"
       is_visible="true"
       lpeversion="1.3"
       weight="33.333333"
       steps="2"
       helper_size="0"
       apply_no_weight="true"
       apply_with_weight="true"
       only_selected="false"
       uniform="false" /><inkscape:path-effect
       effect="bspline"
       id="path-effect23-7"
       is_visible="true"
       lpeversion="1.3"
       weight="33.333333"
       steps="2"
       helper_size="0"
       apply_no_weight="true"
       apply_with_weight="true"
       only_selected="false"
       uniform="false" /></defs><g
     inkscape:label="Layer 1"
     inkscape:groupmode="layer"
     id="layer1"><g
       inkscape:groupmode="layer"
       id="layer2"
       inkscape:label="test"
       style="display:inline"><g
         id="g23"
         transform="translate(0.23086733,8.9268694)"
         style="fill:#2e2e2e;fill-opacity:1"><path
           d="m 50.654344,146.89198 c -1.990193,0.35981 -3.789239,0.60717 -5.554568,0.52846 -1.765329,-0.0787 -3.496874,-0.48349 -4.598794,-1.09067 -1.101921,-0.60719 -1.57416,-1.41674 -1.630375,-3.09213 -0.05622,-1.67539 0.303585,-4.21648 1.16939,-6.74641 0.865805,-2.52994 2.237548,-5.04855 3.451914,-6.71968 1.214366,-1.67113 2.271248,-2.49466 2.912182,-2.9332 0.640935,-0.43853 0.865808,-0.49198 1.720364,-0.22635 0.854555,0.26562 2.338738,0.8503 3.710522,1.72734 1.371784,0.87705 2.631089,2.0464 3.969144,3.4969 1.338056,1.4505 2.754772,3.18204 3.541856,4.9811 0.787084,1.79907 0.944497,3.66554 0.449748,5.13852 -0.49475,1.47298 -1.641615,2.55238 -3.305755,3.32823 -1.664139,0.77584 -3.845435,1.24808 -5.835628,1.60789 z"
           id="path14"
           style="display:none;fill:#2e2e2e;fill-opacity:1" /><path
           id="path12"
           style="display:inline;fill:#ffffff;fill-opacity:1;fill-rule:nonzero;stroke:#020202;stroke-width:0;stroke-linecap:round;stroke-linejoin:round;stroke-miterlimit:20;stroke-dashoffset:135.831;stroke-opacity:1"
           d="m 47.391549,125.88661 c -0.09554,-0.003 -0.190989,0.002 -0.287838,0.0155 -0.194922,0.028 -0.368164,0.0905 -0.533817,0.17363 -0.160085,0.0804 -0.32023,0.18408 -0.484725,0.29663 -0.340802,0.23317 -0.789334,0.56658 -1.310515,1.05988 -0.525089,0.497 -1.114865,1.14763 -1.739428,2.00711 -0.630795,0.86806 -1.291349,1.94139 -1.90066,3.10834 -0.620833,1.18902 -1.189665,2.4772 -1.628841,3.76049 -0.449042,1.31213 -0.760354,2.61214 -0.95343,3.78479 -0.198898,1.208 -0.275079,2.29639 -0.24598,3.16363 0.01501,0.4472 0.05827,0.84596 0.135909,1.20509 0.07954,0.36793 0.195057,0.69573 0.353984,0.99064 0.163276,0.30298 0.36657,0.56106 0.606681,0.786 0.244895,0.22941 0.523316,0.41962 0.825273,0.58601 0.628676,0.34641 1.400042,0.61092 2.193664,0.7984 0.865661,0.2045 1.777442,0.32271 2.652552,0.36173 2.020077,0.0901 4.093316,-0.25001 5.680273,-0.53691 0.870246,-0.15734 1.987687,-0.37301 3.081466,-0.65681 0.943558,-0.24483 1.971554,-0.5655 2.89233,-0.99477 0.834429,-0.38903 1.611896,-0.88093 2.250508,-1.51309 0.592936,-0.58694 1.065944,-1.29439 1.352372,-2.14716 0.268446,-0.79922 0.366975,-1.70913 0.283187,-2.6758 -0.07981,-0.92079 -0.325729,-1.89734 -0.750858,-2.86908 -0.409668,-0.93639 -0.9797,-1.85321 -1.627808,-2.73058 -0.629751,-0.85252 -1.328305,-1.66115 -2.016414,-2.40709 -1.325355,-1.43673 -2.629575,-2.6624 -4.080371,-3.58996 -0.711397,-0.45483 -1.44981,-0.83296 -2.123385,-1.13275 -0.667382,-0.29703 -1.272751,-0.51776 -1.723409,-0.65784 -0.221686,-0.0689 -0.42474,-0.12427 -0.613399,-0.15606 -0.09638,-0.0162 -0.191784,-0.0269 -0.287321,-0.03 z m -0.03617,1.12913 c -0.02838,0.0302 0.08106,0.006 0.135909,0.015 0.114078,0.0192 0.260364,0.0566 0.465605,0.12041 0.407442,0.12665 0.971552,0.3319 1.599386,0.61133 0.633501,0.28196 1.320413,0.63443 1.974556,1.05265 1.332809,0.85213 2.56081,1.99755 3.858163,3.40393 0.672155,0.72864 1.341545,1.50455 1.938382,2.31252 0.615372,0.83305 1.13535,1.67575 1.501201,2.51199 0.378409,0.86494 0.591779,1.72208 0.660425,2.51406 0.07214,0.83235 -0.01595,1.58439 -0.228927,2.21847 -0.224635,0.66879 -0.595182,1.2279 -1.075903,1.70377 -0.254405,0.25183 -0.541414,0.48199 -0.855245,0.69195 -0.179697,-0.77633 -0.425766,-1.80005 -0.692981,-2.41846 -0.393541,-0.91077 -1.023031,-2.14738 -1.753898,-3.19309 -0.730867,-1.0457 -1.562638,-1.90054 -2.675806,-2.49649 -1.113169,-0.59594 -2.507455,-0.93296 -3.823022,-0.71933 -1.315567,0.21364 -2.552309,0.97806 -3.485576,2.36109 -0.933267,1.38302 -1.563012,3.38457 -1.731677,4.94751 -0.125808,1.1658 0.0046,2.79282 0.200505,4.01112 -0.231283,-0.0407 -0.460429,-0.0875 -0.68523,-0.14056 -0.731532,-0.17281 -1.397475,-0.40708 -1.907894,-0.68833 -0.240919,-0.13275 -0.437249,-0.27067 -0.597896,-0.42116 -0.155014,-0.14522 -0.281735,-0.307 -0.384473,-0.49765 -0.10098,-0.18738 -0.184172,-0.41239 -0.244946,-0.69349 -0.0598,-0.27661 -0.09772,-0.60521 -0.111104,-1.00408 -0.02609,-0.7775 0.04236,-1.79049 0.232027,-2.94245 0.183551,-1.1148 0.480008,-2.35339 0.907438,-3.60237 0.418277,-1.22223 0.963189,-2.4572 1.561662,-3.6034 0.587503,-1.12518 1.219196,-2.15037 1.812809,-2.96726 0.584448,-0.80427 1.128796,-1.40218 1.602486,-1.85053 0.468941,-0.44385 0.868324,-0.74082 1.171505,-0.94826 0.155693,-0.10653 0.26427,-0.17433 0.353467,-0.21911 0.08341,-0.0419 0.139812,-0.0582 0.188102,-0.0651 0.02476,-0.004 3.428549,-3.59098 3.465349,-3.58998 z"
           sodipodi:nodetypes="ssssssssssssssssssssssssssssssssssssssssscsssssscssssssssssssssscs"
           transform="matrix(0.76227937,0,0,0.59272064,10.650494,45.162951)" /><path
           style="fill:none;fill-opacity:1;stroke:#ffffff;stroke-width:0.941001;stroke-linecap:round;stroke-linejoin:round;stroke-miterlimit:20;stroke-dasharray:none;stroke-dashoffset:135.831;stroke-opacity:1"
           d="m 37.418618,106.99079 c 0.712608,1.06891 1.425219,2.13783 2.375376,2.65249 0.950156,0.51466 2.137814,0.47507 3.087964,0.0396 0.95015,-0.43549 1.662745,-1.26685 2.038844,-1.82111 0.3761,-0.55425 0.415689,-0.83137 0.455279,-1.1085"
           id="path22"
           inkscape:path-effect="#path-effect23"
           inkscape:original-d="m 37.418618,106.99079 c 0.71261,1.06891 1.425218,2.13783 2.137826,3.20674 1.187706,-0.0396 2.375363,-0.0792 3.563043,-0.11877 0.712623,-0.83139 1.425218,-1.66275 2.137825,-2.49413 0.03959,-0.27713 0.07918,-0.55425 0.118769,-0.83138"
           transform="translate(-0.84882429,2.0365052)" /><path
           style="display:inline;fill:none;fill-opacity:1;stroke:#ffffff;stroke-width:0.941001;stroke-linecap:round;stroke-linejoin:round;stroke-miterlimit:20;stroke-dasharray:none;stroke-dashoffset:135.831;stroke-opacity:1"
           d="m 37.418618,106.99079 c 0.712608,1.06891 1.425219,2.13783 2.375376,2.65249 0.950156,0.51466 2.137814,0.47507 3.087964,0.0396 0.95015,-0.43549 1.662745,-1.26685 2.038844,-1.82111 0.3761,-0.55425 0.415689,-0.83137 0.455279,-1.1085"
           id="path22-6"
           inkscape:path-effect="#path-effect23-7"
           inkscape:original-d="m 37.418618,106.99079 c 0.71261,1.06891 1.425218,2.13783 2.137826,3.20674 1.187706,-0.0396 2.375363,-0.0792 3.563043,-0.11877 0.712623,-0.83139 1.425218,-1.66275 2.137825,-2.49413 0.03959,-0.27713 0.07918,-0.55425 0.118769,-0.83138"
           transform="translate(9.9532784,1.3422585)" /></g></g><path
       id="path1"
       style="fill:#050905;stroke:none;stroke-opacity:1"
       d="m 191.05087,52.209733 c -2.86126,1.268098 -5.5768,2.769072 -8.55142,3.780648 -5.65591,1.923397 -11.64773,2.803529 -17.18706,5.077209 -9.75833,4.00542 -18.54933,12.768461 -19.28719,23.738603 -0.51818,7.704108 2.91308,14.850462 7.58765,20.743437 0.75538,0.95227 1.47986,1.98708 2.47065,2.70733 0.63246,0.45975 1.8428,0.86006 2.23293,1.54926 0.32843,0.58016 0.11363,1.53302 0.14935,2.17816 0.0735,1.32759 0.32388,2.68055 0.601,3.97908 0.87208,4.08641 2.36515,7.96974 4.08243,11.7688 3.63387,8.03908 8.51567,15.50355 11.95948,23.62181 2.14273,5.05116 3.59147,10.45934 4.19199,15.91737 0.80334,7.30141 -0.15962,15.22843 -4.72116,21.25142 -4.26294,5.62871 -12.02458,8.08279 -18.74976,6.16862 -0.4761,-0.1355 -1.07978,-0.21802 -1.48311,-0.52039 -0.33095,-0.24811 -0.74444,-0.44791 -1.05761,-0.71183 -0.42817,-0.36084 -0.7168,-0.6577 -1.12262,-1.06378 -0.33488,-0.33509 -0.8709,-1.22475 -1.39578,-1.13739 -0.46791,0.0779 -0.57674,0.79065 -0.68523,1.15962 -0.3019,1.02676 -0.47673,2.48536 -1.30173,3.2334 -2.5918,2.35008 -6.3292,3.7959 -9.63352,4.77128 -5.08158,1.50001 -10.5987,1.65705 -15.83262,1.08211 -1.86048,-0.20437 -3.86727,-0.40576 -5.67097,-0.91519 -1.00214,-0.28305 -1.68613,-1.75402 -2.19935,-2.58382 -0.22567,-0.36488 -0.49867,-1.08004 -1.01751,-1.08004 -0.58316,0 -0.98556,0.92188 -1.2485,1.33428 -0.78045,1.22405 -1.41744,2.39001 -2.73317,3.10111 -4.36643,2.35988 -9.2968,3.67033 -14.223939,4.1491 -6.046194,0.58754 -12.155305,-0.0327 -17.864543,-2.16525 -1.389533,-0.51902 -3.450209,-1.03989 -4.487065,-2.14147 -0.520992,-0.55353 -1.08352,-1.07772 -1.559077,-1.67173 -0.196464,-0.24539 -0.434542,-0.65673 -0.802535,-0.62787 -0.410083,0.0322 -0.692542,0.6801 -0.914673,0.9648 -0.723754,0.9276 -1.350657,1.91963 -2.312521,2.62258 -6.143433,4.48972 -14.684566,6.33311 -22.182108,6.02082 -2.663334,-0.11092 -5.328897,-0.40684 -7.873938,-1.25005 -1.464528,-0.48522 -2.892521,-1.13953 -4.148584,-2.04226 -0.689686,-0.49566 -1.245865,-1.31192 -2.031918,-1.65002 -0.904069,-0.38887 -1.931555,0.29709 -1.859834,1.29397 0.06186,0.85983 0.909582,1.54457 1.520837,2.05724 1.724817,1.44665 3.797071,2.37313 5.92677,3.0484 8.068968,2.55846 17.722561,1.51188 25.484749,-1.62626 3.262917,-1.31916 6.350461,-3.1676 9.990605,-3.20601 1.127306,-0.0119 2.547767,0.0796 3.640605,0.36587 0.533006,0.13961 1.006549,0.44173 1.523938,0.62735 1.301264,0.46691 2.634971,0.85593 3.979602,1.17616 4.071592,0.96963 8.277201,1.22759 12.445752,0.92759 4.314218,-0.31047 8.554227,-1.28703 12.615247,-2.75539 2.02131,-0.73087 3.9758,-2.18071 6.09627,-2.54506 2.92116,-0.50194 5.85487,0.5844 8.7204,1.01803 3.89099,0.58884 7.86059,0.65744 11.76879,0.216 3.72047,-0.42022 7.46526,-1.35124 10.83758,-3.00912 1.09683,-0.53921 2.18078,-1.10427 3.21738,-1.75338 1.1602,-0.72651 2.38008,-1.59557 3.72483,-1.93011 2.81956,-0.70145 5.56549,0.57525 8.38244,0.69246 4.78424,0.19904 10.26668,-1.82255 13.88494,-4.90461 7.4633,-6.35728 9.10434,-17.28092 7.97419,-26.49916 -0.64273,-5.24253 -1.92187,-10.51111 -3.91397,-15.40939 -2.31294,-5.68709 -5.47469,-10.99662 -8.31939,-16.42535 -4.02887,-7.68857 -8.59146,-16.22146 -8.60981,-25.14576 3.72089,-0.0874 7.49583,-1.08773 11.00656,-2.25774 11.95151,-3.98312 22.74241,-12.851288 24.56439,-25.936402 0.93396,-6.707414 -1.54244,-12.937856 -3.23546,-19.304248 -0.87864,-3.304005 -1.15102,-6.880861 -2.36368,-10.074837 z M 20.950659,75.023844 c -0.183227,0.0044 -0.349094,0.06434 -0.38654,0.261483 -0.0662,0.348527 0.187895,0.81347 0.293006,1.138949 0.291409,0.902332 0.654102,1.78201 0.865063,2.709395 1.10477,4.856531 2.693862,10.459207 7.954037,12.351184 1.436313,0.51662 3.052799,0.70437 4.571814,0.564307 0.987659,-0.09108 2.46008,-0.488343 3.296439,0.178283 0.807884,0.64393 1.323971,1.72403 1.722376,2.654102 0.59703,1.393776 1.0546,2.842866 1.403015,4.318083 0.229135,0.97017 0.314093,1.94744 0.690397,2.87838 -1.898607,1.03734 -3.389624,2.86868 -4.55011,4.65656 -2.846953,4.38609 -4.028201,9.85439 -4.603336,14.98617 -0.947935,8.45817 -0.53612,16.94341 0.241845,25.4 0.875593,9.5178 2.240775,18.97452 3.487126,28.44787 0.82822,6.29519 1.605215,12.65281 2.850472,18.88102 0.289238,1.44664 0.555835,2.91404 1.020093,4.31757 0.192425,0.58174 0.59226,1.21957 1.299662,1.13274 0.69883,-0.0858 0.971142,-0.76257 0.89917,-1.38648 -0.188645,-1.63532 -0.758644,-3.27739 -1.033012,-4.91081 -1.143085,-6.80524 -2.131601,-13.64539 -3.014803,-20.48919 -1.996971,-15.47426 -4.691151,-31.17343 -3.804936,-46.82039 0.385643,-6.80891 1.396711,-14.8237 6.06578,-20.15071 0.675003,-0.77013 1.463659,-1.48643 2.327506,-2.04019 0.686751,-0.44024 1.414216,-0.82513 2.201416,-1.04955 4.204364,-1.19865 8.100421,1.51622 10.920781,4.35943 5.791522,5.83846 8.316676,13.89387 9.889836,21.75939 0.310896,1.55443 0.656352,3.10177 0.965315,4.65657 0.187813,0.94514 0.458427,1.91758 0.289905,2.87889 -2.06453,11.77692 -1.294113,23.83072 3.788399,34.79788 1.095649,2.36422 2.40033,4.65057 3.912423,6.77323 1.018,1.42906 2.318598,2.72976 3.083533,4.31808 -1.404219,0.73578 -3.111567,2.0128 -4.208012,3.16053 -0.543605,0.56903 -0.393609,1.59673 0.567924,1.44074 0.484838,-0.0787 0.892251,-0.47256 1.26969,-0.75809 0.706939,-0.53479 1.407918,-1.07739 2.116666,-1.60972 0.354769,-0.26646 0.937689,-0.8885 1.42782,-0.6687 0.606448,0.27197 1.130825,1.12356 1.615922,1.57923 0.184139,0.17297 0.453306,0.39163 0.397909,0.67748 -0.140399,0.72445 -2.04986,1.55203 -1.018543,2.43603 0.993356,0.85148 1.940801,-1.21821 2.826184,-1.33945 0.859555,-0.11771 2.005284,0.87855 2.794145,1.17822 -0.33106,0.38848 -0.792061,0.82651 -0.874882,1.3534 -0.09594,0.61033 0.470173,1.04877 1.04128,0.82218 0.665236,-0.26395 0.911196,-1.17179 1.614372,-1.34256 0.835546,-0.20291 2.006513,0.31904 2.875793,0.35192 -0.259679,0.62558 -0.163204,1.80521 0.841293,1.41232 0.487526,-0.19069 0.658584,-0.76741 1.128096,-0.971 0.448685,-0.19455 0.956469,0.0684 1.404049,-0.1726 0.930052,-0.50071 0.234395,-1.37593 -0.49506,-1.53841 -0.0114,-0.16993 -0.01491,-0.34177 -0.07648,-0.50333 -0.470897,-1.23576 -1.471239,0.148 -2.129069,0.20206 -0.770108,0.0633 -1.700569,-0.21161 -2.451014,-0.37621 0.349684,-0.44802 0.912125,-0.9453 1.024227,-1.5229 0.107094,-0.5518 -0.382596,-1.04374 -0.936893,-0.90176 -0.853819,0.21869 -1.067837,1.38276 -1.872754,1.6459 -0.448149,0.14652 -1.065154,-0.23553 -1.431437,-0.46199 -0.219077,-0.13544 -0.4605,-0.29277 -0.618567,-0.50023 -0.215972,-0.28346 -0.08526,-0.53338 0.131258,-0.76894 0.481868,-0.52425 1.298592,-1.00386 1.506368,-1.7229 0.291367,-1.00832 -0.855141,-1.09205 -1.442806,-0.6413 -0.236399,0.18132 -0.456386,0.38656 -0.676962,0.58653 -0.365812,0.33164 -0.714194,0.6775 -1.100708,0.98547 l -1.947684,-2.45515 v -0.0847 c 1.119032,-0.7478 2.276672,-1.57222 3.279903,-2.47065 0.398637,-0.357 0.728911,-0.98335 0.223759,-1.41645 -0.376995,-0.32321 -0.848641,-0.14764 -1.217497,0.0863 -0.829298,0.52595 -1.590373,1.18168 -2.370915,1.77612 -0.420708,0.32039 -0.89794,0.77136 -1.408699,0.36845 -1.42997,-1.12802 -2.556103,-2.77067 -3.557923,-4.27054 -2.134909,-3.19627 -3.863583,-6.68062 -5.08031,-10.32908 -2.426761,-7.27683 -3.355175,-15.0463 -2.622579,-22.69061 0.241619,-2.52117 0.780035,-4.90109 1.28416,-7.36596 0.965434,-4.7204 2.218138,-9.43312 4.299479,-13.80071 3.081476,-6.46631 7.724056,-11.91848 13.182141,-16.5163 4.948866,-4.16886 10.317185,-8.085502 16.425355,-10.36836 3.65162,-1.364754 7.52041,-2.287179 11.42979,-2.405538 14.39757,-0.43586 26.02324,10.039138 32.56752,22.008478 2.91462,5.33079 5.13991,11.19999 6.21513,17.18758 0.98469,5.48348 1.0185,11.14096 0.60358,16.67908 -0.46641,6.22539 -1.58492,12.35083 -3.80029,18.20354 -1.19419,3.15491 -3.09676,5.8855 -5.34799,8.38192 -4.1439,4.59523 -9.73874,8.35804 -15.75976,9.97459 -2.19878,0.59034 -4.59145,0.77307 -6.85798,0.87023 -5.94055,0.25466 -11.82628,-0.68737 -17.35657,-2.90318 -3.84532,-1.54068 -7.540154,-3.69978 -10.668077,-6.42338 -1.054768,-0.91843 -2.580431,-2.06615 -3.132625,-3.38068 -2.076483,-2.06232 -3.047891,-4.59817 -4.396114,-7.11222 -4.722497,-8.80611 -5.177622,-19.06964 -2.442228,-28.53263 0.912533,-3.15688 1.920414,-6.30868 3.765661,-9.05939 4.623025,-6.89153 11.383086,-11.4067 19.159033,-13.99812 4.81255,-1.60384 10.13925,-2.49265 15.15567,-1.33325 11.88632,2.74716 20.25592,15.24449 20.14295,27.18491 -0.0514,5.43297 -1.78657,10.66501 -4.68757,15.23989 -2.3815,3.75564 -5.55397,6.92121 -9.69811,8.65839 -6.02634,2.52618 -13.17363,1.27961 -18.96525,-1.30225 -2.82882,-1.26106 -5.52768,-3.03895 -7.36338,-5.57795 -2.517476,-3.48199 -2.903095,-8.12229 -2.719726,-12.27677 0.104976,-2.37829 0.470101,-4.83383 1.441256,-7.02748 2.63394,-5.94959 9.86007,-9.90371 16.26154,-9.90586 3.467,-0.001 7.20713,1.30403 9.08885,4.40232 2.30274,3.79152 3.96133,9.19182 2.04432,13.46223 -2.06565,4.60155 -9.67396,6.87313 -13.49065,3.11454 -2.15058,-2.11784 -2.56083,-5.90288 -0.60565,-8.2765 1.15645,-1.40397 4.21904,-3.26933 5.8074,-1.51671 0.84613,0.93364 1.27664,3.76919 -0.55811,3.95377 -0.87517,0.088 -1.46754,-0.86975 -2.36729,-0.69815 -0.71089,0.13559 -1.0046,0.9403 -0.68782,1.55546 0.94189,1.829 3.87594,1.90208 5.25085,0.65577 2.33358,-2.1153 1.57962,-6.78323 -1.26453,-8.10234 -2.37731,-1.10259 -5.52671,0.0926 -7.36544,1.72289 -3.97735,3.52645 -3.02519,10.6843 1.26969,13.52837 4.3058,2.8513 11.05072,1.63226 14.4446,-2.12855 4.0468,-4.48429 3.03791,-11.12773 0.69556,-16.17007 -0.93363,-2.00979 -2.12794,-3.94393 -3.87986,-5.34955 -1.86824,-1.49894 -4.64013,-2.36213 -7.02697,-2.43499 -7.71008,-0.23538 -16.48895,3.41692 -19.865449,10.74818 -1.785535,3.87687 -1.912162,8.42322 -1.650545,12.61422 0.270764,4.3375 1.196251,8.74568 4.498434,11.83752 2.54511,2.383 5.6429,3.92758 8.88938,5.11235 5.94407,2.16922 12.94381,2.99229 18.96525,0.67386 4.39121,-1.69075 7.77053,-4.96074 10.35699,-8.81755 4.37621,-6.52558 6.46815,-14.53596 5.24051,-22.35161 -1.58314,-10.07897 -8.71701,-20.23412 -18.47588,-23.80216 -7.97691,-2.91651 -16.39897,-1.06817 -23.96081,2.18798 -3.495344,1.50511 -6.87007,3.29472 -9.821622,5.72006 -2.928146,2.40611 -5.505819,5.41791 -7.12618,8.86664 -1.992023,4.23977 -3.775408,8.65855 -4.586283,13.29273 -1.69169,9.66804 0.460282,19.14872 5.265312,27.60142 0.714328,1.25661 1.360201,2.54038 2.195215,3.72535 2.1906,3.10871 5.288007,5.62319 8.401037,7.76232 7.005521,4.81387 15.139761,7.64779 23.706561,7.38818 3.02034,-0.0915 5.95727,-0.64995 8.8899,-1.3379 5.22163,-1.22494 9.91463,-2.94641 14.05444,-6.48746 5.68436,-4.86221 8.98452,-11.46907 11.13627,-18.5012 0.73079,-2.38829 1.43312,-4.79689 1.77198,-7.28173 0.12658,-0.92812 0.0798,-1.8641 0.16123,-2.79362 0.21679,-2.4734 0.54217,-4.97023 0.63924,-7.45071 0.0557,-1.42469 -0.077,-2.88669 -0.077,-4.31808 0,-1.56007 0.1339,-3.19038 -0.0413,-4.74132 -0.25455,-2.25119 -0.98094,-4.42687 -1.54202,-6.60425 -1.78197,-6.91541 -4.44798,-13.51403 -8.28477,-19.55797 -6.68613,-10.532384 -18.54119,-19.490142 -31.53399,-19.129586 -11.17361,0.31008 -20.970275,5.66113 -29.294852,12.803866 -4.360313,3.74129 -8.370678,7.97836 -11.453048,12.84521 -1.360377,2.14794 -2.343889,4.3179 -3.414779,6.60425 -0.441131,0.94181 -1.00507,1.81655 -1.373559,2.79363 -0.592631,1.57142 -0.473413,3.51318 -1.453658,4.91081 -0.277575,-3.02801 -1.295591,-5.95845 -2.283582,-8.80515 -0.629466,-1.81368 -1.160104,-3.70771 -1.934765,-5.4653 -1.095695,-2.48598 -2.577021,-4.87777 -4.17959,-7.06571 -1.516259,-2.07009 -3.267372,-3.97672 -5.318022,-5.52731 -0.576973,-0.43627 -2.25579,-1.10968 -2.236556,-1.9296 0.0542,-2.310716 1.033968,-5.056603 2.046904,-7.105512 0.346961,-0.701807 0.797088,-1.762332 1.555977,-2.103231 1.202738,-0.540267 3.098214,-0.158564 4.390946,-0.185518 2.154613,-0.04494 4.235767,-0.675225 5.92677,-2.035018 2.290186,-1.841624 3.783857,-4.492047 4.617806,-7.275525 0.376127,-1.255407 0.538035,-2.547174 0.868681,-3.810104 0.348713,-1.331929 0.914228,-2.587128 1.286743,-3.894852 -1.593164,-0.260056 -3.446874,0.944086 -4.99556,1.296561 -1.759288,0.400409 -3.553772,0.504611 -5.249292,1.172022 -3.173801,1.24933 -5.228684,4.161916 -6.372738,7.26829 -0.427116,1.159722 -0.729154,2.337841 -0.93741,3.555855 -0.115905,0.677891 -0.08822,1.475651 -0.361735,2.112016 -0.212778,0.495039 -0.663236,0.858759 -0.991154,1.275374 -0.43172,0.548494 -0.784547,1.152737 -1.093474,1.777153 -1.204066,2.433671 -1.698474,5.062085 -2.181262,7.704959 -2.967803,-0.98121 -5.440993,-0.96201 -8.381917,0.0847 -0.656414,-2.496483 -0.973421,-4.973653 -2.034501,-7.365962 -0.34488,-0.777565 -0.783805,-1.521292 -1.294495,-2.201416 -0.378558,-0.504155 -0.875391,-0.997315 -1.074353,-1.608688 -0.356066,-1.094114 -0.353539,-2.346109 -0.63717,-3.471622 -0.744913,-2.956015 -2.270557,-6.08395 -4.781104,-7.914763 -2.774502,-2.023319 -6.10803,-1.826617 -9.228377,-2.89543 -0.731016,-0.250404 -1.447633,-0.602114 -2.201416,-0.777731 -0.09351,-0.02178 -0.221797,-0.04907 -0.349333,-0.05581 -0.02657,-0.0014 -0.05292,-0.0017 -0.07906,-0.001 z M 168.38714,174.6219 c -0.0383,2.6e-4 -0.0757,0.002 -0.11162,0.006 -2.12319,0.20182 -1.95516,3.4164 -1.22887,4.75113 1.23313,2.26618 5.70527,3.26344 4.95009,6.43475 -0.0853,0.35811 -0.23693,0.69696 -0.41858,1.01596 -0.37451,0.6577 -0.88754,1.19789 -1.36529,1.77819 -0.34259,0.41613 -0.80844,1.55746 0.18241,1.5446 0.62837,-0.008 1.13642,-0.76674 1.48105,-1.20612 1.03229,-1.31607 1.92542,-2.92282 1.57975,-4.65657 -0.34109,-1.7107 -1.71308,-2.83989 -3.0639,-3.79666 -0.9617,-0.68115 -2.16182,-1.45286 -2.33784,-2.72284 -0.0592,-0.42722 -0.087,-1.19112 0.32556,-1.46709 0.41671,-0.27869 1.14621,0.0579 1.26711,-0.66042 0.11362,-0.67517 -0.686,-1.02455 -1.25987,-1.02061 z m -4.45709,2.01486 c -0.10783,0.003 -0.22465,0.0385 -0.35089,0.11369 -0.66055,0.39349 -0.24369,1.52992 -0.16898,2.12029 0.21095,1.66681 0.5313,3.9592 -0.0605,5.57692 -0.21359,0.58401 -0.95953,0.86868 -1.4242,1.22473 -0.75998,0.58233 -1.40017,1.3136 -1.82987,2.17299 -0.49055,0.9811 -0.9058,2.95085 0.47853,3.4339 0.64621,0.22549 1.30347,-0.14661 1.76578,-0.57878 0.96166,-0.89896 1.52471,-2.22015 1.92702,-3.44785 0.15242,-0.46511 0.21989,-1.09805 0.59324,-1.44642 0.46702,-0.43578 1.61934,-0.66529 2.20814,-0.39326 0.47197,0.21805 0.7991,1.02649 1.42265,0.6103 0.7179,-0.47917 0.14087,-1.44371 -0.38861,-1.78852 -0.91097,-0.59325 -2.14783,-0.37636 -3.12901,-0.11472 0.11308,-2.06262 -0.0315,-4.04057 -0.12609,-6.09575 -0.023,-0.49982 -0.33501,-1.40575 -0.91725,-1.38752 z m -1.07332,10.19266 c -0.35964,1.06303 -0.81292,2.30841 -1.77767,2.96365 0.0514,-1.21894 0.75654,-2.30921 1.77767,-2.96365 z m -6.09576,65.78617 c -0.40989,1.34879 -0.67745,2.56364 -0.67747,3.97908 h 0.0848 c 0.19184,-1.23393 0.78238,-2.73397 0.59272,-3.97908 z"
       sodipodi:nodetypes="cssssssssssssssssssssssssssssssssssssssssssscssssssssssssssccssccsssssssscssssssssssssscsssssscscssssssscssscsscccscssssssssscccsssssssssssscssssssssscsssssssssssscssssscssssssssssssssssssssssssssssssccscssssssscssssssssssscsssssssccssssssssccccsssscssssssccccscssssssssscscccccsccss" /><path
       style="fill:#008000;stroke:#000000;stroke-width:2.79537946;stroke-linecap:round;stroke-linejoin:round;stroke-miterlimit:20;stroke-dashoffset:135.831;stroke-dasharray:none"
       d="m 535.60352,1.6875 c -11.64822,4.683262 -22.82255,10.79583 -35.09486,13.990047 -26.82138,7.71553 -55.66271,13.153633 -77.77624,31.451359 -23.33774,17.340815 -39.51623,46.141627 -36.03711,75.755864 2.40833,23.35975 14.6608,44.75811 29.97852,62.0957 3.73941,4.48433 12.04448,6.1654 11.14062,13.43359 1.0414,23.55513 11.56152,45.40603 21.31024,66.45588 19.27056,38.15575 44.28365,75.79963 47.61164,119.55779 1.69675,20.8462 0.71477,42.83474 -9.97308,61.37092 -12.72721,24.65973 -44.88621,37.71973 -70.84333,27.34783 -5.27156,-2.29737 -8.61506,-8.15257 -14.0293,-9.7832 -3.28174,6.63709 -4.49021,15.20163 -11.92578,18.85352 -19.15358,11.47958 -41.68924,16.9586 -63.99777,15.47467 -11.42312,-0.78655 -23.53142,-0.10673 -34.34207,-4.16217 -4.22955,-2.95937 -5.22206,-9.58888 -10.05469,-11.50391 -5.21617,2.80481 -6.40628,10.11623 -11.58593,13.33008 -11.01775,7.5157 -24.3847,10.82919 -37.27149,13.62695 -16.643,1.83299 -33.68759,2.11808 -50.30859,-0.0273 -11.27819,-2.68611 -22.99725,-5.46797 -33.07032,-11.3457 -3.73711,-2.4506 -6.34497,-7.52621 -10.63281,-8.65626 -5.3186,5.71346 -10.08202,12.21904 -17.25195,15.89063 -26.702379,15.27621 -59.570474,19.34827 -89.404298,12.2793 -8.686056,-1.8609 -16.088933,-6.73625 -22.9433595,-12.1211 -4.2545219,-3.55571 -10.2629669,2.79798 -6.5585937,6.7461 11.6811782,12.92687 29.9270222,17.35948 46.6503902,19.00976 25.660434,1.91416 51.254281,-4.1947 74.455081,-14.93945 12.53658,-6.16883 27.5364,-7.08068 40.35547,-1.17774 35.56866,11.3822 75.34816,6.84161 108.5957,-9.57226 15.52912,-6.16516 31.39295,2.99121 47.26153,2.31909 20.90765,1.37304 42.42077,-0.65677 61.50214,-9.86401 11.55168,-4.6509 21.75051,-15.32812 35.16406,-12.71875 13.42742,2.58411 27.54607,3.57313 40.56055,-1.49219 23.68605,-7.33956 40.75106,-28.70694 46.68159,-52.27941 8.19223,-29.27599 2.59087,-60.20751 -6.05854,-88.68934 -14.022,-39.90759 -39.8378,-74.50959 -53.74414,-114.45703 -3.71229,-11.14079 -6.078,-22.70937 -6.76563,-34.43945 30.19573,-2.36645 59.80351,-14.1806 83.26953,-33.34961 24.24344,-20.06928 40.68493,-52.49887 34.50977,-84.355472 C 551.1254,53.629376 543.85313,32.28692 539.59308,10.245765 538.26935,7.9506438 539.08466,2.0242898 535.60352,1.6875 Z"
       id="path2"
       transform="matrix(0.30085361,0,0,0.30085361,29.634079,51.746819)" /><path
       style="fill:#008000;stroke:#000000;stroke-width:3.22637;stroke-linecap:round;stroke-linejoin:round;stroke-miterlimit:20;stroke-dasharray:none;stroke-dashoffset:135.831"
       d="m 274.11666,283.0557 c -10.35836,2.11381 -20.26064,6.23553 -30.76425,7.92797 -14.91558,3.08996 -24.92138,16.08074 -29.94549,29.69371 -4.21144,8.63192 -2.04693,19.58942 -9.40465,26.69195 -7.08334,9.98903 -8.45517,22.55759 -12.21437,33.82945 -9.50623,-2.31104 -19.70042,-2.11624 -29.19611,0.30927 -4.96783,-9.97342 -5.31779,-22.02638 -11.52421,-31.63259 -8.70084,-10.79034 -7.32938,-25.62984 -14.47811,-37.19544 -5.51594,-10.88681 -15.25851,-20.15239 -27.74918,-21.88752 -10.476694,-1.72438 -20.497641,-6.09469 -30.954276,-7.4196 -0.852127,6.32801 3.404007,12.74312 4.33325,19.04765 3.945722,15.29825 9.495353,31.90436 23.649566,40.73824 10.21025,7.32162 23.42194,4.02731 35.06626,5.05931 9.13845,10.0493 11.10217,24.17266 14.55939,36.80688 -18.88034,14.33456 -28.12191,37.48383 -32.05798,60.17468 -5.46941,30.13607 -4.01189,60.9912 -2.89924,91.44007 4.65133,59.27755 13.48118,118.13287 21.76264,176.98629 2.73173,13.60229 3.30471,28.17666 9.54085,40.76228 2.60439,4.22883 8.49857,0.028 7.07154,-4.11564 -9.79985,-54.87669 -16.99718,-110.20645 -23.98013,-165.51339 -4.2906,-33.65725 -6.54032,-67.56079 -5.4281,-101.49803 1.1224,-26.98978 4.04487,-56.01875 20.43152,-78.50455 7.31513,-10.11726 19.68265,-17.8935 32.55444,-14.97175 18.13643,3.84082 30.9908,19.24073 40.96217,33.84503 17.24188,26.33693 22.67569,58.19273 28.23856,88.58749 0.0797,11.81899 -3.29729,23.50153 -3.21559,35.40526 -1.89245,34.54567 3.01874,69.86657 18.26037,101.19469 5.90227,13.72471 14.52438,25.94218 23.71683,37.60723 4.75273,4.15395 -1.75346,5.4298 -4.63902,7.83678 -3.67503,3.25406 -9.05557,6.27744 -10.37832,11.21295 2.45599,5.19775 8.0891,0.1636 11.02407,-1.84895 3.6936,-2.0749 7.13119,-6.03527 11.15203,-6.94338 2.32563,2.40886 6.49905,4.88964 6.77814,8.29274 -2.15383,2.23635 -6.70086,6.64067 -2.68033,9.397 5.35532,2.09963 7.92509,-6.75008 13.5067,-4.26829 2.26863,0.79962 8.03726,2.05156 5.06327,5.35865 -2.484,2.51032 -0.77771,7.95487 3.16405,5.86619 3.42411,-2.00971 6.31143,-5.88885 10.84024,-4.02842 3.66556,-0.42644 5.42573,1.98661 5.84835,5.13663 2.55238,3.47267 5.39876,-1.33231 7.88038,-2.23426 2.75376,-0.12461 8.42916,-1.50214 6.38361,-5.32893 -1.93929,-2.97747 -5.0111,-8.63938 -9.08375,-4.93243 -2.95862,1.3323 -7.70432,1.49849 -10.0651,-0.40443 1.61872,-2.11963 4.57891,-8.53783 0.0456,-8.91723 -4.56165,0.86547 -8.47499,8.94045 -13.38378,4.66281 -4.55185,-2.46526 -0.0564,-5.8466 1.99241,-8.12821 3.02217,-2.00136 2.52496,-7.78201 -1.79614,-6.93077 -3.54055,0.86503 -5.78418,5.78477 -9.29589,5.61639 -1.91817,-2.33928 -8.20724,-6.55018 -4.85498,-8.58122 4.48403,-3.3404 11.31839,-6.36695 12.17235,-12.43117 -2.96164,-4.45535 -8.78054,0.23002 -11.66893,2.49991 -2.90502,1.75768 -6.9458,7.17616 -9.83314,2.36511 -23.35076,-25.49547 -35.19003,-59.66399 -39.72708,-93.46044 -0.96305,-19.0853 -1.99055,-38.51291 0.92148,-57.45191 6.18404,-33.2672 14.76238,-67.35102 35.81275,-94.64099 19.51463,-24.51419 43.34404,-45.8662 70.31198,-61.91252 29.89618,-17.77276 66.81562,-27.30363 100.88508,-16.82163 24.07739,5.81438 44.00469,21.90308 61.07848,39.15414 30.74616,33.14469 49.80081,76.87628 54.08625,121.78624 1.60684,40.75838 -0.33762,83.13236 -17.58864,120.76525 -15.8727,30.08594 -44.72727,53.27253 -77.47763,62.34331 -18.27962,3.31016 -37.16355,2.4896 -55.61671,1.26681 -27.98162,-4.40802 -55.11904,-16.49623 -76.42691,-35.33587 -17.39291,-15.76511 -27.08628,-37.96959 -35.20129,-59.54539 -7.59219,-21.51577 -6.69984,-44.97464 -4.40486,-67.35567 4.65867,-25.2261 13.45185,-50.89454 32.34826,-69.11152 25.56687,-25.96951 61.61243,-41.79025 98.06378,-42.6453 38.08215,0.3769 71.00235,29.12047 84.63498,63.41488 13.40647,32.60933 9.19936,71.73457 -11.50786,100.41795 -13.32244,20.79654 -36.82301,36.18856 -62.12429,34.94541 -23.0188,-0.73643 -46.60547,-8.18684 -64.28865,-23.31626 -13.40083,-11.88793 -17.71871,-30.67281 -16.54733,-47.98006 -0.36976,-16.61499 2.41541,-34.78106 15.20243,-46.65691 17.10168,-18.03493 44.98881,-27.28532 68.90066,-18.84847 15.03314,6.2029 21.9489,22.86932 25.3382,37.67521 2.98411,13.35445 0.0779,29.34543 -12.2161,37.12605 -10.15441,7.44887 -25.05449,8.75424 -36.07137,2.64662 -14.55292,-8.05553 -13.58014,-33.14138 2.34726,-39.14422 4.87798,-3.60455 12.60912,-2.10044 14.72394,3.87179 1.28849,3.51664 0.41394,11.12696 -4.77383,10.15233 -3.32833,-1.82338 -10.17721,-4.09758 -11.32793,1.34809 0.55593,8.45697 12.64311,11.10964 18.89509,7.02 12.47991,-8.03944 8.65353,-29.60056 -5.38444,-33.68842 -11.62738,-3.13526 -24.24565,3.97352 -30.82372,13.40954 -8.22509,13.25284 -4.5854,31.98038 6.05054,42.83364 18.27062,15.39298 49.36305,10.03015 62.56931,-9.57938 9.51591,-14.51852 7.64947,-33.60224 2.5138,-49.37387 -5.22807,-15.90297 -16.51016,-30.40005 -32.72156,-36.04547 -10.24714,-1.19147 -21.10864,-0.73956 -31.53484,0.17235 -24.37081,4.14714 -48.46608,19.21503 -57.52784,43.05964 -7.01625,16.0618 -4.50859,33.99488 -4.302,50.98563 1.47371,18.76547 10.76662,37.53398 27.67639,46.89089 26.02272,15.64941 58.34651,22.84438 88.19409,15.57335 30.0789,-8.76843 50.38095,-36.72733 60.28152,-65.17827 9.83622,-27.22543 8.96929,-58.04354 -3.21075,-84.39262 -14.20318,-32.50783 -43.36085,-60.82368 -79.52916,-65.78427 -20.80303,-2.54477 -41.89891,0.73746 -61.39668,8.23702 -32.15378,11.27621 -64.00245,31.64156 -77.82544,64.10761 -13.58795,28.21685 -20.82736,60.11147 -16.12093,91.39249 4.06783,27.8624 15.78446,54.43314 31.94185,77.36263 18.642,22.10795 44.54595,37.45458 71.6956,46.79012 20.8925,7.5653 43.60863,6.79093 65.41329,5.06186 24.17403,-4.75257 49.5857,-10.89324 68.2612,-28.03922 21.07195,-16.66401 33.16683,-41.46642 41.6278,-66.37162 10.38202,-28.22803 10.19666,-58.77721 10.54574,-88.43972 -0.33147,-11.18559 0.64023,-22.56938 -3.7383,-33.15754 -9.915,-39.64858 -26.18712,-78.98213 -54.95779,-108.75915 -24.55817,-25.76559 -58.32039,-46.37015 -95.01072,-45.03271 -24.55942,-0.90325 -48.75101,6.02198 -70.1821,17.75962 -35.12154,18.46758 -65.4083,46.04167 -87.58435,78.88915 -7.59444,13.99401 -15.8665,28.0854 -19.97142,43.56259 -0.85072,1.83278 -0.50507,6.91189 -2.60514,7.13757 -4.7873,-19.54484 -11.04232,-38.94334 -19.23411,-57.36132 -9.7626,-18.26437 -23.44937,-34.62514 -40.38131,-46.5627 -1.56984,-6.15198 1.74093,-12.78317 3.33852,-18.70874 2.57244,-5.53199 3.96914,-12.55489 8.59607,-16.68264 13.53253,-2.27586 29.42516,1.0506 40.36346,-9.32562 13.43163,-11.24804 17.78962,-28.9057 21.62254,-45.18368 0.41606,-3.76774 3.92843,-7.88497 2.8493,-11.53927 -0.65743,-0.43318 -1.50594,-0.38731 -2.25608,-0.3628 z"
       id="path3"
       transform="scale(0.26458333)" /><path
       style="fill:#ffffff;stroke:#000000;stroke-width:3.39795;stroke-linecap:round;stroke-linejoin:round;stroke-miterlimit:20;stroke-dashoffset:135.831"
       d="m 273.99928,284.15698 c -13.5066,3.44631 -27.52372,6.00032 -40.34833,11.53456 -15.58239,9.41588 -20.35624,28.30363 -24.95541,44.64499 -3.16516,7.83114 -9.15237,14.39293 -10.91563,22.93993 -1.87371,5.84154 -3.39991,11.78482 -4.9421,17.72014 -10.0663,-0.14294 -20.37325,0.38032 -30.32906,0.38836 -5.87097,-9.46537 -6.62585,-21.43139 -12.34413,-31.12204 -9.72595,-16.1232 -9.3066,-37.76996 -24.69132,-50.56976 -11.25902,-9.72737 -27.213129,-9.44873 -40.714457,-14.0469 -2.082562,-0.29025 -7.858771,-2.98276 -5.831451,1.57787 4.945072,16.4346 8.006054,34.51382 19.23388,48.09514 7.003368,9.0628 18.620618,12.50276 29.702688,11.88233 6.43129,0.50139 15.73642,-0.96037 18.19827,6.92562 5.0401,9.67683 7.63071,20.33627 10.43541,30.81555 -24.03588,18.53187 -31.71857,50.07024 -34.67631,78.78422 -2.91771,44.62748 -0.0543,89.40629 5.76455,133.68951 6.1496,49.17525 11.81074,98.52089 21.58526,147.13217 1.37923,3.3457 1.61953,9.70365 6.00276,10.33518 5.15311,-1.57009 0.74253,-8.5305 1.37075,-12.08011 -10.01991,-64.65857 -19.9543,-129.41977 -26.22112,-194.55882 -2.08567,-35.29489 -3.81429,-71.24974 3.04835,-106.12249 4.76811,-19.5305 13.12127,-41.46011 32.10797,-51.10801 16.51499,-7.23048 34.23321,3.51392 45.21412,15.61303 27.02667,28.05301 35.04519,67.69947 41.76062,104.70117 0.0518,12.83702 -3.08391,25.7887 -2.83755,38.78604 -2.15543,40.31286 5.68658,81.93383 27.71037,116.24783 4.36706,8.27355 11.8288,14.89115 15.26475,23.56004 -4.6744,5.50228 -13.97352,7.96371 -15.74705,15.65937 2.62301,3.51224 7.08235,-2.11885 9.85704,-3.06923 3.64315,-1.69562 7.12403,-6.04214 11.15156,-6.12386 3.43743,2.23403 9.59137,7.65717 5.07155,11.74453 -2.98686,1.15756 -2.84981,6.67279 1.04813,5.22396 4.45182,-1.99734 9.27348,-6.2885 14.32311,-2.90221 2.81969,0.96964 4.63523,4.19043 2.01275,6.3932 -1.54138,2.77678 1.447,5.38121 3.8167,2.88968 4.76759,-3.45454 13.65093,-5.7297 16.49872,1.18176 2.73667,3.80317 7.10019,-2.08105 10.49804,-2.18187 4.67506,-0.2811 1.07261,-6.7271 -0.96253,-8.30365 -4.15581,-2.02304 -8.87484,2.8962 -13.33343,0.47188 -4.1308,-1.79963 1.0848,-7.39352 -0.43221,-10.20156 -4.64434,2.34777 -11.00961,10.07827 -16.00387,4.05682 -4.26634,-4.7867 7.41012,-8.60667 3.23418,-13.13925 -4.74634,-1.28306 -8.37787,8.22569 -12.65485,3.76659 -2.37888,-2.30985 -7.05204,-6.77442 -2.18605,-9.31627 3.38594,-3.51233 10.27496,-6.03456 10.31013,-11.49816 -6.93594,-1.25147 -12.0411,6.55822 -18.56157,7.67935 -23.4032,-23.38677 -35.29464,-55.86753 -41.40311,-87.80815 -2.06445,-20.494 -1.34895,-41.29855 -0.7131,-61.85149 4.20049,-25.4481 10.47715,-50.96603 21.52716,-74.37651 16.42424,-31.76907 43.01483,-57.27498 71.95967,-77.70064 31.11725,-21.4225 70.20724,-36.69354 108.24636,-27.49202 33.67253,6.77882 61.31115,30.46903 81.57487,57.20471 21.25476,29.31807 36.07096,63.96406 40.22208,100.01922 0.38849,27.76418 1.99774,55.93707 -3.18425,83.36236 -5.02366,26.34865 -14.74099,52.83198 -34.44214,71.84769 -17.19797,17.32757 -39.02534,31.76525 -63.45613,35.59594 -19.11126,1.42046 -38.73033,2.4327 -57.64339,-1.13316 -35.81478,-8.07692 -72.088,-27.57495 -89.48181,-61.33253 -11.02972,-20.63717 -21.11789,-42.95872 -20.34257,-66.86967 -0.64798,-20.94464 0.84435,-42.22103 8.77134,-61.83363 6.69106,-20.06182 19.07495,-38.07655 36.07268,-50.79111 25.64547,-21.33319 59.01911,-33.73053 92.41975,-32.95936 44.98637,4.3466 80.73061,44.65293 86.96864,88.22514 6.0405,38.58278 -11.33914,80.50578 -44.32088,101.90256 -13.10969,8.16723 -28.73539,11.44752 -44.02579,9.33924 -24.43948,-2.53114 -50.42791,-11.85527 -65.31209,-32.41072 -10.89514,-17.46835 -10.19608,-39.50083 -7.28892,-59.14439 5.21309,-28.09864 33.4065,-46.98142 60.63516,-49.12031 16.6606,-1.94187 34.56827,6.00034 41.73078,21.71802 7.54519,15.02108 11.86617,35.02683 1.98945,50.00338 -11.10081,16.10695 -38.78047,19.71893 -51.13024,3.30994 -6.8613,-10.52507 -3.98339,-26.4352 7.40375,-32.71554 5.25905,-4.49376 14.31,-3.62102 16.89124,3.28638 2.70882,4.08054 0.65982,13.03437 -5.5977,10.66089 -2.68596,-0.94415 -10.74923,-2.85944 -9.57728,2.50968 3.46074,8.14597 16.1614,8.98012 20.78104,1.36341 9.24828,-10.79126 -0.22358,-31.34732 -14.98555,-28.65419 -14.55944,-0.0611 -27.81419,13.46173 -27.39706,28.08836 -0.65377,13.54751 6.44625,28.37821 20.12542,32.60281 9.60121,3.3248 20.39352,2.22101 30.20587,0.24637 14.35075,-4.6997 26.46523,-18.2232 26.49984,-33.83259 2.20735,-25.05224 -8.21798,-53.64677 -32.37356,-64.5573 -6.92211,-3.32112 -15.32929,-0.3603 -22.87189,-1.03036 -25.93658,-1.10098 -52.24091,13.13879 -64.92664,35.88497 -10.7951,19.11261 -8.22652,42.06399 -6.5704,63.02132 2.39892,21.64168 19.04644,39.06477 38.59068,47.15173 22.85182,10.53762 49.17636,13.96138 73.86003,8.91331 31.57779,-8.52724 52.75767,-38.01374 62.01438,-67.99946 9.9721,-29.50952 6.52972,-62.85767 -8.91656,-89.86167 -14.45385,-26.08904 -38.58017,-49.83373 -69.02445,-54.71792 -23.27337,-3.32046 -47.29306,-0.83306 -69.08226,8.15738 -32.23606,11.61695 -63.0226,33.48267 -76.02997,66.28308 -16.39941,35.02039 -20.79973,76.18387 -8.1726,113.10676 9.24606,26.89725 22.9195,53.8611 46.62574,70.79268 20.2551,15.05206 43.63481,26.93207 68.62604,31.3176 16.89244,0.91255 33.93506,0.62931 50.7904,0.20052 23.7248,-5.67352 48.28669,-12.76095 66.5185,-29.89685 24.74009,-22.51176 37.82958,-55.04509 44.67536,-87.15273 5.35308,-30.07454 3.78161,-60.92072 3.01405,-91.23817 -11.52899,-41.47917 -26.44122,-84.16684 -57.68994,-115.17092 -24.12227,-25.64516 -57.37441,-44.68569 -93.33229,-44.59179 -44.01761,-0.64744 -85.17916,21.75762 -117.00262,50.71965 -19.34017,17.77302 -37.57923,37.4169 -48.81182,61.46229 -6.20368,10.81273 -9.68936,22.78624 -13.89037,34.39391 -2.00143,1.95833 -2.17217,-4.26098 -3.1632,-5.27407 -8.93426,-32.55284 -20.64056,-66.7032 -47.22398,-89.25883 -3.24801,-4.25622 -11.22462,-6.52082 -11.41096,-11.9792 1.26945,-11.0644 5.18443,-22.09407 11.20376,-31.42187 7.4915,-4.65055 17.22815,-2.37495 25.56443,-4.39924 17.57178,-1.62806 27.5646,-18.79343 32.57459,-33.93235 2.64505,-9.19603 6.38005,-18.55963 7.28582,-28.01611 -0.25667,-0.34123 -0.73878,-0.25576 -1.10659,-0.26308 z"
       id="path4"
       transform="scale(0.26458333)" /><path
       style="fill:none;stroke:#000000;stroke-width:0.69777;stroke-linecap:round;stroke-linejoin:round;stroke-miterlimit:20;stroke-dashoffset:135.831"
       d="m 272.15329,283.74361 c -12.78988,2.58431 -25.606,5.69044 -37.7554,10.52661 -11.81843,5.94762 -18.17908,18.70755 -22.21188,30.72644 -2.88158,9.03527 -5.37325,18.29649 -10.49515,26.39464 -4.7432,8.76861 -7.07743,18.52904 -9.67704,28.07737 -9.66697,0.41151 -19.24622,0.93699 -28.91872,0.56371 -5.15738,-10.47117 -7.48826,-22.14067 -13.02905,-32.47767 -7.21712,-14.0958 -8.97377,-30.79036 -18.86568,-43.49708 -8.40586,-11.27794 -23.03753,-14.12295 -35.91783,-16.87998 -4.844275,-0.85428 -9.44368,-2.67017 -14.330554,-3.32466 -4.707914,1.01229 -2.267675,6.2509 -1.514462,9.31191 4.847127,16.84791 8.905994,35.68526 22.820086,47.66494 8.6915,7.62768 20.84026,7.50502 31.70482,7.69844 4.87089,-0.008 10.12943,2.03169 11.62638,7.13593 4.30826,9.15053 6.91706,18.84291 9.5915,28.5389 -11.34864,10.24989 -20.66089,22.92415 -25.50537,37.53328 -11.17522,30.78724 -10.13296,64.04207 -9.81369,96.28131 1.07306,43.59804 7.7053,86.79377 12.99549,130.01386 4.51408,32.4846 8.38108,65.14127 15.49414,97.18681 1.2866,3.82214 1.70054,10.53017 7.04457,10.4617 5.14658,-1.06376 2.9511,-7.26196 2.52769,-10.80546 -10.03787,-67.34026 -20.98323,-134.72014 -26.77309,-202.55075 -1.62496,-24.61986 -1.70853,-49.58624 -0.29224,-74.1615 1.96846,-18.82291 5.11953,-37.8916 14.37883,-54.92754 5.68326,-9.91213 14.07851,-19.56166 25.46314,-22.70468 14.68568,-2.95048 28.46411,5.80042 38.17474,16.03166 22.85538,22.76865 32.20964,54.56132 38.67742,85.35574 2.22984,10.61718 4.89067,21.60661 2.93835,32.59137 -2.52556,19.67626 -2.16903,39.61553 -1.39746,59.39804 3.21518,34.40956 15.03542,68.31831 36.10085,95.92153 1.99724,3.17688 4.95476,6.53864 5.73995,10.00802 -4.71668,4.84279 -11.88794,7.57146 -14.7947,13.95454 -0.70495,3.67263 4.09217,5.04215 6.3629,2.66945 5.15477,-2.61406 9.4321,-7.26977 15.0581,-8.72123 2.67486,1.55075 6.26043,4.69964 5.45442,8.15277 -2.0034,2.09252 -4.77543,5.97981 -1.07934,8.03859 5.31735,1.27162 9.8517,-5.94791 15.23461,-2.74283 2.33521,0.7782 3.97898,3.14216 2.40028,5.48446 -2.12856,3.33119 2.75369,6.90423 5.37989,4.01088 4.20645,-3.02634 11.59627,-5.07285 14.79222,0.44416 2.95686,4.75042 7.47562,-0.13129 11.20698,-1.10283 4.79892,-0.32364 3.77794,-6.3556 1.46397,-8.9184 -4.18443,-4.97723 -11.06091,1.10845 -15.82837,-1.79209 -0.0508,-2.53072 0.68625,-6.88536 -3.11846,-6.92262 -3.74224,0.0994 -7.93087,5.64183 -11.61375,2.12927 -3.14853,-2.54726 1.38653,-5.60516 2.58298,-7.8607 2.74469,-2.50441 0.15651,-7.7156 -3.55054,-5.90995 -2.82189,0.97229 -4.81377,4.46621 -7.86791,4.44598 -2.15389,-1.51924 -5.49722,-3.99397 -4.73926,-6.88833 2.97886,-4.10314 9.22168,-5.65292 10.57228,-10.84752 0.16646,-3.87328 -4.78629,-4.47723 -7.15756,-2.32335 -3.65472,1.81907 -7.06367,4.92581 -10.99897,5.77413 -21.99023,-22.99151 -34.08042,-53.64353 -39.88515,-84.52817 -2.8581,-22.07684 -2.12073,-44.28794 -0.65395,-66.40088 3.43862,-21.20785 8.57873,-42.07727 16.76709,-61.90721 13.15805,-31.77273 37.55657,-56.96025 64.11759,-78.10699 27.08934,-20.89966 59.28866,-37.73577 94.16967,-38.39074 32.37919,-0.85586 63.29215,14.79884 85.87641,36.99288 26.52087,25.78406 44.63119,59.47107 54.5309,94.7599 4.56983,15.79544 5.79454,32.24608 5.54144,48.50674 0.17271,22.91621 0.25076,45.65846 -4.9561,68.05762 -4.54439,19.89996 -11.62702,39.78441 -24.79277,55.70803 -17.74116,20.84672 -40.92174,38.81056 -68.45627,43.67689 -15.72969,2.28052 -31.74412,1.82267 -47.58248,1.19112 -25.42232,-2.89535 -50.01491,-12.90218 -70.76072,-27.76004 -9.74712,-7.98335 -19.01683,-17.10188 -25.91184,-27.87551 -9.36587,-16.07611 -17.6924,-33.35625 -22.00838,-51.69905 -2.90901,-15.03334 -2.62521,-30.5334 -1.67211,-45.7549 2.21547,-24.52738 10.08483,-49.12636 25.16046,-68.83223 14.19616,-17.59694 33.37398,-30.80901 53.92665,-39.95188 17.39052,-7.40019 36.10738,-11.4788 54.9825,-11.23161 21.47769,1.06596 42.46623,12.53671 57.68174,27.98805 16.2025,16.33766 27.14899,38.20896 29.84847,60.95925 1.09062,14.94691 1.26207,30.53657 -3.89408,44.93169 -6.92303,22.45758 -21.72632,42.29813 -41.61263,54.92083 -14.72982,8.92533 -32.77483,10.46361 -49.32493,7.26431 -21.73719,-3.43007 -43.53188,-13.12559 -56.95678,-31.16132 -10.5314,-17.67057 -9.96447,-39.42618 -6.73328,-59.07063 4.76743,-22.76029 25.16499,-39.32013 47.04371,-44.97998 13.99897,-3.92363 30.47756,-3.50178 42.26417,5.96255 9.80766,7.20841 13.89985,19.46231 16.94498,30.56658 2.29127,11.46621 1.63084,24.74763 -6.51573,33.88875 -8.95925,10.40857 -24.92755,13.215 -37.41765,8.2309 -8.04476,-3.58851 -13.80447,-12.03678 -12.89203,-21.00874 0.0621,-9.69553 7.87129,-18.81455 17.40412,-20.28518 6.44716,-0.18199 12.1848,8.53843 7.57464,13.78627 -1.99056,2.10652 -5.19986,-0.29022 -7.66576,0.0144 -3.05737,-0.92186 -7.99006,0.4985 -6.82726,4.54578 3.58573,9.06637 17.90857,10.04929 22.74738,1.57372 5.30105,-6.56991 4.53105,-16.71529 -0.43573,-23.23151 -3.57401,-5.07291 -9.74229,-8.07562 -15.96058,-6.97967 -15.15942,0.50818 -28.23447,14.36445 -28.11343,29.47281 -0.24961,13.99542 7.47146,29.67511 21.7888,33.58947 14.18128,3.8609 30.78977,2.46092 42.62807,-6.84506 8.95957,-6.98228 14.88504,-17.91162 14.67812,-29.3983 1.3325,-19.34642 -4.44602,-39.86116 -18.30558,-53.84459 -5.46289,-5.38021 -12.21109,-9.56532 -19.41136,-12.06509 -15.17966,1.14342 -31.02494,-0.47543 -45.58364,4.8246 -20.81463,7.6308 -38.97484,24.66974 -44.52233,46.55361 -3.66448,14.76203 -2.42009,30.19819 -1.45962,45.21787 0.62876,16.93938 10.08909,32.55715 23.40948,42.6633 13.27162,10.0119 29.43539,15.68355 45.63497,18.79371 14.79311,2.22853 30.12385,2.73353 44.8352,-0.30544 24.49218,-6.24908 43.10889,-26.16798 54.54178,-47.91581 17.05307,-31.95793 19.14676,-72.06848 3.00435,-104.81039 -12.87933,-25.9166 -33.70972,-49.7821 -61.85644,-59.12534 -14.95696,-5.12 -31.07905,-4.16932 -46.61837,-3.41264 -20.27505,2.33739 -39.6742,9.8735 -57.68448,19.24154 -23.04416,12.45828 -43.26034,31.55349 -53.41462,56.05652 -9.18724,21.17475 -15.71957,44.002 -15.19735,67.26547 -0.36745,14.25164 1.18014,28.55848 5.57091,42.16415 7.27427,23.3679 17.91212,46.43824 35.03429,64.2666 18.08775,17.97761 40.98396,30.69679 64.96558,38.99393 10.0001,3.50421 20.53605,5.20116 31.13324,4.72923 13.3568,-0.29966 26.81924,0.78352 40.10659,-0.8113 24.83831,-5.75218 50.39874,-14.46556 68.50421,-33.30394 20.90603,-21.3092 32.95929,-49.75615 39.83726,-78.43198 6.45712,-27.84717 4.27091,-56.66994 4.67465,-85.00402 0.1315,-6.36677 0.34246,-12.77254 -2.27661,-18.73677 -10.69842,-36.31045 -23.99186,-73.35002 -49.53078,-102.08247 -14.29337,-15.64489 -30.40501,-30.06 -49.62376,-39.36024 -22.71647,-11.63561 -49.16132,-15.45739 -74.26759,-10.89775 -41.292,6.99008 -77.56915,31.37801 -106.50466,60.76725 -18.02157,17.56915 -33.05684,38.36729 -42.50519,61.7828 -3.04353,7.04377 -5.50599,14.31503 -8.19934,21.49306 -8.26395,-26.45315 -15.9382,-53.98182 -33.04139,-76.35576 -7.19218,-9.58949 -16.20294,-17.59309 -25.44871,-25.11578 -2.9775,-3.6125 -0.14052,-8.64208 0.34977,-12.65404 2.13906,-7.43305 4.85902,-15.05439 9.52538,-21.23952 7.20039,-3.56816 15.62731,-2.24191 23.33159,-3.85266 11.82211,-0.78674 21.52636,-9.12194 27.27858,-19.00226 6.59433,-11.4458 9.95179,-24.42439 13.493,-37.05707 0.91335,-2.8539 1.50404,-7.92024 -2.96639,-7.78498 z"
       id="path5"
       transform="scale(0.26458333)" /><path
       style="fill:#008000;stroke:#000000;stroke-width:1.28564;stroke-linecap:round;stroke-linejoin:round;stroke-miterlimit:20;stroke-dashoffset:135.831"
       d="m 82.5927,285.3152 c -6.403249,1.68577 -1.703434,9.76838 -1.106984,13.99049 4.994179,17.0665 10.952079,37.50187 28.499104,45.57502 11.42152,4.18348 24.25628,1.89855 35.52626,6.30048 6.80291,-1.8258 0.45889,-9.76294 -0.19409,-13.94728 -6.03994,-16.33122 -10.92977,-37.14503 -29.20443,-43.97723 -10.82582,-3.61205 -22.156533,-6.76322 -33.51986,-7.94148 z"
       id="path6"
       transform="scale(0.26458333)" /><path
       style="fill:#008000;stroke:#000000;stroke-width:0.340159;stroke-linecap:round;stroke-linejoin:round;stroke-miterlimit:20;stroke-dashoffset:135.831"
       d="m 72.13922,75.132786 c 1.694193,0.446027 0.4507,2.584551 0.292889,3.70165 -1.321376,4.515512 -2.897737,9.92237 -7.540388,12.058391 -3.021943,1.106879 -6.417807,0.502325 -9.399656,1.667002 -1.799936,-0.483076 -0.121414,-2.583111 0.05135,-3.690218 1.598068,-4.320968 2.891835,-9.827956 7.727006,-11.635642 2.864331,-0.955688 5.862249,-1.789435 8.868796,-2.101183 z"
       id="path6-9" /><path
       style="fill:#f9f9f9;fill-opacity:1;stroke:#000000;stroke-width:0.426883;stroke-linecap:round;stroke-linejoin:round;stroke-miterlimit:20;stroke-dashoffset:135.831"
       d="m 619.30364,664.84382 c -3.77192,0.10873 -6.0401,4.14918 -5.18772,7.60253 0.89457,7.57328 2.50567,15.40232 0.75224,22.96348 -1.16516,2.60954 -4.44144,3.42161 -6.27469,5.51598 -5.83216,4.85832 -9.612,13.04366 -7.27883,20.56602 2.09605,4.28813 8.02699,5.9652 11.91521,3.01336 6.38277,-4.18056 8.87346,-11.77318 11.32475,-18.58756 0.56499,-2.53343 3.47608,-2.90366 5.57377,-2.4229 2.28357,2.14293 6.20674,4.23953 8.8467,1.42212 2.58458,-2.10442 2.47061,-5.85898 0.53164,-8.34741 -2.80764,-4.12747 -8.30972,-5.18245 -12.95423,-4.30975 -0.1209,-7.40701 -0.041,-14.89401 -1.12652,-22.22815 -0.80307,-2.71689 -3.03543,-5.38167 -6.12232,-5.18772 z"
       id="path8"
       transform="scale(0.26458333)" /><path
       style="fill:#f9f9f9;fill-opacity:1;stroke:#000000;stroke-width:0.426883;stroke-linecap:round;stroke-linejoin:round;stroke-miterlimit:20;stroke-dashoffset:135.831"
       d="m 636.21907,657.2935 c -4.90439,-0.27345 -8.42961,4.18608 -9.16731,8.66434 -1.48477,6.82883 0.83482,14.47816 6.48484,18.78609 4.34319,4.0782 10.15941,6.83061 13.26968,12.06816 1.68348,4.67543 -1.31687,9.15702 -4.31047,12.50642 -2.47054,2.73207 -4.7382,6.80554 -2.77218,10.42912 2.58678,3.13839 7.89835,1.61007 10.07802,-1.3248 5.47236,-6.25289 10.51191,-14.5849 8.41394,-23.22845 -1.89156,-8.15816 -9.32273,-12.94471 -15.54102,-17.70074 -2.79761,-1.8994 -5.52522,-5.15836 -4.43189,-8.72318 4.05184,0.32722 7.2761,-4.41312 5.1164,-7.97461 -1.33727,-2.59533 -4.40093,-3.55024 -7.14001,-3.50235 z"
       id="path9"
       transform="scale(0.26458333)" /></g></svg>
