<?xml version="1.0" encoding="UTF-8" standalone="no"?>
<!-- Created with Inkscape (http://www.inkscape.org/) -->

<svg
   width="210mm"
   height="297mm"
   viewBox="0 0 210 297"
   version="1.1"
   id="svg1"
   xml:space="preserve"
   inkscape:export-filename="bitmap.svg"
   inkscape:export-xdpi="8.5521889"
   inkscape:export-ydpi="8.5521889"
   sodipodi:docname="dark-snail.svg"
   inkscape:version="1.4.2 (ebf0e940, 2025-05-08)"
   xmlns:inkscape="http://www.inkscape.org/namespaces/inkscape"
   xmlns:sodipodi="http://sodipodi.sourceforge.net/DTD/sodipodi-0.dtd"
   xmlns="http://www.w3.org/2000/svg"
   xmlns:svg="http://www.w3.org/2000/svg"><sodipodi:namedview
     id="namedview1"
     pagecolor="#ffffff"
     bordercolor="#999999"
     borderopacity="1"
     inkscape:showpageshadow="2"
     inkscape:pageopacity="0"
     inkscape:pagecheckerboard="0"
     inkscape:deskcolor="#d1d1d1"
     inkscape:document-units="mm"
     inkscape:zoom="3.6047157"
     inkscape:cx="158.40362"
     inkscape:cy="479.9269"
     inkscape:window-width="1600"
     inkscape:window-height="847"
     inkscape:window-x="-119"
     inkscape:window-y="25"
     inkscape:window-maximized="0"
     inkscape:current-layer="g23"
     showgrid="false"><inkscape:page
       x="0"
       y="0"
       width="210"
       height="297"
       id="page2"
       margin="0"
       bleed="0" /></sodipodi:namedview><defs
     id="defs1"><inkscape:path-effect
       effect="bspline"
       id="path-effect23"
       is_visible="true"
       lpeversion="1.3"
       weight="33.333333"
       steps="2"
       helper_size="0"
       apply_no_weight="true"
       apply_with_weight="true"
       only_selected="false"
       uniform="false" /><inkscape:path-effect
       effect="bspline"
       id="path-effect22"
       is_visible="true"
       lpeversion="1.3"
       weight="33.333333"
       steps="2"
       helper_size="0"
       apply_no_weight="true"
       apply_with_weight="true"
       only_selected="false"
       uniform="false" /><inkscape:path-effect
       effect="bspline"
       id="path-effect17"
       is_visible="true"
       lpeversion="1.3"
       weight="33.333333"
       steps="2"
       helper_size="0"
       apply_no_weight="true"
       apply_with_weight="true"
       only_selected="false"
       uniform="false" /><inkscape:path-effect
       effect="powerstroke"
       message=""
       id="path-effect19"
       is_visible="true"
       lpeversion="1.3"
       scale_width="1"
       interpolator_type="CubicBezierJohan"
       interpolator_beta="0.2"
       start_linecap_type="zerowidth"
       end_linecap_type="zerowidth"
       offset_points="0,0.56483903"
       linejoin_type="extrp_arc"
       miter_limit="4"
       not_jump="false"
       sort_points="true" /><inkscape:path-effect
       effect="bspline"
       id="path-effect18"
       is_visible="true"
       lpeversion="1.3"
       weight="33.333333"
       steps="2"
       helper_size="0"
       apply_no_weight="true"
       apply_with_weight="true"
       only_selected="false"
       uniform="false" /><inkscape:path-effect
       effect="powerstroke"
       message=""
       id="path-effect3"
       is_visible="true"
       lpeversion="1.3"
       scale_width="1"
       interpolator_type="CubicBezierJohan"
       interpolator_beta="0.2"
       start_linecap_type="zerowidth"
       end_linecap_type="zerowidth"
       offset_points="0,0.56483903"
       linejoin_type="extrp_arc"
       miter_limit="4"
       not_jump="false"
       sort_points="true" /><inkscape:path-effect
       effect="bspline"
       id="path-effect2"
       is_visible="true"
       lpeversion="1.3"
       weight="33.333333"
       steps="2"
       helper_size="0"
       apply_no_weight="true"
       apply_with_weight="true"
       only_selected="false"
       uniform="false" /><inkscape:path-effect
       effect="powerstroke"
       message=""
       id="path-effect16"
       is_visible="true"
       lpeversion="1.3"
       scale_width="1"
       interpolator_type="CubicBezierJohan"
       interpolator_beta="0.2"
       start_linecap_type="zerowidth"
       end_linecap_type="zerowidth"
       offset_points="0,0.56483903"
       linejoin_type="extrp_arc"
       miter_limit="4"
       not_jump="false"
       sort_points="true" /><inkscape:path-effect
       effect="bspline"
       id="path-effect15"
       is_visible="true"
       lpeversion="1.3"
       weight="33.333333"
       steps="2"
       helper_size="0"
       apply_no_weight="true"
       apply_with_weight="true"
       only_selected="false"
       uniform="false" /><inkscape:path-effect
       effect="powerstroke"
       message=""
       id="path-effect13"
       is_visible="true"
       lpeversion="1.3"
       scale_width="1"
       interpolator_type="CubicBezierJohan"
       interpolator_beta="0.2"
       start_linecap_type="zerowidth"
       end_linecap_type="zerowidth"
       offset_points="7.6539386e-16,0.56483903"
       linejoin_type="extrp_arc"
       miter_limit="4"
       not_jump="false"
       sort_points="true" /><inkscape:path-effect
       effect="bspline"
       id="path-effect12"
       is_visible="true"
       lpeversion="1.3"
       weight="33.333333"
       steps="2"
       helper_size="0"
       apply_no_weight="true"
       apply_with_weight="true"
       only_selected="false"
       uniform="false" /><inkscape:path-effect
       effect="fill_between_many"
       method="bsplinespiro"
       autoreverse="false"
       close="false"
       join="false"
       linkedpaths="#path12,0,1"
       id="path-effect14"
       is_visible="true"
       lpeversion="0" /><inkscape:path-effect
       effect="fill_between_many"
       method="bsplinespiro"
       autoreverse="false"
       close="false"
       join="false"
       linkedpaths="#path2,0,1"
       id="path-effect4" /><inkscape:path-effect
       effect="fill_between_many"
       method="bsplinespiro"
       autoreverse="false"
       close="false"
       join="false"
       linkedpaths="#path18,0,1"
       id="path-effect20" /><inkscape:path-effect
       effect="bspline"
       id="path-effect23-6"
       is_visible="true"
       lpeversion="1.3"
       weight="33.333333"
       steps="2"
       helper_size="0"
       apply_no_weight="true"
       apply_with_weight="true"
       only_selected="false"
       uniform="false" /><inkscape:path-effect
       effect="bspline"
       id="path-effect23-7"
       is_visible="true"
       lpeversion="1.3"
       weight="33.333333"
       steps="2"
       helper_size="0"
       apply_no_weight="true"
       apply_with_weight="true"
       only_selected="false"
       uniform="false" /></defs><g
     inkscape:label="Layer 1"
     inkscape:groupmode="layer"
     id="layer1"><g
       inkscape:groupmode="layer"
       id="layer2"
       inkscape:label="test"
       style="display:inline"><g
         id="g23"
         transform="translate(0.23086733,8.9268694)"
         style="fill:#2e2e2e;fill-opacity:1"><path
           d="m 50.654344,146.89198 c -1.990193,0.35981 -3.789239,0.60717 -5.554568,0.52846 -1.765329,-0.0787 -3.496874,-0.48349 -4.598794,-1.09067 -1.101921,-0.60719 -1.57416,-1.41674 -1.630375,-3.09213 -0.05622,-1.67539 0.303585,-4.21648 1.16939,-6.74641 0.865805,-2.52994 2.237548,-5.04855 3.451914,-6.71968 1.214366,-1.67113 2.271248,-2.49466 2.912182,-2.9332 0.640935,-0.43853 0.865808,-0.49198 1.720364,-0.22635 0.854555,0.26562 2.338738,0.8503 3.710522,1.72734 1.371784,0.87705 2.631089,2.0464 3.969144,3.4969 1.338056,1.4505 2.754772,3.18204 3.541856,4.9811 0.787084,1.79907 0.944497,3.66554 0.449748,5.13852 -0.49475,1.47298 -1.641615,2.55238 -3.305755,3.32823 -1.664139,0.77584 -3.845435,1.24808 -5.835628,1.60789 z"
           id="path14"
           style="display:none;fill:#2e2e2e;fill-opacity:1" /><path
           id="path12"
           style="display:inline;fill:#ffffff;fill-opacity:1;fill-rule:nonzero;stroke:#ffffff;stroke-width:1.48771;stroke-linecap:round;stroke-linejoin:round;stroke-miterlimit:20;stroke-dasharray:none;stroke-dashoffset:135.831;stroke-opacity:1"
           d="m 47.391549,125.88661 c -0.09554,-0.003 -0.190989,0.002 -0.287838,0.0155 -0.194922,0.028 -0.368164,0.0905 -0.533817,0.17363 -0.160085,0.0804 -0.32023,0.18408 -0.484725,0.29663 -0.340802,0.23317 -0.789334,0.56658 -1.310515,1.05988 -0.525089,0.497 -1.114865,1.14763 -1.739428,2.00711 -0.630795,0.86806 -1.291349,1.94139 -1.90066,3.10834 -0.620833,1.18902 -1.189665,2.4772 -1.628841,3.76049 -0.449042,1.31213 -0.760354,2.61214 -0.95343,3.78479 -0.198898,1.208 -0.275079,2.29639 -0.24598,3.16363 0.01501,0.4472 0.05827,0.84596 0.135909,1.20509 0.07954,0.36793 0.195057,0.69573 0.353984,0.99064 0.163276,0.30298 0.36657,0.56106 0.606681,0.786 0.244895,0.22941 0.523316,0.41962 0.825273,0.58601 0.628676,0.34641 1.400042,0.61092 2.193664,0.7984 0.865661,0.2045 1.777442,0.32271 2.652552,0.36173 2.020077,0.0901 4.093316,-0.25001 5.680273,-0.53691 0.870246,-0.15734 1.987687,-0.37301 3.081466,-0.65681 0.943558,-0.24483 1.971554,-0.5655 2.89233,-0.99477 0.834429,-0.38903 1.611896,-0.88093 2.250508,-1.51309 0.592936,-0.58694 1.065944,-1.29439 1.352372,-2.14716 0.268446,-0.79922 0.366975,-1.70913 0.283187,-2.6758 -0.07981,-0.92079 -0.325729,-1.89734 -0.750858,-2.86908 -0.409668,-0.93639 -0.9797,-1.85321 -1.627808,-2.73058 -0.629751,-0.85252 -1.328305,-1.66115 -2.016414,-2.40709 -1.325355,-1.43673 -2.629575,-2.6624 -4.080371,-3.58996 -0.711397,-0.45483 -1.44981,-0.83296 -2.123385,-1.13275 -0.667382,-0.29703 -1.272751,-0.51776 -1.723409,-0.65784 -0.221686,-0.0689 -0.42474,-0.12427 -0.613399,-0.15606 -0.09638,-0.0162 -0.191784,-0.0269 -0.287321,-0.03 z m -0.03617,1.12913 c -0.02838,0.0302 0.08106,0.006 0.135909,0.015 0.114078,0.0192 0.260364,0.0566 0.465605,0.12041 0.407442,0.12665 0.971552,0.3319 1.599386,0.61133 0.633501,0.28196 1.320413,0.63443 1.974556,1.05265 1.332809,0.85213 2.56081,1.99755 3.858163,3.40393 0.672155,0.72864 1.341545,1.50455 1.938382,2.31252 0.615372,0.83305 1.13535,1.67575 1.501201,2.51199 0.378409,0.86494 0.591779,1.72208 0.660425,2.51406 0.07214,0.83235 -0.01595,1.58439 -0.228927,2.21847 -0.224635,0.66879 -0.595182,1.2279 -1.075903,1.70377 -0.254405,0.25183 -0.541414,0.48199 -0.855245,0.69195 -0.179697,-0.77633 -0.425766,-1.80005 -0.692981,-2.41846 -0.393541,-0.91077 -1.023031,-2.14738 -1.753898,-3.19309 -0.730867,-1.0457 -1.562638,-1.90054 -2.675806,-2.49649 -1.113169,-0.59594 -2.507455,-0.93296 -3.823022,-0.71933 -1.315567,0.21364 -2.552309,0.97806 -3.485576,2.36109 -0.933267,1.38302 -1.563012,3.38457 -1.731677,4.94751 -0.125808,1.1658 0.0046,2.79282 0.200505,4.01112 -0.231283,-0.0407 -0.460429,-0.0875 -0.68523,-0.14056 -0.731532,-0.17281 -1.397475,-0.40708 -1.907894,-0.68833 -0.240919,-0.13275 -0.437249,-0.27067 -0.597896,-0.42116 -0.155014,-0.14522 -0.281735,-0.307 -0.384473,-0.49765 -0.10098,-0.18738 -0.184172,-0.41239 -0.244946,-0.69349 -0.0598,-0.27661 -0.09772,-0.60521 -0.111104,-1.00408 -0.02609,-0.7775 0.04236,-1.79049 0.232027,-2.94245 0.183551,-1.1148 0.480008,-2.35339 0.907438,-3.60237 0.418277,-1.22223 0.963189,-2.4572 1.561662,-3.6034 0.587503,-1.12518 1.219196,-2.15037 1.812809,-2.96726 0.584448,-0.80427 1.128796,-1.40218 1.602486,-1.85053 0.468941,-0.44385 0.868324,-0.74082 1.171505,-0.94826 0.155693,-0.10653 0.26427,-0.17433 0.353467,-0.21911 0.08341,-0.0419 0.139812,-0.0582 0.188102,-0.0651 0.02476,-0.004 0.09095,-0.005 0.09095,-0.005 z"
           sodipodi:nodetypes="ssssssssssssssssssssssssssssssssssssssssscsssssscssssssssssssssss"
           transform="matrix(0.73311317,0,0,0.45143325,11.689707,62.896432)" /><path
           style="fill:none;fill-opacity:1;stroke:#ffffff;stroke-width:1.941;stroke-linecap:round;stroke-linejoin:round;stroke-miterlimit:20;stroke-dasharray:none;stroke-dashoffset:135.831;stroke-opacity:1"
           d="m 37.418618,106.99079 c 0.712608,1.06891 1.425219,2.13783 2.375376,2.65249 0.950156,0.51466 2.137814,0.47507 3.087964,0.0396 0.95015,-0.43549 1.662745,-1.26685 2.038844,-1.82111 0.3761,-0.55425 0.415689,-0.83137 0.455279,-1.1085"
           id="path22"
           inkscape:path-effect="#path-effect23"
           inkscape:original-d="m 37.418618,106.99079 c 0.71261,1.06891 1.425218,2.13783 2.137826,3.20674 1.187706,-0.0396 2.375363,-0.0792 3.563043,-0.11877 0.712623,-0.83139 1.425218,-1.66275 2.137825,-2.49413 0.03959,-0.27713 0.07918,-0.55425 0.118769,-0.83138"
           transform="matrix(0.81725376,0,0,0.99575907,7.5307649,2.82881)" /><path
           style="display:inline;fill:none;fill-opacity:1;stroke:#ffffff;stroke-width:1.941;stroke-linecap:round;stroke-linejoin:round;stroke-miterlimit:20;stroke-dasharray:none;stroke-dashoffset:135.831;stroke-opacity:1"
           d="m 37.418618,106.99079 c 0.712608,1.06891 1.425219,2.13783 2.375376,2.65249 0.950156,0.51466 2.137814,0.47507 3.087964,0.0396 0.95015,-0.43549 1.662745,-1.26685 2.038844,-1.82111 0.3761,-0.55425 0.415689,-0.83137 0.455279,-1.1085"
           id="path22-6"
           inkscape:path-effect="#path-effect23-7"
           inkscape:original-d="m 37.418618,106.99079 c 0.71261,1.06891 1.425218,2.13783 2.137826,3.20674 1.187706,-0.0396 2.375363,-0.0792 3.563043,-0.11877 0.712623,-0.83139 1.425218,-1.66275 2.137825,-2.49413 0.03959,-0.27713 0.07918,-0.55425 0.118769,-0.83138"
           transform="matrix(0.78893742,0,0,1.0223304,18.883524,-0.78218681)" /></g></g><path
       id="path1"
       style="fill:#050905;stroke:none;stroke-opacity:1"
       d="m 191.05087,52.209733 c -2.86126,1.268098 -5.5768,2.769072 -8.55142,3.780648 -5.65591,1.923397 -11.64773,2.803529 -17.18706,5.077209 -9.75833,4.00542 -18.54933,12.768461 -19.28719,23.738603 -0.51818,7.704108 2.91308,14.850462 7.58765,20.743437 0.75538,0.95227 1.47986,1.98708 2.47065,2.70733 0.63246,0.45975 1.8428,0.86006 2.23293,1.54926 0.32843,0.58016 0.11363,1.53302 0.14935,2.17816 0.0735,1.32759 0.32388,2.68055 0.601,3.97908 0.87208,4.08641 2.36515,7.96974 4.08243,11.7688 3.63387,8.03908 8.51567,15.50355 11.95948,23.62181 2.14273,5.05116 3.59147,10.45934 4.19199,15.91737 0.80334,7.30141 -0.15962,15.22843 -4.72116,21.25142 -4.26294,5.62871 -12.02458,8.08279 -18.74976,6.16862 -0.4761,-0.1355 -1.07978,-0.21802 -1.48311,-0.52039 -0.33095,-0.24811 -0.74444,-0.44791 -1.05761,-0.71183 -0.42817,-0.36084 -0.7168,-0.6577 -1.12262,-1.06378 -0.33488,-0.33509 -0.8709,-1.22475 -1.39578,-1.13739 -0.46791,0.0779 -0.57674,0.79065 -0.68523,1.15962 -0.3019,1.02676 -0.47673,2.48536 -1.30173,3.2334 -2.5918,2.35008 -6.3292,3.7959 -9.63352,4.77128 -5.08158,1.50001 -10.5987,1.65705 -15.83262,1.08211 -1.86048,-0.20437 -3.86727,-0.40576 -5.67097,-0.91519 -1.00214,-0.28305 -1.68613,-1.75402 -2.19935,-2.58382 -0.22567,-0.36488 -0.49867,-1.08004 -1.01751,-1.08004 -0.58316,0 -0.98556,0.92188 -1.2485,1.33428 -0.78045,1.22405 -1.41744,2.39001 -2.73317,3.10111 -4.36643,2.35988 -9.2968,3.67033 -14.223939,4.1491 -6.046194,0.58754 -12.155305,-0.0327 -17.864543,-2.16525 -1.389533,-0.51902 -3.450209,-1.03989 -4.487065,-2.14147 -0.520992,-0.55353 -1.08352,-1.07772 -1.559077,-1.67173 -0.196464,-0.24539 -0.434542,-0.65673 -0.802535,-0.62787 -0.410083,0.0322 -0.692542,0.6801 -0.914673,0.9648 -0.723754,0.9276 -1.350657,1.91963 -2.312521,2.62258 -6.143433,4.48972 -14.684566,6.33311 -22.182108,6.02082 -2.663334,-0.11092 -5.328897,-0.40684 -7.873938,-1.25005 -1.464528,-0.48522 -2.892521,-1.13953 -4.148584,-2.04226 -0.689686,-0.49566 -1.245865,-1.31192 -2.031918,-1.65002 -0.904069,-0.38887 -1.931555,0.29709 -1.859834,1.29397 0.06186,0.85983 0.909582,1.54457 1.520837,2.05724 1.724817,1.44665 3.797071,2.37313 5.92677,3.0484 8.068968,2.55846 17.722561,1.51188 25.484749,-1.62626 3.262917,-1.31916 6.350461,-3.1676 9.990605,-3.20601 1.127306,-0.0119 2.547767,0.0796 3.640605,0.36587 0.533006,0.13961 1.006549,0.44173 1.523938,0.62735 1.301264,0.46691 2.634971,0.85593 3.979602,1.17616 4.071592,0.96963 8.277201,1.22759 12.445752,0.92759 4.314218,-0.31047 8.554227,-1.28703 12.615247,-2.75539 2.02131,-0.73087 3.9758,-2.18071 6.09627,-2.54506 2.92116,-0.50194 5.85487,0.5844 8.7204,1.01803 3.89099,0.58884 7.86059,0.65744 11.76879,0.216 3.72047,-0.42022 7.46526,-1.35124 10.83758,-3.00912 1.09683,-0.53921 2.18078,-1.10427 3.21738,-1.75338 1.1602,-0.72651 2.38008,-1.59557 3.72483,-1.93011 2.81956,-0.70145 5.56549,0.57525 8.38244,0.69246 4.78424,0.19904 10.26668,-1.82255 13.88494,-4.90461 7.4633,-6.35728 9.10434,-17.28092 7.97419,-26.49916 -0.64273,-5.24253 -1.92187,-10.51111 -3.91397,-15.40939 -2.31294,-5.68709 -5.47469,-10.99662 -8.31939,-16.42535 -4.02887,-7.68857 -8.59146,-16.22146 -8.60981,-25.14576 3.72089,-0.0874 7.49583,-1.08773 11.00656,-2.25774 11.95151,-3.98312 22.74241,-12.851288 24.56439,-25.936402 0.93396,-6.707414 -1.54244,-12.937856 -3.23546,-19.304248 -0.87864,-3.304005 -1.15102,-6.880861 -2.36368,-10.074837 z M 20.950659,75.023844 c -0.183227,0.0044 -0.349094,0.06434 -0.38654,0.261483 -0.0662,0.348527 0.187895,0.81347 0.293006,1.138949 0.291409,0.902332 0.654102,1.78201 0.865063,2.709395 1.10477,4.856531 2.693862,10.459207 7.954037,12.351184 1.436313,0.51662 3.052799,0.70437 4.571814,0.564307 0.987659,-0.09108 2.46008,-0.488343 3.296439,0.178283 0.807884,0.64393 1.323971,1.72403 1.722376,2.654102 0.59703,1.393776 1.0546,2.842866 1.403015,4.318083 0.229135,0.97017 0.314093,1.94744 0.690397,2.87838 -1.898607,1.03734 -3.389624,2.86868 -4.55011,4.65656 -2.846953,4.38609 -4.028201,9.85439 -4.603336,14.98617 -0.947935,8.45817 -0.53612,16.94341 0.241845,25.4 0.875593,9.5178 2.240775,18.97452 3.487126,28.44787 0.82822,6.29519 1.605215,12.65281 2.850472,18.88102 0.289238,1.44664 0.555835,2.91404 1.020093,4.31757 0.192425,0.58174 0.59226,1.21957 1.299662,1.13274 0.69883,-0.0858 0.971142,-0.76257 0.89917,-1.38648 -0.188645,-1.63532 -0.758644,-3.27739 -1.033012,-4.91081 -1.143085,-6.80524 -2.131601,-13.64539 -3.014803,-20.48919 -1.996971,-15.47426 -4.691151,-31.17343 -3.804936,-46.82039 0.385643,-6.80891 1.396711,-14.8237 6.06578,-20.15071 0.675003,-0.77013 1.463659,-1.48643 2.327506,-2.04019 0.686751,-0.44024 1.414216,-0.82513 2.201416,-1.04955 4.204364,-1.19865 8.100421,1.51622 10.920781,4.35943 5.791522,5.83846 8.316676,13.89387 9.889836,21.75939 0.310896,1.55443 0.656352,3.10177 0.965315,4.65657 0.187813,0.94514 0.458427,1.91758 0.289905,2.87889 -2.06453,11.77692 -1.294113,23.83072 3.788399,34.79788 1.095649,2.36422 2.40033,4.65057 3.912423,6.77323 1.018,1.42906 2.318598,2.72976 3.083533,4.31808 -1.404219,0.73578 -3.111567,2.0128 -4.208012,3.16053 -0.543605,0.56903 -0.393609,1.59673 0.567924,1.44074 0.484838,-0.0787 0.892251,-0.47256 1.26969,-0.75809 0.706939,-0.53479 1.407918,-1.07739 2.116666,-1.60972 0.354769,-0.26646 0.937689,-0.8885 1.42782,-0.6687 0.606448,0.27197 1.130825,1.12356 1.615922,1.57923 0.184139,0.17297 0.453306,0.39163 0.397909,0.67748 -0.140399,0.72445 -2.04986,1.55203 -1.018543,2.43603 0.993356,0.85148 1.940801,-1.21821 2.826184,-1.33945 0.859555,-0.11771 2.005284,0.87855 2.794145,1.17822 -0.33106,0.38848 -0.792061,0.82651 -0.874882,1.3534 -0.09594,0.61033 0.470173,1.04877 1.04128,0.82218 0.665236,-0.26395 0.911196,-1.17179 1.614372,-1.34256 0.835546,-0.20291 2.006513,0.31904 2.875793,0.35192 -0.259679,0.62558 -0.163204,1.80521 0.841293,1.41232 0.487526,-0.19069 0.658584,-0.76741 1.128096,-0.971 0.448685,-0.19455 0.956469,0.0684 1.404049,-0.1726 0.930052,-0.50071 0.234395,-1.37593 -0.49506,-1.53841 -0.0114,-0.16993 -0.01491,-0.34177 -0.07648,-0.50333 -0.470897,-1.23576 -1.471239,0.148 -2.129069,0.20206 -0.770108,0.0633 -1.700569,-0.21161 -2.451014,-0.37621 0.349684,-0.44802 0.912125,-0.9453 1.024227,-1.5229 0.107094,-0.5518 -0.382596,-1.04374 -0.936893,-0.90176 -0.853819,0.21869 -1.067837,1.38276 -1.872754,1.6459 -0.448149,0.14652 -1.065154,-0.23553 -1.431437,-0.46199 -0.219077,-0.13544 -0.4605,-0.29277 -0.618567,-0.50023 -0.215972,-0.28346 -0.08526,-0.53338 0.131258,-0.76894 0.481868,-0.52425 1.298592,-1.00386 1.506368,-1.7229 0.291367,-1.00832 -0.855141,-1.09205 -1.442806,-0.6413 -0.236399,0.18132 -0.456386,0.38656 -0.676962,0.58653 -0.365812,0.33164 -0.714194,0.6775 -1.100708,0.98547 l -1.947684,-2.45515 v -0.0847 c 1.119032,-0.7478 2.276672,-1.57222 3.279903,-2.47065 0.398637,-0.357 0.728911,-0.98335 0.223759,-1.41645 -0.376995,-0.32321 -0.848641,-0.14764 -1.217497,0.0863 -0.829298,0.52595 -1.590373,1.18168 -2.370915,1.77612 -0.420708,0.32039 -0.89794,0.77136 -1.408699,0.36845 -1.42997,-1.12802 -2.556103,-2.77067 -3.557923,-4.27054 -2.134909,-3.19627 -3.863583,-6.68062 -5.08031,-10.32908 -2.426761,-7.27683 -3.355175,-15.0463 -2.622579,-22.69061 0.241619,-2.52117 0.780035,-4.90109 1.28416,-7.36596 0.965434,-4.7204 2.218138,-9.43312 4.299479,-13.80071 3.081476,-6.46631 7.724056,-11.91848 13.182141,-16.5163 4.948866,-4.16886 10.317185,-8.085502 16.425355,-10.36836 3.65162,-1.364754 7.52041,-2.287179 11.42979,-2.405538 14.39757,-0.43586 26.02324,10.039138 32.56752,22.008478 2.91462,5.33079 5.13991,11.19999 6.21513,17.18758 0.98469,5.48348 1.0185,11.14096 0.60358,16.67908 -0.46641,6.22539 -1.58492,12.35083 -3.80029,18.20354 -1.19419,3.15491 -3.09676,5.8855 -5.34799,8.38192 -4.1439,4.59523 -9.73874,8.35804 -15.75976,9.97459 -2.19878,0.59034 -4.59145,0.77307 -6.85798,0.87023 -5.94055,0.25466 -11.82628,-0.68737 -17.35657,-2.90318 -3.84532,-1.54068 -7.540154,-3.69978 -10.668077,-6.42338 -1.054768,-0.91843 -2.580431,-2.06615 -3.132625,-3.38068 -2.076483,-2.06232 -3.047891,-4.59817 -4.396114,-7.11222 -4.722497,-8.80611 -5.177622,-19.06964 -2.442228,-28.53263 0.912533,-3.15688 1.920414,-6.30868 3.765661,-9.05939 4.623025,-6.89153 11.383086,-11.4067 19.159033,-13.99812 4.81255,-1.60384 10.13925,-2.49265 15.15567,-1.33325 11.88632,2.74716 20.25592,15.24449 20.14295,27.18491 -0.0514,5.43297 -1.78657,10.66501 -4.68757,15.23989 -2.3815,3.75564 -5.55397,6.92121 -9.69811,8.65839 -6.02634,2.52618 -13.17363,1.27961 -18.96525,-1.30225 -2.82882,-1.26106 -5.52768,-3.03895 -7.36338,-5.57795 -2.517476,-3.48199 -2.903095,-8.12229 -2.719726,-12.27677 0.104976,-2.37829 0.470101,-4.83383 1.441256,-7.02748 2.63394,-5.94959 9.86007,-9.90371 16.26154,-9.90586 3.467,-0.001 7.20713,1.30403 9.08885,4.40232 2.30274,3.79152 3.96133,9.19182 2.04432,13.46223 -2.06565,4.60155 -9.67396,6.87313 -13.49065,3.11454 -2.15058,-2.11784 -2.56083,-5.90288 -0.60565,-8.2765 1.15645,-1.40397 4.21904,-3.26933 5.8074,-1.51671 0.84613,0.93364 1.27664,3.76919 -0.55811,3.95377 -0.87517,0.088 -1.46754,-0.86975 -2.36729,-0.69815 -0.71089,0.13559 -1.0046,0.9403 -0.68782,1.55546 0.94189,1.829 3.87594,1.90208 5.25085,0.65577 2.33358,-2.1153 1.57962,-6.78323 -1.26453,-8.10234 -2.37731,-1.10259 -5.52671,0.0926 -7.36544,1.72289 -3.97735,3.52645 -3.02519,10.6843 1.26969,13.52837 4.3058,2.8513 11.05072,1.63226 14.4446,-2.12855 4.0468,-4.48429 3.03791,-11.12773 0.69556,-16.17007 -0.93363,-2.00979 -2.12794,-3.94393 -3.87986,-5.34955 -1.86824,-1.49894 -4.64013,-2.36213 -7.02697,-2.43499 -7.71008,-0.23538 -16.48895,3.41692 -19.865449,10.74818 -1.785535,3.87687 -1.912162,8.42322 -1.650545,12.61422 0.270764,4.3375 1.196251,8.74568 4.498434,11.83752 2.54511,2.383 5.6429,3.92758 8.88938,5.11235 5.94407,2.16922 12.94381,2.99229 18.96525,0.67386 4.39121,-1.69075 7.77053,-4.96074 10.35699,-8.81755 4.37621,-6.52558 6.46815,-14.53596 5.24051,-22.35161 -1.58314,-10.07897 -8.71701,-20.23412 -18.47588,-23.80216 -7.97691,-2.91651 -16.39897,-1.06817 -23.96081,2.18798 -3.495344,1.50511 -6.87007,3.29472 -9.821622,5.72006 -2.928146,2.40611 -5.505819,5.41791 -7.12618,8.86664 -1.992023,4.23977 -3.775408,8.65855 -4.586283,13.29273 -1.69169,9.66804 0.460282,19.14872 5.265312,27.60142 0.714328,1.25661 1.360201,2.54038 2.195215,3.72535 2.1906,3.10871 5.288007,5.62319 8.401037,7.76232 7.005521,4.81387 15.139761,7.64779 23.706561,7.38818 3.02034,-0.0915 5.95727,-0.64995 8.8899,-1.3379 5.22163,-1.22494 9.91463,-2.94641 14.05444,-6.48746 5.68436,-4.86221 8.98452,-11.46907 11.13627,-18.5012 0.73079,-2.38829 1.43312,-4.79689 1.77198,-7.28173 0.12658,-0.92812 0.0798,-1.8641 0.16123,-2.79362 0.21679,-2.4734 0.54217,-4.97023 0.63924,-7.45071 0.0557,-1.42469 -0.077,-2.88669 -0.077,-4.31808 0,-1.56007 0.1339,-3.19038 -0.0413,-4.74132 -0.25455,-2.25119 -0.98094,-4.42687 -1.54202,-6.60425 -1.78197,-6.91541 -4.44798,-13.51403 -8.28477,-19.55797 -6.68613,-10.532384 -18.54119,-19.490142 -31.53399,-19.129586 -11.17361,0.31008 -20.970275,5.66113 -29.294852,12.803866 -4.360313,3.74129 -8.370678,7.97836 -11.453048,12.84521 -1.360377,2.14794 -2.343889,4.3179 -3.414779,6.60425 -0.441131,0.94181 -1.00507,1.81655 -1.373559,2.79363 -0.592631,1.57142 -0.473413,3.51318 -1.453658,4.91081 -0.277575,-3.02801 -1.295591,-5.95845 -2.283582,-8.80515 -0.629466,-1.81368 -1.160104,-3.70771 -1.934765,-5.4653 -1.095695,-2.48598 -2.577021,-4.87777 -4.17959,-7.06571 -1.516259,-2.07009 -3.267372,-3.97672 -5.318022,-5.52731 -0.576973,-0.43627 -2.25579,-1.10968 -2.236556,-1.9296 0.0542,-2.310716 1.033968,-5.056603 2.046904,-7.105512 0.346961,-0.701807 0.797088,-1.762332 1.555977,-2.103231 1.202738,-0.540267 3.098214,-0.158564 4.390946,-0.185518 2.154613,-0.04494 4.235767,-0.675225 5.92677,-2.035018 2.290186,-1.841624 3.783857,-4.492047 4.617806,-7.275525 0.376127,-1.255407 0.538035,-2.547174 0.868681,-3.810104 0.348713,-1.331929 0.914228,-2.587128 1.286743,-3.894852 -1.593164,-0.260056 -3.446874,0.944086 -4.99556,1.296561 -1.759288,0.400409 -3.553772,0.504611 -5.249292,1.172022 -3.173801,1.24933 -5.228684,4.161916 -6.372738,7.26829 -0.427116,1.159722 -0.729154,2.337841 -0.93741,3.555855 -0.115905,0.677891 -0.08822,1.475651 -0.361735,2.112016 -0.212778,0.495039 -0.663236,0.858759 -0.991154,1.275374 -0.43172,0.548494 -0.784547,1.152737 -1.093474,1.777153 -1.204066,2.433671 -1.698474,5.062085 -2.181262,7.704959 -2.967803,-0.98121 -5.440993,-0.96201 -8.381917,0.0847 -0.656414,-2.496483 -0.973421,-4.973653 -2.034501,-7.365962 -0.34488,-0.777565 -0.783805,-1.521292 -1.294495,-2.201416 -0.378558,-0.504155 -0.875391,-0.997315 -1.074353,-1.608688 -0.356066,-1.094114 -0.353539,-2.346109 -0.63717,-3.471622 -0.744913,-2.956015 -2.270557,-6.08395 -4.781104,-7.914763 -2.774502,-2.023319 -6.10803,-1.826617 -9.228377,-2.89543 -0.731016,-0.250404 -1.447633,-0.602114 -2.201416,-0.777731 -0.09351,-0.02178 -0.221797,-0.04907 -0.349333,-0.05581 -0.02657,-0.0014 -0.05292,-0.0017 -0.07906,-0.001 z M 168.38714,174.6219 c -0.0383,2.6e-4 -0.0757,0.002 -0.11162,0.006 -2.12319,0.20182 -1.95516,3.4164 -1.22887,4.75113 1.23313,2.26618 5.70527,3.26344 4.95009,6.43475 -0.0853,0.35811 -0.23693,0.69696 -0.41858,1.01596 -0.37451,0.6577 -0.88754,1.19789 -1.36529,1.77819 -0.34259,0.41613 -0.80844,1.55746 0.18241,1.5446 0.62837,-0.008 1.13642,-0.76674 1.48105,-1.20612 1.03229,-1.31607 1.92542,-2.92282 1.57975,-4.65657 -0.34109,-1.7107 -1.71308,-2.83989 -3.0639,-3.79666 -0.9617,-0.68115 -2.16182,-1.45286 -2.33784,-2.72284 -0.0592,-0.42722 -0.087,-1.19112 0.32556,-1.46709 0.41671,-0.27869 1.14621,0.0579 1.26711,-0.66042 0.11362,-0.67517 -0.686,-1.02455 -1.25987,-1.02061 z m -4.45709,2.01486 c -0.10783,0.003 -0.22465,0.0385 -0.35089,0.11369 -0.66055,0.39349 -0.24369,1.52992 -0.16898,2.12029 0.21095,1.66681 0.5313,3.9592 -0.0605,5.57692 -0.21359,0.58401 -0.95953,0.86868 -1.4242,1.22473 -0.75998,0.58233 -1.40017,1.3136 -1.82987,2.17299 -0.49055,0.9811 -0.9058,2.95085 0.47853,3.4339 0.64621,0.22549 1.30347,-0.14661 1.76578,-0.57878 0.96166,-0.89896 1.52471,-2.22015 1.92702,-3.44785 0.15242,-0.46511 0.21989,-1.09805 0.59324,-1.44642 0.46702,-0.43578 1.61934,-0.66529 2.20814,-0.39326 0.47197,0.21805 0.7991,1.02649 1.42265,0.6103 0.7179,-0.47917 0.14087,-1.44371 -0.38861,-1.78852 -0.91097,-0.59325 -2.14783,-0.37636 -3.12901,-0.11472 0.11308,-2.06262 -0.0315,-4.04057 -0.12609,-6.09575 -0.023,-0.49982 -0.33501,-1.40575 -0.91725,-1.38752 z m -1.07332,10.19266 c -0.35964,1.06303 -0.81292,2.30841 -1.77767,2.96365 0.0514,-1.21894 0.75654,-2.30921 1.77767,-2.96365 z m -6.09576,65.78617 c -0.40989,1.34879 -0.67745,2.56364 -0.67747,3.97908 h 0.0848 c 0.19184,-1.23393 0.78238,-2.73397 0.59272,-3.97908 z"
       sodipodi:nodetypes="cssssssssssssssssssssssssssssssssssssssssssscssssssssssssssccssccsssssssscssssssssssssscsssssscscssssssscssscsscccscssssssssscccsssssssssssscssssssssscsssssssssssscssssscssssssssssssssssssssssssssssssccscssssssscssssssssssscsssssssccssssssssccccsssscssssssccccscssssssssscscccccsccss" /><path
       style="fill:#008000;stroke:#000000;stroke-width:2.79537946;stroke-linecap:round;stroke-linejoin:round;stroke-miterlimit:20;stroke-dashoffset:135.831;stroke-dasharray:none"
       d="m 535.60352,1.6875 c -11.64822,4.683262 -22.82255,10.79583 -35.09486,13.990047 -26.82138,7.71553 -55.66271,13.153633 -77.77624,31.451359 -23.33774,17.340815 -39.51623,46.141627 -36.03711,75.755864 2.40833,23.35975 14.6608,44.75811 29.97852,62.0957 3.73941,4.48433 12.04448,6.1654 11.14062,13.43359 1.0414,23.55513 11.56152,45.40603 21.31024,66.45588 19.27056,38.15575 44.28365,75.79963 47.61164,119.55779 1.69675,20.8462 0.71477,42.83474 -9.97308,61.37092 -12.72721,24.65973 -44.88621,37.71973 -70.84333,27.34783 -5.27156,-2.29737 -8.61506,-8.15257 -14.0293,-9.7832 -3.28174,6.63709 -4.49021,15.20163 -11.92578,18.85352 -19.15358,11.47958 -41.68924,16.9586 -63.99777,15.47467 -11.42312,-0.78655 -23.53142,-0.10673 -34.34207,-4.16217 -4.22955,-2.95937 -5.22206,-9.58888 -10.05469,-11.50391 -5.21617,2.80481 -6.40628,10.11623 -11.58593,13.33008 -11.01775,7.5157 -24.3847,10.82919 -37.27149,13.62695 -16.643,1.83299 -33.68759,2.11808 -50.30859,-0.0273 -11.27819,-2.68611 -22.99725,-5.46797 -33.07032,-11.3457 -3.73711,-2.4506 -6.34497,-7.52621 -10.63281,-8.65626 -5.3186,5.71346 -10.08202,12.21904 -17.25195,15.89063 -26.702379,15.27621 -59.570474,19.34827 -89.404298,12.2793 -8.686056,-1.8609 -16.088933,-6.73625 -22.9433595,-12.1211 -4.2545219,-3.55571 -10.2629669,2.79798 -6.5585937,6.7461 11.6811782,12.92687 29.9270222,17.35948 46.6503902,19.00976 25.660434,1.91416 51.254281,-4.1947 74.455081,-14.93945 12.53658,-6.16883 27.5364,-7.08068 40.35547,-1.17774 35.56866,11.3822 75.34816,6.84161 108.5957,-9.57226 15.52912,-6.16516 31.39295,2.99121 47.26153,2.31909 20.90765,1.37304 42.42077,-0.65677 61.50214,-9.86401 11.55168,-4.6509 21.75051,-15.32812 35.16406,-12.71875 13.42742,2.58411 27.54607,3.57313 40.56055,-1.49219 23.68605,-7.33956 40.75106,-28.70694 46.68159,-52.27941 8.19223,-29.27599 2.59087,-60.20751 -6.05854,-88.68934 -14.022,-39.90759 -39.8378,-74.50959 -53.74414,-114.45703 -3.71229,-11.14079 -6.078,-22.70937 -6.76563,-34.43945 30.19573,-2.36645 59.80351,-14.1806 83.26953,-33.34961 24.24344,-20.06928 40.68493,-52.49887 34.50977,-84.355472 C 551.1254,53.629376 543.85313,32.28692 539.59308,10.245765 538.26935,7.9506438 539.08466,2.0242898 535.60352,1.6875 Z"
       id="path2"
       transform="matrix(0.30085361,0,0,0.30085361,29.634079,51.746819)" /><path
       style="fill:none;fill-opacity:0.466667;stroke:#ffffff;stroke-width:0;stroke-linecap:round;stroke-linejoin:round;stroke-miterlimit:20;stroke-dasharray:none;stroke-dashoffset:135.831;stroke-opacity:1"
       d="m 91.54518,146.57686 c -2.740649,0.55928 -5.360628,1.64982 -8.139708,2.09761 -3.946413,0.81756 -6.593781,4.2547 -7.923077,7.85646 -1.114277,2.28387 -0.541584,5.18304 -2.488314,7.06225 -1.874133,2.64293 -2.237097,5.96836 -3.231718,8.95071 -2.51519,-0.61147 -5.212403,-0.55992 -7.724804,0.0818 -1.314405,-2.63881 -1.406999,-5.82782 -3.049114,-8.36946 -2.302098,-2.85494 -1.939232,-6.78123 -3.830667,-9.84129 -1.459426,-2.88047 -4.037147,-5.33199 -7.34197,-5.79108 -2.771959,-0.45624 -5.423334,-1.61255 -8.189986,-1.9631 -0.225458,1.67429 0.900644,3.37162 1.146506,5.03969 1.043972,4.04766 2.512312,8.44136 6.257281,10.77866 2.701462,1.93718 6.197055,1.06556 9.277948,1.33861 2.417881,2.65888 2.937449,6.39568 3.852172,9.73849 -4.995424,3.79268 -7.440589,9.91759 -8.482007,15.92121 -1.447115,7.97351 -1.06148,16.13726 -0.767091,24.19352 1.230664,15.68385 3.566895,31.25599 5.758032,46.82762 0.72277,3.59894 0.874371,7.45508 2.52435,10.78502 0.689078,1.11888 2.24858,0.007 1.871011,-1.08893 -2.592877,-14.51945 -4.49717,-29.15879 -6.344742,-43.79208 -1.135222,-8.90515 -1.73046,-17.87546 -1.436185,-26.85469 0.296968,-7.14104 1.070205,-14.82162 5.405839,-20.77099 1.935462,-2.67686 5.207701,-4.73432 8.613363,-3.96128 4.798597,1.01622 8.199649,5.09078 10.837907,8.95483 4.561914,6.96832 5.999609,15.39683 7.471452,23.43878 0.02109,3.1271 -0.872408,6.21811 -0.850791,9.36764 -0.500711,9.14021 0.798708,18.48553 4.831389,26.77443 1.561642,3.63133 3.842909,6.86386 6.275078,9.95024 1.257493,1.09907 -0.463936,1.43664 -1.227407,2.07348 -0.972352,0.86097 -2.395953,1.66091 -2.745931,2.96676 0.649814,1.37524 2.140241,0.0433 2.916785,-0.4892 0.977265,-0.54898 1.886794,-1.59683 2.950642,-1.8371 0.615322,0.63734 1.71954,1.29372 1.793382,2.19412 -0.569867,0.5917 -1.772935,1.75701 -0.70917,2.48629 1.416925,0.55553 2.096845,-1.78596 3.573645,-1.12932 0.60024,0.21157 2.12653,0.54281 1.33966,1.41781 -0.65723,0.66419 -0.20577,2.10473 0.83715,1.5521 0.90597,-0.53174 1.6699,-1.55809 2.86815,-1.06586 0.96985,-0.11283 1.43556,0.52563 1.54738,1.35907 0.67531,0.91881 1.42842,-0.35251 2.08501,-0.59115 0.7286,-0.033 2.23022,-0.39744 1.689,-1.40994 -0.5131,-0.78779 -1.32585,-2.28584 -2.40341,-1.30504 -0.7828,0.3525 -2.03843,0.39647 -2.66306,-0.10701 0.42829,-0.56082 1.21151,-2.25897 0.0121,-2.35935 -1.20694,0.22899 -2.24234,2.3655 -3.54113,1.2337 -1.20434,-0.65226 -0.0149,-1.54691 0.52716,-2.15059 0.79962,-0.52952 0.66807,-2.05899 -0.47523,-1.83376 -0.93677,0.22887 -1.53039,1.53055 -2.45953,1.486 -0.50752,-0.61893 -2.171502,-1.73307 -1.28455,-2.27045 1.1864,-0.88381 2.99466,-1.68458 3.2206,-3.28908 -0.7836,-1.17881 -2.32318,0.0609 -3.0874,0.66144 -0.768624,0.46505 -1.837747,1.89869 -2.601689,0.62577 -6.178222,-6.74568 -9.310695,-15.7861 -10.511123,-24.72808 -0.254807,-5.04965 -0.526666,-10.18987 0.243808,-15.20082 1.636194,-8.80194 3.90588,-17.81995 9.475457,-25.04042 5.163247,-6.48605 11.468107,-12.13544 18.603377,-16.38102 7.91003,-4.70238 17.6783,-7.22409 26.69251,-4.45073 6.37048,1.53839 11.64291,5.79519 16.16035,10.35954 8.13492,8.76953 13.17646,20.34018 14.31032,32.2226 0.42514,10.78399 -0.0893,21.99544 -4.65366,31.95248 -4.19965,7.96023 -11.83409,14.09502 -20.49929,16.495 -4.83648,0.87581 -9.83286,0.6587 -14.71526,0.33517 -7.40347,-1.16628 -14.58357,-4.36462 -20.22128,-9.34928 -4.60188,-4.17118 -7.16658,-10.04612 -9.31368,-15.75472 -2.00876,-5.69271 -1.77266,-11.89954 -1.16545,-17.82118 1.23261,-6.67441 3.55914,-13.46585 8.55881,-18.28576 6.76457,-6.8711 16.30162,-11.057 25.94604,-11.28323 10.0759,0.0997 18.78604,7.70479 22.39301,16.77852 3.54713,8.62788 2.43399,18.97977 -3.04479,26.56891 -3.5249,5.50242 -9.74275,9.57489 -16.43705,9.24597 -6.09039,-0.19484 -12.33103,-2.1661 -17.00971,-6.16909 -3.54563,-3.14535 -4.68807,-8.11551 -4.37814,-12.69472 -0.0978,-4.39605 0.63907,-9.20249 4.02231,-12.34464 4.52481,-4.77175 11.90328,-7.21925 18.22996,-4.987 3.97752,1.64119 5.80731,6.05085 6.70407,9.96824 0.78954,3.53336 0.0206,7.76431 -3.23218,9.82293 -2.68669,1.97085 -6.629,2.31623 -9.54388,0.70025 -3.85046,-2.13136 -3.59308,-8.76865 0.62104,-10.35691 1.29063,-0.9537 3.33617,-0.55574 3.89571,1.02442 0.34091,0.93044 0.10952,2.944 -1.26307,2.68613 -0.88062,-0.48243 -2.69272,-1.08415 -2.99719,0.35668 0.14709,2.23758 3.34516,2.93943 4.99933,1.85738 3.30198,-2.1271 2.28958,-7.83181 -1.42463,-8.91339 -3.07641,-0.82954 -6.415,1.05132 -8.15545,3.54794 -2.17622,3.50648 -1.21322,8.46147 1.60088,11.33306 4.8341,4.07273 13.06064,2.65381 16.55479,-2.53454 2.51775,-3.84136 2.02393,-8.89059 0.66511,-13.0635 -1.38326,-4.20766 -4.36831,-8.04335 -8.65758,-9.53703 -2.71122,-0.31525 -5.58499,-0.19568 -8.34359,0.0456 -6.44811,1.09726 -12.82332,5.08397 -15.22091,11.39286 -1.85638,4.24968 -1.19289,8.99448 -1.13823,13.48995 0.38991,4.96503 2.84866,9.93086 7.32271,12.40655 6.88517,4.14057 15.43751,6.04424 23.33468,4.12044 7.95838,-2.31998 13.32996,-9.71744 15.94949,-17.24508 2.6025,-7.20339 2.37312,-15.35735 -0.84951,-22.32888 -3.75793,-8.60103 -11.47256,-16.09293 -21.04209,-17.40542 -5.50414,-0.67331 -11.08576,0.19512 -16.24454,2.17938 -8.50735,2.98349 -16.93398,8.37183 -20.59131,16.9618 -3.59515,7.46571 -5.510577,15.90449 -4.265334,24.18093 1.076284,7.37193 4.176304,14.4021 8.451284,20.46886 4.93236,5.8494 11.78611,9.90986 18.96946,12.37989 5.5278,2.00165 11.53811,1.79677 17.30726,1.33928 6.39605,-1.25745 13.11955,-2.88217 18.06078,-7.41871 5.57529,-4.40902 8.77539,-10.97132 11.01402,-17.56082 2.74691,-7.46867 2.69787,-15.55147 2.79023,-23.39968 -0.0877,-2.95952 0.16939,-5.97148 -0.98909,-8.77293 -2.62335,-10.49035 -6.92868,-20.89735 -14.54092,-28.77586 -6.49768,-6.81714 -15.4306,-12.26877 -25.13825,-11.9149 -6.49801,-0.23899 -12.89871,1.59331 -18.56902,4.6989 -9.29257,4.88621 -17.305941,12.18186 -23.173354,20.87275 -2.009362,3.70258 -4.198012,7.43093 -5.284105,11.52594 -0.225086,0.48492 -0.133633,1.82877 -0.689277,1.88848 -1.266639,-5.17124 -2.921613,-10.30376 -5.089024,-15.17685 -2.583022,-4.83245 -6.204313,-9.16124 -10.684222,-12.31971 -0.415353,-1.62772 0.460621,-3.38222 0.883317,-4.95003 0.680625,-1.46367 1.050168,-3.32181 2.274377,-4.41394 3.580481,-0.60216 7.785406,0.27797 10.679498,-2.46741 3.553786,-2.97604 4.706837,-7.64796 5.720964,-11.95485 0.110082,-0.99688 1.039397,-2.08623 0.753877,-3.05309 -0.173945,-0.11462 -0.398446,-0.10248 -0.596921,-0.096 z"
       id="path3" /><path
       style="fill:#008000;stroke:#000000;stroke-width:1.28564;stroke-linecap:round;stroke-linejoin:round;stroke-miterlimit:20;stroke-dashoffset:135.831"
       d="m 82.5927,285.3152 c -6.403249,1.68577 -1.703434,9.76838 -1.106984,13.99049 4.994179,17.0665 10.952079,37.50187 28.499104,45.57502 11.42152,4.18348 24.25628,1.89855 35.52626,6.30048 6.80291,-1.8258 0.45889,-9.76294 -0.19409,-13.94728 -6.03994,-16.33122 -10.92977,-37.14503 -29.20443,-43.97723 -10.82582,-3.61205 -22.156533,-6.76322 -33.51986,-7.94148 z"
       id="path6"
       transform="scale(0.26458333)" /><path
       style="fill:#008000;stroke:#000000;stroke-width:0.340159;stroke-linecap:round;stroke-linejoin:round;stroke-miterlimit:20;stroke-dashoffset:135.831"
       d="m 72.13922,75.132786 c 1.694193,0.446027 0.4507,2.584551 0.292889,3.70165 -1.321376,4.515512 -2.897737,9.92237 -7.540388,12.058391 -3.021943,1.106879 -6.417807,0.502325 -9.399656,1.667002 -1.799936,-0.483076 -0.121414,-2.583111 0.05135,-3.690218 1.598068,-4.320968 2.891835,-9.827956 7.727006,-11.635642 2.864331,-0.955688 5.862249,-1.789435 8.868796,-2.101183 z"
       id="path6-9" /><path
       style="fill:#f9f9f9;fill-opacity:1;stroke:#000000;stroke-width:0.426883;stroke-linecap:round;stroke-linejoin:round;stroke-miterlimit:20;stroke-dashoffset:135.831"
       d="m 619.30364,664.84382 c -3.77192,0.10873 -6.0401,4.14918 -5.18772,7.60253 0.89457,7.57328 2.50567,15.40232 0.75224,22.96348 -1.16516,2.60954 -4.44144,3.42161 -6.27469,5.51598 -5.83216,4.85832 -9.612,13.04366 -7.27883,20.56602 2.09605,4.28813 8.02699,5.9652 11.91521,3.01336 6.38277,-4.18056 8.87346,-11.77318 11.32475,-18.58756 0.56499,-2.53343 3.47608,-2.90366 5.57377,-2.4229 2.28357,2.14293 6.20674,4.23953 8.8467,1.42212 2.58458,-2.10442 2.47061,-5.85898 0.53164,-8.34741 -2.80764,-4.12747 -8.30972,-5.18245 -12.95423,-4.30975 -0.1209,-7.40701 -0.041,-14.89401 -1.12652,-22.22815 -0.80307,-2.71689 -3.03543,-5.38167 -6.12232,-5.18772 z"
       id="path8"
       transform="scale(0.26458333)" /><path
       style="fill:#f9f9f9;fill-opacity:1;stroke:#000000;stroke-width:0.426883;stroke-linecap:round;stroke-linejoin:round;stroke-miterlimit:20;stroke-dashoffset:135.831"
       d="m 636.21907,657.2935 c -4.90439,-0.27345 -8.42961,4.18608 -9.16731,8.66434 -1.48477,6.82883 0.83482,14.47816 6.48484,18.78609 4.34319,4.0782 10.15941,6.83061 13.26968,12.06816 1.68348,4.67543 -1.31687,9.15702 -4.31047,12.50642 -2.47054,2.73207 -4.7382,6.80554 -2.77218,10.42912 2.58678,3.13839 7.89835,1.61007 10.07802,-1.3248 5.47236,-6.25289 10.51191,-14.5849 8.41394,-23.22845 -1.89156,-8.15816 -9.32273,-12.94471 -15.54102,-17.70074 -2.79761,-1.8994 -5.52522,-5.15836 -4.43189,-8.72318 4.05184,0.32722 7.2761,-4.41312 5.1164,-7.97461 -1.33727,-2.59533 -4.40093,-3.55024 -7.14001,-3.50235 z"
       id="path9"
       transform="scale(0.26458333)" /><path
       style="fill:#ececec;fill-opacity:0.466667;stroke:#ffffff;stroke-width:0;stroke-linecap:round;stroke-linejoin:round;stroke-miterlimit:20;stroke-dasharray:none;stroke-dashoffset:135.831;stroke-opacity:1"
       d="m 437.28162,338.99889 c -53.94114,1.70461 -101.7037,33.81506 -137.14213,72.4915 -18.69062,20.27815 -32.14113,45.27702 -40.68636,71.37553 -7.61201,-33.53035 -21.13367,-67.28905 -47.47151,-90.54765 -3.6178,-4.60481 -14.20373,-6.8126 -10.42953,-14.4982 1.70145,-10.18991 7.4733,-18.91086 9.53318,-28.85603 0.50921,-5.78398 -7.33221,-6.52155 -9.1147,-1.42012 -6.0818,9.63091 -8.5347,20.90188 -11.36098,31.77186 -9.02897,-2.86261 -18.64829,-1.65887 -27.59519,0.005 -3.55971,-11.22923 -4.6365,-24.2829 -12.48682,-33.49977 -6.55521,-2.60783 -9.68243,7.38901 -5.32681,11.42038 2.78295,8.83472 7.86859,17.98533 7.01962,27.33871 -14.26524,13.63185 -24.24825,31.34993 -28.36142,50.6966 -13.75336,63.29632 -2.603,128.32643 4.68234,191.69372 5.92862,41.10566 9.55834,82.72908 19.10823,123.19941 0.0671,6.19854 9.71763,10.83423 11.65526,3.26143 1.41539,-16.02619 -4.39934,-31.88372 -5.95586,-47.80138 -8.0346,-56.33537 -16.49834,-112.64621 -21.19357,-169.26797 -0.49997,-38.48811 -4.47478,-79.16359 10.76402,-115.68748 6.33379,-15.69926 20.79832,-32.44791 39.53935,-28.75613 23.10006,5.40846 37.61424,27.24897 47.4445,47.24202 10.33498,23.49131 16.27476,48.74896 19.64683,74.03805 -2.66746,26.11424 -5.03662,52.80391 -1.03024,79.07168 4.19054,34.7166 18.43894,67.77974 40.15245,95.13751 2.60275,3.45361 -5.0416,5.04122 -7.13436,7.97416 -3.60451,2.93587 -12.19669,9.37876 -5.71829,13.75035 8.35267,1.54816 14.21326,-7.75531 21.11285,-10.20544 2.62576,2.40127 7.40886,5.66169 2.72145,8.44513 -4.2614,4.64583 1.73399,12.19316 6.87653,7.71889 3.25136,-1.7934 6.28884,-5.95544 10.05695,-2.47307 5.14626,0.70451 -1.44706,5.55973 2.00329,8.53154 4.57885,5.94482 9.03858,-2.27418 13.97714,-2.05459 3.00169,-0.30844 5.60421,0.21384 5.19992,3.7447 4.27444,6.39893 9.57884,-1.94745 14.82218,-1.36883 9.12409,-3.49992 -0.96515,-18.5376 -8.32633,-13.20769 -2.68726,0.37898 -8.75175,1.86918 -4.67345,-2.37856 2.23204,-7.34151 -9.45825,-8.39715 -11.68497,-2.31647 -2.22708,2.8053 -8.82935,-1.18601 -4.20637,-3.42072 5.13558,-2.82843 4.86965,-12.32695 -2.12748,-11.53377 -4.48559,0.44363 -7.33974,8.76424 -10.46734,2.71876 -4.40103,-4.07623 5.16578,-6.39624 7.23292,-9.67898 6.00523,-2.2381 4.74732,-12.47827 -2.20848,-10.56722 -5.73897,1.18458 -9.70642,7.64151 -15.12187,8.19406 -14.80174,-14.79188 -24.23143,-34.21859 -31.2319,-53.76217 -11.12167,-34.64102 -14.06057,-72.25337 -5.72639,-107.9536 6.64173,-39.73791 24.16443,-78.61532 54.22653,-106.2905 28.47608,-26.77634 62.47127,-51.47478 102.14083,-56.91829 23.03625,-2.59722 46.75641,-0.84592 67.22601,11.33862 46.18643,24.62426 75.2931,73.30553 87.94531,122.98174 9.6194,44.41927 6.08395,91.58922 -7.67298,134.90083 -11.74203,35.49125 -43.79792,62.06634 -78.5738,73.19031 -47.48256,10.8005 -100.44508,-2.18297 -136.16167,-35.53276 -16.39425,-16.98082 -26.13972,-39.66171 -33.47818,-61.58904 -9.00547,-39.42615 -3.67779,-82.9449 18.88547,-116.95222 24.30308,-32.17452 63.89936,-51.70697 103.78234,-53.79185 37.79801,-2.12593 70.88581,26.13337 84.82666,59.62084 14.12113,30.62619 11.26509,67.79186 -6.69022,96.06076 -13.52628,22.56621 -37.92482,41.63124 -65.53352,38.66728 -23.45365,-0.6009 -47.92439,-8.91853 -64.44819,-25.77279 -15.44783,-17.49944 -13.85325,-43.18914 -11.12069,-64.56158 6.53963,-28.63333 37.35674,-46.47563 65.55242,-45.6464 14.08223,1.14512 28.181,8.84935 32.9922,22.81645 6.93208,15.18546 11.12821,36.31184 -2.62965,49.25072 -11.86355,10.78677 -34.81632,13.8868 -44.0697,-1.73601 -4.96886,-10.43128 -2.30949,-25.04043 9.62227,-29.3933 6.64895,-5.03371 15.18357,4.21117 10.48623,10.35663 -5.01722,-0.0254 -14.88885,-3.52073 -14.87348,4.69506 2.06046,12.81562 21.59745,12.77779 26.72583,2.00868 8.27928,-13.35898 -2.45472,-34.56901 -19.14196,-32.11205 -19.4499,1.59457 -34.34211,22.25616 -28.79122,41.17815 3.41624,16.19266 18.31441,29.0761 35.19257,28.18106 20.53676,1.50479 41.66476,-12.04107 45.8948,-32.76271 5.00444,-23.25794 -3.88219,-49.085 -21.11555,-65.22843 -20.23263,-16.57609 -49.78612,-11.72774 -71.68107,-1.22303 -23.2139,10.65951 -40.2406,34.25044 -40.0786,60.21562 -1.17624,24.34756 -0.003,53.34376 20.87183,69.78498 28.90444,21.80799 68.75541,31.48659 103.72564,20.0653 31.51787,-13.48516 52.38881,-45.44698 59.50944,-78.17896 10.62814,-46.52929 -11.16998,-97.4935 -50.26244,-124.09939 -32.61647,-22.0259 -75.86336,-17.96358 -110.23768,-2.35967 -27.33142,10.99923 -53.04451,29.29899 -66.25978,56.32431 -18.35511,34.26526 -25.07605,74.94975 -15.62405,112.91325 8.71366,34.64174 27.36647,68.0946 57.75805,88.11561 36.43893,25.868 84.21626,35.56417 127.48423,23.2857 28.66185,-6.97751 56.65527,-21.99132 72.53988,-47.72783 19.49719,-29.68808 30.65507,-64.82739 31.28695,-100.39221 2.70437,-33.36292 -0.0638,-67.53117 -12.78247,-98.76956 -17.61224,-50.32239 -52.77379,-98.43281 -104.68672,-116.64015 -12.68606,-4.34157 -26.07292,-7.10413 -39.52853,-6.83872 z"
       id="path17"
       transform="scale(0.26458333)" /><path
       style="fill:#ececec;fill-opacity:0.466667;stroke:#ffffff;stroke-width:0;stroke-linecap:round;stroke-linejoin:round;stroke-miterlimit:20;stroke-dasharray:none;stroke-dashoffset:135.831;stroke-opacity:1"
       d="M 230.53711,-0.68359375 C 193.43268,-0.04015982 160.72609,22.279708 135.55219,47.850886 120.80853,63.058885 110.00966,81.984481 103.04883,101.90234 102.08332,103.60505 100.91109,94.46435 99.685679,91.956125 93.433093,68.419038 81.186336,45.166188 60.238281,31.626953 60.630725,21.974762 67.42774,13.614109 67.34375,4.0332031 65.207937,-0.49222256 60.745272,4.284776 59.970703,7.2460938 56.628524,13.906054 54.498322,21.099537 53.080078,28.396484 46.47758,26.801674 39.538115,27.065498 32.9375,28.523438 30.469795,20.060078 29.232784,10.476077 23.701172,3.3925781 18.746839,1.6402706 17.764275,9.273697 19.791016,12.398438 c 2.521713,6.3669 5.692912,13.7449 5.296739,20.156181 C 8.6957999,46.514395 2.8522435,68.348 1.1921704,89.001342 -3.3644472,137.30981 5.6843139,185.44871 11.344257,233.26332 c 3.323947,21.49189 4.979159,43.41485 10.808087,64.41832 0.594167,4.74405 8.722216,6.5514 8.958984,0.7832 C 30.693199,287.05167 26.928539,275.9624 25.925667,264.55573 20.306092,224.07753 13.908622,183.53556 10.841797,142.80859 10.212603,112.59407 6.7747692,80.231947 21.439453,52.582031 26.094206,42.965924 36.689576,34.563707 47.867188,37.851562 c 17.438732,5.184577 28.15474,21.99302 35.076171,37.673829 6.301799,16.185511 10.645806,33.292379 12.621094,50.537109 -3.095433,26.36103 -4.210816,53.65023 3.865217,79.30302 4.82548,17.41643 14.78543,32.74836 24.95119,47.36886 -4.22898,3.18506 -10.10008,6.34568 -11.60938,11.68164 1.51575,5.69286 8.43954,1.29545 11.25391,-0.93164 2.72378,-1.6838 5.87457,-6.14267 8.12891,-1.59376 3.58455,2.43995 -3.15717,4.62469 -1.18555,8.06836 2.38733,5.24046 7.66737,-0.29388 10.76563,-1.375 2.35165,0.89231 5.46796,1.39203 3.29296,4.23047 -1.07334,5.20066 5.24512,6.52481 7.64258,2.38086 2.26697,-1.2567 6.83798,-2.01591 6.51172,1.56446 3.16636,4.37407 7.82696,-0.88069 11.67578,-1.08594 5.17612,-3.45266 -1.74452,-12.86843 -6.81054,-9.30274 -1.71446,0.18389 -6.42439,1.43818 -3.44532,-1.57031 1.6276,-6.14216 -7.68237,-5.97617 -9.3164,-1.21094 -2.78724,0.18665 -4.30044,-2.40894 -1.35547,-3.91015 3.98063,-2.54773 1.03172,-9.53765 -3.53321,-7.10352 -2.50884,1.34591 -4.57382,5.28618 -6.32031,1.34961 -3.30691,-2.6009 3.10134,-4.03326 4.31445,-6.04101 3.59731,-1.3801 5.78796,-7.69812 0.7754,-8.54493 -5.04427,-0.39441 -8.49107,6.04381 -12.79297,5.77539 -18.61374,-20.45969 -27.53451,-48.52979 -29.35954,-75.52159 -1.61821,-27.71414 4.48497,-55.51577 15.35301,-81.174433 12.44882,-26.27434 34.9385,-46.475561 59.02064,-62.03649 23.20491,-14.571399 52.67924,-22.4379762 79.30952,-12.611772 30.83045,11.677926 53.21606,38.900621 66.13517,68.480642 9.30596,20.850183 13.26434,43.523773 12.10876,66.347623 -1.02655,26.01854 -3.87734,54.18787 -19.35272,76.23868 -16.6017,22.29358 -44.03564,37.75275 -72.23828,35.70899 -28.26864,0.0685 -57.16911,-11.12561 -76.37305,-32.2754 -10.66036,-14.51688 -19.58617,-31.03432 -22.35742,-48.96875 -3.50033,-25.87122 0.18993,-53.77858 15.16211,-75.72656 19.73487,-26.464289 53.67354,-41.766366 86.56445,-38.666014 19.65015,3.610895 36.97382,17.185867 46.21485,34.945313 15.38094,25.245791 13.07841,58.927401 -4.73433,82.341791 -9.81859,13.96339 -26.15009,24.46497 -43.74727,22.7173 -18.15271,-1.32069 -38.21383,-7.0838 -49.45981,-22.40675 -8.15073,-12.73689 -6.72511,-28.90452 -4.99219,-43.24023 5.08459,-20.9376 28.06436,-34.02765 48.75586,-32.49414 10.69049,0.44491 19.73449,8.10016 23.08203,18.07031 4.39075,10.899 6.97879,26.22343 -3.71679,34.47656 -8.71551,7.8291 -26.81567,8.85072 -31.39649,-3.91797 -2.67899,-6.74327 -0.59766,-14.78786 6.02735,-18.28906 3.63948,-3.22016 10.37097,-2.20369 10.02929,3.64453 0.51537,5.20553 -5.67584,1.49574 -8.45508,2.1211 -6.12282,1.2432 -2.11877,9.98871 2.59766,10.58984 8.03088,2.98656 16.4264,-4.42773 15.65039,-12.67773 0.58195,-9.83624 -9.55242,-18.21538 -19.06836,-15.12891 -13.91772,3.17542 -22.36146,19.41784 -16.89843,32.62305 3.80903,11.25012 15.52609,18.33203 27.25,17.27148 16.03546,-0.0351 31.31684,-13.09889 31.58398,-29.59375 0.8861,-17.9135 -7.03708,-37.98275 -23.66211,-46.416015 -19.66625,-6.52669 -42.5849,-0.540809 -58.03516,12.884765 -12.68426,10.60602 -16.27236,27.84541 -15.60422,43.63863 -0.37254,16.60041 4.05139,35.26999 18.91868,44.80278 21.46919,13.76138 49.93124,20.16065 74.17383,10.04492 20.09776,-9.01639 32.26373,-29.65538 39.05859,-49.75391 4.17889,-15.59275 4.00095,-32.5724 -0.44531,-48.08789 -8.89231,-27.656523 -31.62702,-53.215669 -61.39844,-57.656248 -29.56286,-3.584994 -59.18963,8.002546 -82.34766,25.83789 -17.65599,14.579575 -26.13754,37.166638 -31.60156,58.746098 -1.13089,14.41608 -1.57572,29.145 0.59766,43.48437 4.92591,19.39398 13.24069,38.64454 26.88867,53.52149 18.05008,17.61999 41.79665,30.3801 67.01866,33.30159 16.01207,1.05816 32.30493,0.49475 47.56532,-4.9598 20.00397,-5.38538 38.04165,-17.95999 48.54078,-36.01364 18.85045,-29.68249 21.97945,-66.20009 20.67593,-100.50898 -2.20835,-22.62243 -10.43669,-44.351361 -20.3671,-64.637534 -16.85907,-32.54769 -47.76283,-61.0780559 -85.57617,-64.51757788 -2.96895,-0.26700029 -5.95079,-0.38862027 -8.93164,-0.35742187 z"
       id="path18"
       transform="matrix(0.36574002,0,0,0.36574002,31.087901,89.972047)" /><path
       style="fill:#ececec;fill-opacity:0.466667;stroke:#ffffff;stroke-width:0;stroke-linecap:round;stroke-linejoin:round;stroke-miterlimit:20;stroke-dasharray:none;stroke-dashoffset:135.831;stroke-opacity:1"
       d="m 435.59421,339.36877 c -51.04977,0.60466 -95.7065,31.25317 -130.32109,66.34164 -21.54124,20.99446 -36.22427,48.2 -45.7309,76.49135 -8.43288,-32.83178 -20.571,-66.96646 -47.03143,-89.74309 -3.19942,-3.67896 -8.81186,-5.5109 -11.50947,-9.2308 1.00535,-11.80768 6.1855,-22.93201 11.87395,-33.0165 -0.39558,-3.24725 -3.27351,-7.46196 -6.64973,-7.77557 -7.48302,4.833 -8.67972,15.55548 -12.12893,23.26859 -2.72603,4.72371 -0.39581,16.09048 -8.12807,12.66105 -7.63427,-0.98192 -15.47483,-0.82124 -22.98654,0.94225 -3.45346,-11.92854 -5.43249,-25.46514 -13.18338,-35.40047 -4.23185,-1.71419 -5.43761,3.73606 -7.47589,5.96937 1.62463,8.99047 7.55397,16.93179 8.85011,26.20747 3.97416,7.02462 -0.14243,11.23999 -5.58329,15.30007 -23.14857,25.54892 -27.00338,62.14075 -27.92499,95.15138 -1.72968,57.39998 7.92511,114.30972 14.68221,171.12155 4.84016,31.54138 7.7011,63.61543 15.96693,94.48947 0.89164,6.82105 11.54837,7.71255 12.15744,0.38067 0.0708,-13.98389 -4.99357,-27.47421 -6.14864,-41.37606 -8.14645,-57.19581 -17.19914,-114.37475 -21.59008,-171.9359 -0.67282,-39.06002 -5.18969,-80.40624 10.05198,-117.66566 6.2892,-16.30078 21.5078,-34.30462 41.02696,-29.16921 21.958,6.9229 36.60615,27.4364 46.22688,47.32572 9.94827,23.13204 15.7634,48.15188 19.49833,72.69892 -1.93856,23.88197 -5.18954,47.93365 -2.33271,71.93933 2.99322,36.87565 17.56685,72.16533 40.00618,101.43188 5.40732,4.46357 -2.69527,5.78222 -5.15375,8.99574 -3.5517,3.38486 -12.78672,9.49686 -6.29065,14.29571 8.3466,1.80979 14.6132,-7.48377 21.21274,-10.15684 2.71384,2.47362 7.38906,5.75026 2.59726,8.53693 -4.27061,4.97662 2.4007,11.98425 7.52449,7.72698 3.30199,-2.33381 6.47864,-5.5221 10.40253,-1.94929 2.5325,2.07894 -1.68689,8.92591 3.5638,10.39443 5.69992,1.16953 9.73125,-8.28865 15.81304,-3.32622 1.39747,7.01649 9.02897,6.43969 12.62721,1.67931 6.59125,0.95337 8.99937,-7.37755 4.30627,-11.27728 -2.7909,-5.10607 -8.18534,-2.97402 -12.47873,-1.96279 -6.91733,1.61368 3.51745,-7.81681 -3.98227,-9.23081 -4.56481,-1.82639 -8.25211,1.91885 -10.78592,5.00013 -4.75916,-0.19398 -4.89655,-3.58522 -1.40391,-6.04226 5.04905,-3.56209 2.45093,-13.14761 -4.24957,-9.61687 -3.94599,1.15515 -7.31236,7.86708 -9.94627,2.04647 -4.35189,-3.78048 4.96074,-4.95581 6.50666,-8.02125 6.30557,-2.66315 5.51146,-14.41614 -2.54597,-11.64986 -5.18118,1.37938 -9.37661,8.18784 -14.22282,7.58387 -31.24465,-34.63263 -43.41064,-83.60341 -40.76508,-129.63341 4.05299,-47.33046 17.94372,-97.15652 52.36095,-131.8095 31.15855,-30.87393 69.7733,-59.41844 114.93559,-63.96625 35.53277,-3.44472 70.77384,12.82634 94.62965,38.71992 29.40097,27.68125 47.31341,66.43329 55.41406,105.43332 6.86968,42.65901 3.72444,87.69236 -10.6613,128.84098 -12.05061,32.64721 -41.59741,57.19242 -73.73532,69.23873 -20.35351,6.56133 -42.45298,4.16109 -63.28489,2.67455 -33.82822,-5.83816 -67.52611,-22.74902 -87.62598,-51.293 -13.82226,-22.76419 -26.19741,-48.19396 -26.07353,-75.23404 -1.58103,-31.40848 5.62803,-64.75947 23.95641,-90.614 24.40632,-31.21643 63.3775,-49.76934 102.50261,-52.25294 40.30967,-1.50209 75.84861,30.34659 87.95579,67.31542 15.33857,43.83326 -1.7979,98.26618 -43.45143,120.9129 -18.14541,8.21194 -39.33956,7.02926 -58.11702,1.8413 -21.38537,-6.2398 -44.92487,-19.62346 -49.16162,-43.51623 -3.89017,-23.06321 -3.3066,-50.86198 14.6548,-68.35486 18.61029,-17.29912 49.35875,-27.42872 72.09956,-12.04674 10.66686,8.54351 15.35912,23.10074 17.54365,35.80544 2.82609,15.59964 -6.68541,32.80534 -22.81646,36.01604 -12.53897,4.04934 -29.84259,-0.82415 -31.71517,-15.76175 -3.69679,-11.48015 8.23481,-27.35449 20.34609,-22.83535 4.03351,2.42479 4.54815,13.0005 -2.25118,9.89137 -5.36573,-2.41791 -13.4934,0.79 -10.48133,7.56857 5.63777,11.81658 26.04582,8.97788 28.05147,-4.28197 4.70729,-13.10454 -5.29453,-29.71685 -20.0221,-28.32684 -19.51908,0.37377 -34.43685,20.42286 -30.26265,39.26395 2.49282,18.83907 21.20956,32.51429 39.88222,30.31394 23.19678,-0.0749 45.02521,-20.28629 43.37313,-44.14799 -0.92925,-21.47703 -8.39783,-45.52387 -27.05792,-58.01982 -24.08072,-12.59094 -54.10159,-6.42917 -76.34642,7.32469 -19.3,11.85195 -31.13715,33.70592 -31.11581,56.30273 -0.94779,23.59701 -0.54439,51.62219 19.22025,68.11998 23.97304,19.7541 56.58767,28.6044 87.34833,25.5568 40.60096,-5.5505 69.56659,-43.0288 77.40477,-81.36545 13.11316,-55.56642 -19.57695,-120.17487 -75.1045,-137.3307 -40.50231,-10.35556 -83.10608,3.96473 -116.91441,26.46665 -30.98311,20.39999 -46.1946,57.20074 -52.97651,92.37006 -4.05372,30.0705 -0.66944,61.28211 12.45773,88.84705 10.72214,25.69316 28.86298,48.17969 52.78691,62.66867 36.41805,24.11143 83.19053,31.82371 125.19556,19.31781 30.81388,-7.07286 58.97595,-25.97655 74.78693,-53.69196 25.2285,-41.23748 29.23268,-91.45785 27.30191,-138.67967 -2.73297,-27.60739 -12.82908,-54.01624 -23.87481,-79.2582 -20.00272,-43.87335 -57.1926,-82.43989 -104.79537,-94.88357 -10.04235,-2.37227 -20.4077,-3.16366 -30.70753,-2.94018 z"
       id="path19"
       transform="scale(0.26458333)" /><path
       style="fill:#ececec;fill-opacity:0.466667;stroke:#ffffff;stroke-width:0;stroke-linecap:round;stroke-linejoin:round;stroke-miterlimit:20;stroke-dasharray:none;stroke-dashoffset:135.831;stroke-opacity:1"
       d="m 434.80315,338.84769 c -50.02005,2.33861 -95.04041,30.60126 -128.60413,66.2634 -21.30403,20.76951 -37.28714,47.07854 -46.36234,75.35401 -1.09235,-0.30378 -2.37835,-8.64848 -3.79616,-11.81929 -9.46245,-30.72266 -23.03854,-62.73326 -50.39545,-81.68674 -8.00659,-3.77625 -2.5398,-12.68057 -1.0411,-18.86267 1.93489,-6.1894 4.58663,-12.42541 9.08936,-16.75919 1.90308,-6.32687 -7.05328,-13.53529 -10.89391,-6.02877 -6.67732,10.1317 -9.81699,22.11946 -12.12233,33.90205 -9.06348,-2.13241 -18.66609,-1.84131 -27.74099,0.10529 -2.82886,-12.38061 -6.0585,-25.15891 -12.67581,-36.07543 -6.24205,-3.2201 -10.51829,6.77181 -6.96832,11.46088 4.55023,9.37362 7.62778,19.37579 9.75997,29.56068 -25.15841,20.60948 -32.96464,54.81268 -34.69161,85.81642 -1.89447,47.15359 1.04006,94.34477 7.84042,141.02422 6.59142,45.79355 10.51017,92.13953 20.90612,137.28307 -0.0192,6.5399 8.38046,13.47742 13.08348,6.64974 2.80177,-9.98668 -3.1527,-20.15889 -3.5119,-30.06626 -10.38068,-70.3513 -22.2314,-140.90077 -24.91485,-211.97822 -0.21274,-32.38916 -1.15066,-66.32129 13.06189,-96.29024 6.98186,-14.63418 22.16211,-29.43316 39.94162,-23.95039 21.52206,7.57483 35.97563,27.84638 45.51645,47.65269 9.94949,23.18977 15.61009,47.81121 19.09102,72.72563 -3.03154,33.85739 -5.9984,69.65693 3.45581,103.16948 6.74622,26.72276 20.17786,51.12149 36.45341,73.16329 -5.93734,4.16921 -14.95789,8.44944 -15.86163,16.36921 1.82906,8.07912 11.27587,2.28058 15.09757,-0.90445 4.0176,-1.9925 8.28113,-8.96666 11.59588,-2.94014 5.36643,3.77936 -5.86739,8.46472 -0.86667,13.08349 6.38008,6.2468 12.94619,-7.89188 19.02857,-1.11504 -4.07705,4.40451 0.002,12.94155 6.10436,9.48999 3.34901,-2.58108 8.9269,-6.28789 12.60832,-3.15614 0.95736,7.80303 9.66347,4.93437 13.59916,1.43903 7.38422,-0.34868 6.78622,-9.32102 2.10318,-12.854 -2.68699,-4.40868 -6.90199,-1.58747 -10.29184,-0.28888 -5.7695,1.57531 -2.03078,-1.66498 -2.03029,-4.87864 -1.52919,-7.85362 -11.70779,-3.76617 -14.84919,0.76946 -7.15325,-1.96141 2.45234,-6.75233 2.33537,-11.42579 0.25935,-7.73652 -9.31163,-4.57776 -12.54081,-0.95304 -2.97484,3.4112 -8.26933,-4.78215 -2.11938,-5.59949 4.19328,-3.31635 13.82021,-11.18035 6.37434,-15.99123 -7.28747,-1.70985 -12.37552,7.41061 -18.26989,8.43705 -17.13922,-16.75078 -26.68662,-39.52138 -33.88315,-62.01832 -14.6244,-48.6041 -7.21289,-100.99754 10.76701,-147.94382 17.79455,-41.95913 54.28967,-74.46874 93.09361,-97.26489 34.11144,-19.57593 77.8123,-26.01891 113.52048,-7.11134 49.56258,25.60363 80.37855,77.76686 92.20559,131.00758 5.94086,46.03399 4.82318,95.46348 -13.67206,138.42953 -11.82101,24.36261 -33.21753,43.22892 -56.69895,55.87429 -40.88486,18.41073 -89.56826,11.15822 -127.54978,-10.08208 -20.03179,-10.94814 -36.49197,-28.04007 -45.93799,-48.76745 -10.85684,-19.71815 -17.69762,-41.35469 -17.38975,-63.87311 -0.86109,-26.58598 5.8315,-53.44085 18.18286,-76.89348 22.89979,-35.60331 63.93887,-58.06277 105.91045,-61.03118 36.33751,-3.15838 69.01705,22.31887 84.65143,53.54303 21.32284,39.66765 11.57029,91.26612 -20.71621,122.35777 -17.7896,17.68922 -44.83025,21.5228 -68.27482,15.38882 -20.47934,-5.20611 -43.76783,-15.26776 -53.05116,-36.13179 -6.68632,-20.5525 -6.83413,-43.85338 1.70091,-63.96222 14.36098,-24.8429 47.49281,-39.19795 75.0316,-29.52288 17.271,8.31688 24.57512,29.19811 24.95006,47.26589 1.10795,23.89248 -31.55399,38.85259 -49.27303,23.63223 -9.51628,-9.14291 -7.75807,-27.76407 5.20531,-32.8383 4.82573,-3.47771 11.99785,-1.39988 12.07375,5.08383 0.72213,3.30511 -1.2764,6.28742 -4.96503,3.72579 -5.06552,-2.4002 -12.02726,0.61444 -10.34584,6.91162 3.35338,10.93236 20.17454,11.01971 25.99148,1.9493 5.63593,-6.61104 3.53571,-17.059 0.34018,-24.36887 -9.37253,-14.65281 -31.08621,-10.11486 -40.93247,1.59831 -16.13868,18.44986 -6.54161,52.31289 18.05933,57.56356 19.6583,5.01818 42.61918,-2.73283 52.32314,-21.26134 11.46911,-21.81383 3.55492,-48.76932 -9.28209,-68.13348 -13.89781,-19.89381 -41.41218,-20.99168 -62.89057,-15.50868 -28.70708,6.76236 -55.29902,30.74148 -56.7426,61.55196 -1.75616,25.68356 -1.78024,56.27118 19.13115,74.86421 19.77453,16.18684 45.73822,23.72618 70.90892,25.52711 24.92209,1.82366 50.26955,-8.23378 66.1302,-27.77068 19.83235,-23.00721 32.39252,-53.37395 29.84144,-84.08955 1.25898,-27.03911 -11.51281,-52.83571 -27.75175,-73.68984 -19.67834,-24.67625 -51.11195,-40.22406 -82.95838,-37.28226 -30.42816,1.68887 -59.88193,13.69588 -84.95895,30.63253 -27.99445,19.03722 -42.36734,51.67503 -50.20106,83.49564 -8.44754,39.70029 -0.0955,81.84725 20.88876,116.38254 20.347,34.68421 57.85487,56.64899 96.23624,65.76571 35.57304,7.17294 73.60322,0.64893 105.66683,-15.96693 35.95866,-19.43321 54.00257,-59.28984 63.29804,-97.27298 5.30603,-27.05209 6.80717,-54.98551 5.29962,-82.49286 -5.49659,-41.4059 -21.26418,-81.77704 -45.7704,-115.64123 -26.70697,-35.77735 -68.75258,-63.13252 -114.66005,-61.72673 z"
       id="path20"
       transform="scale(0.26458333)" /><path
       style="fill:#ececec;fill-opacity:0.466667;stroke:#ffffff;stroke-width:0;stroke-linecap:round;stroke-linejoin:round;stroke-miterlimit:20;stroke-dasharray:none;stroke-dashoffset:135.831;stroke-opacity:1"
       d="m 435.13524,338.6668 c -51.65919,2.11407 -97.44271,32.74818 -132.38728,68.85704 -19.41705,20.41739 -33.47451,45.67218 -43.03295,72.03207 -1.64899,-4.1907 -3.83495,-13.51763 -6.13724,-19.41177 -8.90773,-28.35963 -23.53104,-56.36792 -48.30528,-73.93293 -7.27455,-4.20205 -1.45803,-12.93331 -0.24839,-18.86927 1.23674,-6.89416 6.99198,-11.82584 8.17516,-18.49939 1.46394,-6.40738 -7.7099,-11.04313 -10.48623,-4.14697 -6.52435,10.30754 -9.26565,23.1728 -12.60291,34.09913 -8.84886,-1.51376 -18.13216,-1.52374 -26.91753,0.41848 -2.2628,-11.71869 -6.11988,-23.07734 -10.80211,-33.93175 1.09961,-5.81053 -6.62494,-6.23212 -8.22645,-1.33102 -6.7044,7.12789 2.9525,15.12555 3.86871,22.63839 2.0251,5.97527 3.33129,11.90289 4.90311,18.01059 -20.15881,15.20285 -28.92847,41.12093 -32.63582,65.21763 -8.92204,67.81676 2.89249,136.03587 11.13419,203.30161 5.13177,33.34679 8.11758,67.26782 16.63109,99.95393 2.29569,6.78252 14.46143,6.20302 13.52627,-1.90339 -10.47014,-56.73414 -17.6567,-114.21228 -24.79815,-171.49194 -4.62172,-44.26428 -7.98924,-89.16739 -1.18794,-133.35921 3.77672,-20.73698 13.19851,-44.48757 33.97225,-53.41929 17.70933,-5.61377 33.65352,9.29317 44.19659,21.62312 21.86222,27.32168 29.54046,62.48082 35.25467,96.20385 0.30381,14.9899 -3.56021,29.80925 -2.96735,44.95232 -1.55768,43.3624 9.79829,87.79299 35.7872,122.9592 1.55039,4.31259 10.80324,9.90114 3.96833,12.80311 -4.7312,4.16451 -16.34387,10.0655 -10.29183,17.48965 7.51814,4.27811 13.71924,-6.00334 19.94382,-8.82852 2.5369,-1.61967 7.14355,3.26797 5.99366,5.09461 -5.86283,3.07341 -4.12996,12.3937 2.77546,11.67687 4.54349,-1.27982 10.22142,-7.91313 13.68284,-2.20578 -3.93903,4.73293 1.42798,12.40945 6.96292,8.52074 3.05211,-2.69908 8.60411,-5.93681 12.07375,-2.62967 -0.0159,6.7295 8.6727,6.5318 11.59046,1.9142 4.77646,0.2679 10.72971,-3.56883 7.3868,-8.89061 -1.91076,-5.34141 -7.91908,-9.36452 -12.98629,-5.32141 -3.64235,1.41531 -5.18596,0.021 -2.79975,-3.17773 1.40562,-6.16732 -7.31225,-9.28281 -10.71841,-4.14157 -1.32305,2.23373 -5.73613,5.16962 -6.49584,1.43901 5.18287,-2.92978 7.74028,-14.25797 -0.50488,-14.29301 -4.85592,-0.0457 -8.79752,8.67309 -11.67767,2.07824 -0.93412,-3.51161 7.12201,-5.55368 8.92383,-9.40833 5.51741,-3.66868 2.02922,-13.61589 -4.66265,-9.95976 -5.16027,1.56642 -9.96083,8.10623 -14.48321,7.56737 -32.22146,-36.35587 -43.64916,-87.71444 -39.54624,-135.3028 3.43047,-35.15869 12.56344,-70.8607 31.86636,-100.80979 20.71895,-29.63528 49.05248,-53.74746 80.5042,-71.57039 30.02098,-16.26601 67.176,-22.98181 99.99714,-10.80751 50.2819,19.7461 83.69348,67.92873 98.85554,118.24541 10.95018,35.01214 8.78737,72.3796 4.45701,108.36671 -5.06501,28.15066 -13.31694,57.80533 -35.18908,77.76485 -20.44837,20.03611 -47.65004,35.64091 -76.93242,35.15351 -36.25989,2.31206 -72.83636,-7.63815 -101.50703,-30.45137 -26.81229,-22.23702 -42.6499,-56.9537 -46.79654,-91.21181 -2.63393,-31.74757 4.0586,-65.12344 21.31293,-92.22229 22.94284,-33.32605 62.81059,-52.41278 102.13547,-56.28562 30.57795,-2.81231 58.27388,15.88577 75.89521,39.47436 22.39286,29.98015 26.65228,72.31148 9.81666,105.88012 -12.39154,27.01036 -39.08178,50.88648 -70.45535,48.42725 -24.09107,-1.67231 -50.39062,-9.39056 -66.36777,-29.03961 -13.16488,-18.6421 -13.04607,-43.9478 -7.21779,-65.18116 10.59166,-31.33272 50.44431,-49.53017 80.82927,-36.07411 17.01571,10.34244 22.83621,32.7271 20.77807,51.50239 -3.05791,20.19338 -32.68476,31.73112 -47.8171,17.39244 -10.37856,-9.88482 -7.0223,-29.41158 7.3085,-33.53486 6.69858,-4.69302 11.54825,5.79212 8.40734,10.59963 -5.2395,-2.24939 -14.28824,-3.56718 -15.61594,4.16856 1.72024,12.3523 19.78714,13.64918 26.67994,4.75444 9.99597,-11.48207 2.38989,-34.39388 -13.86644,-34.99819 -18.53614,-0.72025 -36.89461,16.43642 -33.89395,35.62456 0.3036,18.68586 16.28314,34.99075 35.08728,35.15748 24.90801,2.18447 50.44219,-18.68184 49.08654,-44.55823 -0.58675,-22.10429 -8.59058,-47.00763 -28.20587,-59.2835 -20.14365,-9.10885 -44.25644,-6.42123 -64.2673,1.8143 -23.34608,9.92014 -42.03571,32.39172 -42.62527,58.44911 -1.50106,25.34183 -1.3147,55.79902 20.00591,73.51969 22.17395,17.44825 50.72275,26.41247 78.91939,24.83594 32.73833,1.48029 60.13521,-23.47379 74.39444,-50.94352 15.37433,-28.7376 18.09784,-63.94437 7.93752,-94.81676 -13.26328,-37.00775 -44.57622,-70.79003 -84.90222,-76.35659 -37.09385,-4.7734 -73.70595,9.56628 -104.5113,29.13411 -21.88479,15.21471 -36.901,38.48203 -44.97372,63.63882 -10.90162,26.88547 -12.11469,57.02408 -6.66635,85.28504 9.07287,33.62921 24.30082,68.27156 53.99905,88.58939 28.13839,20.7798 62.68099,34.41827 98.09647,32.0373 25.47151,-1.32797 51.3934,-7.15305 73.71205,-19.77639 40.98505,-25.58958 59.80568,-74.75537 64.53457,-120.9615 3.51335,-31.28428 4.2856,-63.60546 -6.04325,-93.79253 -13.17375,-45.0895 -36.79713,-89.34971 -76.07207,-116.83601 -22.05425,-16.11624 -49.06424,-25.66025 -76.53881,-24.69871 z"
       id="path21"
       transform="scale(0.26458333)" /></g></svg>
