<?xml version="1.0" encoding="UTF-8" standalone="no"?>
<!-- Created with Inkscape (http://www.inkscape.org/) -->

<svg
   width="210mm"
   height="297mm"
   viewBox="0 0 210 297"
   version="1.1"
   id="svg1"
   xml:space="preserve"
   inkscape:export-filename="bitmap.svg"
   inkscape:export-xdpi="8.5521889"
   inkscape:export-ydpi="8.5521889"
   sodipodi:docname="snail.svg"
   inkscape:version="1.4.2 (ebf0e940, 2025-05-08)"
   xmlns:inkscape="http://www.inkscape.org/namespaces/inkscape"
   xmlns:sodipodi="http://sodipodi.sourceforge.net/DTD/sodipodi-0.dtd"
   xmlns="http://www.w3.org/2000/svg"
   xmlns:svg="http://www.w3.org/2000/svg"><sodipodi:namedview
     id="namedview1"
     pagecolor="#ffffff"
     bordercolor="#999999"
     borderopacity="1"
     inkscape:showpageshadow="2"
     inkscape:pageopacity="0"
     inkscape:pagecheckerboard="0"
     inkscape:deskcolor="#d1d1d1"
     inkscape:document-units="mm"
     inkscape:zoom="10.644821"
     inkscape:cx="200.7549"
     inkscape:cy="343.07764"
     inkscape:window-width="1600"
     inkscape:window-height="847"
     inkscape:window-x="0"
     inkscape:window-y="25"
     inkscape:window-maximized="0"
     inkscape:current-layer="layer1"><inkscape:page
       x="0"
       y="0"
       width="210"
       height="297"
       id="page2"
       margin="0"
       bleed="0" /></sodipodi:namedview><defs
     id="defs1"><inkscape:path-effect
       effect="powerstroke"
       message=""
       id="path-effect19"
       is_visible="true"
       lpeversion="1.3"
       scale_width="1"
       interpolator_type="CubicBezierJohan"
       interpolator_beta="0.2"
       start_linecap_type="zerowidth"
       end_linecap_type="zerowidth"
       offset_points="0,0.56483903"
       linejoin_type="extrp_arc"
       miter_limit="4"
       not_jump="false"
       sort_points="true" /><inkscape:path-effect
       effect="bspline"
       id="path-effect18"
       is_visible="true"
       lpeversion="1.3"
       weight="33.333333"
       steps="2"
       helper_size="0"
       apply_no_weight="true"
       apply_with_weight="true"
       only_selected="false"
       uniform="false" /><inkscape:path-effect
       effect="powerstroke"
       message=""
       id="path-effect3"
       is_visible="true"
       lpeversion="1.3"
       scale_width="1"
       interpolator_type="CubicBezierJohan"
       interpolator_beta="0.2"
       start_linecap_type="zerowidth"
       end_linecap_type="zerowidth"
       offset_points="0,0.56483903"
       linejoin_type="extrp_arc"
       miter_limit="4"
       not_jump="false"
       sort_points="true" /><inkscape:path-effect
       effect="bspline"
       id="path-effect2"
       is_visible="true"
       lpeversion="1.3"
       weight="33.333333"
       steps="2"
       helper_size="0"
       apply_no_weight="true"
       apply_with_weight="true"
       only_selected="false"
       uniform="false" /><inkscape:path-effect
       effect="powerstroke"
       message=""
       id="path-effect16"
       is_visible="true"
       lpeversion="1.3"
       scale_width="1"
       interpolator_type="CubicBezierJohan"
       interpolator_beta="0.2"
       start_linecap_type="zerowidth"
       end_linecap_type="zerowidth"
       offset_points="0,0.56483903"
       linejoin_type="extrp_arc"
       miter_limit="4"
       not_jump="false"
       sort_points="true" /><inkscape:path-effect
       effect="bspline"
       id="path-effect15"
       is_visible="true"
       lpeversion="1.3"
       weight="33.333333"
       steps="2"
       helper_size="0"
       apply_no_weight="true"
       apply_with_weight="true"
       only_selected="false"
       uniform="false" /><inkscape:path-effect
       effect="powerstroke"
       message=""
       id="path-effect13"
       is_visible="true"
       lpeversion="1.3"
       scale_width="1"
       interpolator_type="CubicBezierJohan"
       interpolator_beta="0.2"
       start_linecap_type="zerowidth"
       end_linecap_type="zerowidth"
       offset_points="7.6539386e-16,0.56483903"
       linejoin_type="extrp_arc"
       miter_limit="4"
       not_jump="false"
       sort_points="true" /><inkscape:path-effect
       effect="bspline"
       id="path-effect12"
       is_visible="true"
       lpeversion="1.3"
       weight="33.333333"
       steps="2"
       helper_size="0"
       apply_no_weight="true"
       apply_with_weight="true"
       only_selected="false"
       uniform="false" /><inkscape:path-effect
       effect="fill_between_many"
       method="bsplinespiro"
       autoreverse="false"
       close="false"
       join="false"
       linkedpaths="#path12,0,1"
       id="path-effect14"
       is_visible="true"
       lpeversion="0" /><inkscape:path-effect
       effect="fill_between_many"
       method="bsplinespiro"
       autoreverse="false"
       close="false"
       join="false"
       linkedpaths="#path2,0,1"
       id="path-effect4" /><inkscape:path-effect
       effect="fill_between_many"
       method="bsplinespiro"
       autoreverse="false"
       close="false"
       join="false"
       linkedpaths="#path18,0,1"
       id="path-effect20" /></defs><g
     inkscape:label="Layer 1"
     inkscape:groupmode="layer"
     id="layer1"><g
       inkscape:groupmode="layer"
       id="layer2"
       inkscape:label="test"
       style="display:inline"><g
         id="g23"><path
           d="m 50.654344,146.89198 c -1.990193,0.35981 -3.789239,0.60717 -5.554568,0.52846 -1.765329,-0.0787 -3.496874,-0.48349 -4.598794,-1.09067 -1.101921,-0.60719 -1.57416,-1.41674 -1.630375,-3.09213 -0.05622,-1.67539 0.303585,-4.21648 1.16939,-6.74641 0.865805,-2.52994 2.237548,-5.04855 3.451914,-6.71968 1.214366,-1.67113 2.271248,-2.49466 2.912182,-2.9332 0.640935,-0.43853 0.865808,-0.49198 1.720364,-0.22635 0.854555,0.26562 2.338738,0.8503 3.710522,1.72734 1.371784,0.87705 2.631089,2.0464 3.969144,3.4969 1.338056,1.4505 2.754772,3.18204 3.541856,4.9811 0.787084,1.79907 0.944497,3.66554 0.449748,5.13852 -0.49475,1.47298 -1.641615,2.55238 -3.305755,3.32823 -1.664139,0.77584 -3.845435,1.24808 -5.835628,1.60789 z"
           id="path14"
           style="display:none;fill:#000000"
           inkscape:original-d="M 0,0"
           inkscape:path-effect="#path-effect14" /><path
           style="display:inline;fill:#000000;fill-rule:nonzero;stroke:none;stroke-width:0;stroke-linecap:round;stroke-linejoin:round;stroke-miterlimit:20;stroke-dashoffset:135.831"
           d="m 50.553855,146.33615 v 0 c -1.587989,0.28709 -3.548899,0.60384 -5.428919,0.52001 -0.810128,-0.0361 -1.652868,-0.14582 -2.443473,-0.33259 -0.731532,-0.17281 -1.397467,-0.40726 -1.907886,-0.68851 -0.240919,-0.13275 -0.437501,-0.27072 -0.598149,-0.42121 -0.155013,-0.14521 -0.281802,-0.30689 -0.38454,-0.49753 -0.10098,-0.18738 -0.183919,-0.41236 -0.244693,-0.69347 -0.0598,-0.27661 -0.09768,-0.60529 -0.111067,-1.00415 -0.02609,-0.7775 0.04208,-1.79008 0.231751,-2.94205 0.183551,-1.11479 0.480099,-2.35356 0.907529,-3.60254 0.418277,-1.22223 0.963057,-2.45714 1.561529,-3.60334 0.587503,-1.12518 1.219297,-2.15028 1.81291,-2.96717 0.584448,-0.80428 1.128778,-1.4023 1.602468,-1.85065 0.468941,-0.44385 0.868552,-0.74099 1.171733,-0.94843 0.155693,-0.10653 0.264279,-0.17431 0.353476,-0.21909 0.08341,-0.0419 0.139774,-0.0583 0.188064,-0.0652 0.04952,-0.007 0.117122,-0.008 0.226819,0.0104 0.114078,0.0192 0.26015,0.057 0.465391,0.12076 0.407442,0.12665 0.971451,0.33161 1.599285,0.61104 0.633502,0.28196 1.320496,0.63459 1.974638,1.05281 1.332809,0.85213 2.56088,1.99762 3.858233,3.40399 0.672155,0.72864 1.341548,1.5045 1.938386,2.31247 0.615372,0.83305 1.135305,1.67581 1.501156,2.51205 0.37841,0.86494 0.59167,1.72194 0.660315,2.51392 0.07214,0.83235 -0.01555,1.58427 -0.228526,2.21835 -0.224635,0.66879 -0.595561,1.2281 -1.076283,1.70396 -0.522742,0.51747 -1.18164,0.94203 -1.932701,1.29218 -0.832602,0.38817 -1.786728,0.68852 -2.698733,0.92516 -1.052225,0.27302 -2.136594,0.48298 -2.998713,0.63884 z m 0.200978,1.11166 c 0.870245,-0.15734 1.987677,-0.37323 3.081455,-0.65703 0.943559,-0.24482 1.971577,-0.56548 2.892353,-0.99476 0.83443,-0.38902 1.611486,-0.88104 2.250098,-1.5132 0.592936,-0.58694 1.066002,-1.29435 1.35243,-2.14711 0.268446,-0.79923 0.366888,-1.70892 0.283101,-2.6756 -0.07981,-0.92079 -0.32568,-1.89743 -0.750809,-2.86916 -0.409667,-0.93639 -0.979362,-1.8531 -1.62747,-2.73048 -0.629751,-0.85252 -1.328587,-1.66128 -2.016696,-2.40721 -1.325354,-1.43673 -2.629262,-2.66224 -4.080058,-3.5898 -0.711397,-0.45483 -1.45023,-0.83332 -2.123806,-1.13311 -0.667382,-0.29703 -1.272658,-0.51766 -1.723315,-0.65774 -0.221686,-0.0689 -0.424332,-0.12417 -0.612992,-0.15596 -0.192762,-0.0325 -0.381681,-0.0425 -0.575378,-0.0146 -0.194922,0.028 -0.368372,0.0906 -0.534026,0.17379 -0.160084,0.0804 -0.320086,0.18382 -0.484581,0.29637 -0.340802,0.23318 -0.789197,0.56702 -1.310378,1.06032 -0.525089,0.49699 -1.11522,1.14751 -1.739783,2.00699 -0.630794,0.86806 -1.29112,1.94145 -1.90043,3.1084 -0.620834,1.18903 -1.189785,2.47714 -1.628962,3.76044 -0.449041,1.31212 -0.760301,2.61214 -0.953377,3.78478 -0.198898,1.208 -0.275223,2.29623 -0.246124,3.16346 0.015,0.4472 0.0583,0.84585 0.135942,1.20498 0.07954,0.36793 0.195468,0.69577 0.354394,0.99068 0.163277,0.30298 0.366575,0.56111 0.606687,0.78605 0.244895,0.22941 0.52332,0.4198 0.825277,0.58618 0.628676,0.34642 1.399735,0.61104 2.193357,0.79852 0.865661,0.2045 1.777763,0.32271 2.652873,0.36173 2.020077,0.0901 4.09326,-0.25001 5.680218,-0.53691 z"
           id="path12"
           inkscape:linked-fill="path14"
           inkscape:original-d="m 50.463195,147.00442 c -1.799045,0.24736 -3.59809,0.49473 -5.397132,0.7421 -1.731616,-0.40479 -3.46316,-0.80957 -5.194742,-1.21435 -0.472257,-0.80959 -0.944499,-1.61914 -1.416748,-2.42871 0.359817,-2.54121 0.719619,-5.0823 1.079428,-7.62345 1.371799,-2.51872 2.743542,-5.03733 4.115314,-7.55599 1.056961,-0.8236 2.113846,-1.64713 3.170817,-2.47074 0.224886,-0.0535 0.449769,-0.10691 0.674639,-0.16036 1.484242,0.5847 2.968424,1.16938 4.452636,1.75407 1.259356,1.1694 2.518662,2.33875 3.777994,3.50813 1.416775,1.73162 2.833494,3.46316 4.250242,5.19474 0.15742,1.86655 0.314833,3.73302 0.47225,5.59953 -1.146916,1.07945 -2.293784,2.15885 -3.440673,3.23828 -2.181387,0.47226 -4.362683,0.9445 -6.544025,1.41675 z"
           inkscape:path-effect="#path-effect12;#path-effect13"
           sodipodi:nodetypes="cccccccccccccc" /><path
           d="m 43.581851,147.73258 c -0.292344,-1.1244 -0.584688,-3.51668 -0.416023,-5.07962 0.168665,-1.56294 0.798319,-3.56434 1.731586,-4.94736 0.933267,-1.38303 2.170082,-2.1476 3.485649,-2.36124 1.315567,-0.21363 2.709798,0.12368 3.822967,0.71962 1.113168,0.59595 1.94521,1.45048 2.676077,2.49618 0.730867,1.04571 1.36052,2.28253 1.754061,3.1933 0.393541,0.91077 0.741136,2.69993 0.898552,3.28462"
           id="path17"
           style="fill:#000000"
           sodipodi:nodetypes="cssssssc" /><path
           style="fill:#000000;fill-rule:nonzero;stroke:none;stroke-width:0;stroke-linecap:round;stroke-linejoin:round;stroke-miterlimit:20;stroke-dashoffset:135.831"
           d="m 43.310703,146.95277 c 0,0 0.558011,-0.0876 0.558011,-0.0876 -0.07698,-0.49058 -0.202175,-1.22786 -0.261425,-1.92671 -0.0505,-0.59568 -0.06983,-1.30392 0.02522,-2.13762 0.08513,-0.74667 0.267295,-1.63305 0.556608,-2.52491 0.267824,-0.82562 0.625694,-1.6499 1.064959,-2.3297 0.416402,-0.64441 0.906651,-1.15892 1.453807,-1.54102 0.530139,-0.37022 1.11285,-0.6154 1.728509,-0.73246 0.608151,-0.11563 1.247806,-0.10583 1.877974,0.005 0.629523,0.1103 1.238551,0.31912 1.78211,0.59123 0.550337,0.27551 1.031192,0.61486 1.464874,1.0068 0.447285,0.40424 0.843828,0.86396 1.210457,1.36184 0.384958,0.52277 0.736903,1.08759 1.035151,1.61249 0.322484,0.56756 0.589014,1.10018 0.784545,1.52302 0.22107,0.47806 0.366328,0.84811 0.47227,1.14796 0.127758,0.3616 0.218121,0.68021 0.280762,0.91288 -0.05337,-0.19824 -0.151222,-0.5884 -0.250516,-0.9227 -0.0905,-0.3047 -0.215677,-0.68612 -0.413195,-1.17674 -0.175298,-0.43542 -0.417495,-0.98153 -0.716521,-1.56908 -0.275952,-0.54221 -0.605808,-1.13022 -0.971905,-1.682 -0.348462,-0.52521 -0.733505,-1.02333 -1.178893,-1.47167 -0.432884,-0.43575 -0.923553,-0.82542 -1.49793,-1.15205 -0.565487,-0.32158 -1.209735,-0.58076 -1.889058,-0.73558 -0.679261,-0.1548 -1.393755,-0.20518 -2.096792,-0.10785 -0.71507,0.099 -1.406178,0.34902 -2.043864,0.75173 -0.657957,0.41552 -1.2462,0.98529 -1.745116,1.69726 -0.521115,0.74364 -0.938758,1.63268 -1.251377,2.50306 -0.339715,0.94582 -0.563206,1.88867 -0.680612,2.69975 -0.132443,0.91495 -0.134949,1.69561 -0.09657,2.34874 0.04541,0.77282 0.162953,1.52962 0.240506,2.02386 z"
           id="path15"
           inkscape:linked-fill="path17"
           inkscape:original-d="m 43.310703,146.95277 c -0.201962,-1.28709 -0.403924,-2.57418 -0.605887,-3.86128 0.629679,-2.00147 1.259332,-4.00287 1.888998,-6.00431 1.236866,-0.76461 2.473685,-1.52918 3.710527,-2.29378 1.394288,0.33733 2.78852,0.67464 4.182779,1.01196 0.832075,0.85457 1.664116,1.7091 2.496175,2.56364 0.629679,1.23687 1.259332,2.47369 1.888995,3.71053 0.157422,0.5847 0.314833,1.16938 0.472249,1.75407"
           inkscape:path-effect="#path-effect15;#path-effect16"
           sodipodi:nodetypes="cccccccc" /></g></g><path
       id="path1"
       style="fill:#050905;stroke:none;stroke-opacity:1"
       d="m 191.05087,52.209733 c -2.86126,1.268098 -5.5768,2.769072 -8.55142,3.780648 -5.65591,1.923397 -11.64773,2.803529 -17.18706,5.077209 -9.75833,4.00542 -18.54933,12.768461 -19.28719,23.738603 -0.51818,7.704108 2.91308,14.850462 7.58765,20.743437 0.75538,0.95227 1.47986,1.98708 2.47065,2.70733 0.63246,0.45975 1.8428,0.86006 2.23293,1.54926 0.32843,0.58016 0.11363,1.53302 0.14935,2.17816 0.0735,1.32759 0.32388,2.68055 0.601,3.97908 0.87208,4.08641 2.36515,7.96974 4.08243,11.7688 3.63387,8.03908 8.51567,15.50355 11.95948,23.62181 2.14273,5.05116 3.59147,10.45934 4.19199,15.91737 0.80334,7.30141 -0.15962,15.22843 -4.72116,21.25142 -4.26294,5.62871 -12.02458,8.08279 -18.74976,6.16862 -0.4761,-0.1355 -1.07978,-0.21802 -1.48311,-0.52039 -0.33095,-0.24811 -0.74444,-0.44791 -1.05761,-0.71183 -0.42817,-0.36084 -0.7168,-0.6577 -1.12262,-1.06378 -0.33488,-0.33509 -0.8709,-1.22475 -1.39578,-1.13739 -0.46791,0.0779 -0.57674,0.79065 -0.68523,1.15962 -0.3019,1.02676 -0.47673,2.48536 -1.30173,3.2334 -2.5918,2.35008 -6.3292,3.7959 -9.63352,4.77128 -5.08158,1.50001 -10.5987,1.65705 -15.83262,1.08211 -1.86048,-0.20437 -3.86727,-0.40576 -5.67097,-0.91519 -1.00214,-0.28305 -1.68613,-1.75402 -2.19935,-2.58382 -0.22567,-0.36488 -0.49867,-1.08004 -1.01751,-1.08004 -0.58316,0 -0.98556,0.92188 -1.2485,1.33428 -0.78045,1.22405 -1.41744,2.39001 -2.73317,3.10111 -4.36643,2.35988 -9.2968,3.67033 -14.223939,4.1491 -6.046194,0.58754 -12.155305,-0.0327 -17.864543,-2.16525 -1.389533,-0.51902 -3.450209,-1.03989 -4.487065,-2.14147 -0.520992,-0.55353 -1.08352,-1.07772 -1.559077,-1.67173 -0.196464,-0.24539 -0.434542,-0.65673 -0.802535,-0.62787 -0.410083,0.0322 -0.692542,0.6801 -0.914673,0.9648 -0.723754,0.9276 -1.350657,1.91963 -2.312521,2.62258 -6.143433,4.48972 -14.684566,6.33311 -22.182108,6.02082 -2.663334,-0.11092 -5.328897,-0.40684 -7.873938,-1.25005 -1.464528,-0.48522 -2.892521,-1.13953 -4.148584,-2.04226 -0.689686,-0.49566 -1.245865,-1.31192 -2.031918,-1.65002 -0.904069,-0.38887 -1.931555,0.29709 -1.859834,1.29397 0.06186,0.85983 0.909582,1.54457 1.520837,2.05724 1.724817,1.44665 3.797071,2.37313 5.92677,3.0484 8.068968,2.55846 17.722561,1.51188 25.484749,-1.62626 3.262917,-1.31916 6.350461,-3.1676 9.990605,-3.20601 1.127306,-0.0119 2.547767,0.0796 3.640605,0.36587 0.533006,0.13961 1.006549,0.44173 1.523938,0.62735 1.301264,0.46691 2.634971,0.85593 3.979602,1.17616 4.071592,0.96963 8.277201,1.22759 12.445752,0.92759 4.314218,-0.31047 8.554227,-1.28703 12.615247,-2.75539 2.02131,-0.73087 3.9758,-2.18071 6.09627,-2.54506 2.92116,-0.50194 5.85487,0.5844 8.7204,1.01803 3.89099,0.58884 7.86059,0.65744 11.76879,0.216 3.72047,-0.42022 7.46526,-1.35124 10.83758,-3.00912 1.09683,-0.53921 2.18078,-1.10427 3.21738,-1.75338 1.1602,-0.72651 2.38008,-1.59557 3.72483,-1.93011 2.81956,-0.70145 5.56549,0.57525 8.38244,0.69246 4.78424,0.19904 10.26668,-1.82255 13.88494,-4.90461 7.4633,-6.35728 9.10434,-17.28092 7.97419,-26.49916 -0.64273,-5.24253 -1.92187,-10.51111 -3.91397,-15.40939 -2.31294,-5.68709 -5.47469,-10.99662 -8.31939,-16.42535 -4.02887,-7.68857 -8.59146,-16.22146 -8.60981,-25.14576 3.72089,-0.0874 7.49583,-1.08773 11.00656,-2.25774 11.95151,-3.98312 22.74241,-12.851288 24.56439,-25.936402 0.93396,-6.707414 -1.54244,-12.937856 -3.23546,-19.304248 -0.87864,-3.304005 -1.15102,-6.880861 -2.36368,-10.074837 z M 20.950659,75.023844 c -0.183227,0.0044 -0.349094,0.06434 -0.38654,0.261483 -0.0662,0.348527 0.187895,0.81347 0.293006,1.138949 0.291409,0.902332 0.654102,1.78201 0.865063,2.709395 1.10477,4.856531 2.693862,10.459207 7.954037,12.351184 1.436313,0.51662 3.052799,0.70437 4.571814,0.564307 0.987659,-0.09108 2.46008,-0.488343 3.296439,0.178283 0.807884,0.64393 1.323971,1.72403 1.722376,2.654102 0.59703,1.393776 1.0546,2.842866 1.403015,4.318083 0.229135,0.97017 0.314093,1.94744 0.690397,2.87838 -1.898607,1.03734 -3.389624,2.86868 -4.55011,4.65656 -2.846953,4.38609 -4.028201,9.85439 -4.603336,14.98617 -0.947935,8.45817 -0.53612,16.94341 0.241845,25.4 0.875593,9.5178 2.240775,18.97452 3.487126,28.44787 0.82822,6.29519 1.605215,12.65281 2.850472,18.88102 0.289238,1.44664 0.555835,2.91404 1.020093,4.31757 0.192425,0.58174 0.59226,1.21957 1.299662,1.13274 0.69883,-0.0858 0.971142,-0.76257 0.89917,-1.38648 -0.188645,-1.63532 -0.758644,-3.27739 -1.033012,-4.91081 -1.143085,-6.80524 -2.131601,-13.64539 -3.014803,-20.48919 -1.996971,-15.47426 -4.691151,-31.17343 -3.804936,-46.82039 0.385643,-6.80891 1.396711,-14.8237 6.06578,-20.15071 0.675003,-0.77013 1.463659,-1.48643 2.327506,-2.04019 0.686751,-0.44024 1.414216,-0.82513 2.201416,-1.04955 4.204364,-1.19865 8.100421,1.51622 10.920781,4.35943 5.791522,5.83846 8.316676,13.89387 9.889836,21.75939 0.310896,1.55443 0.656352,3.10177 0.965315,4.65657 0.187813,0.94514 0.458427,1.91758 0.289905,2.87889 -2.06453,11.77692 -1.294113,23.83072 3.788399,34.79788 1.095649,2.36422 2.40033,4.65057 3.912423,6.77323 1.018,1.42906 2.318598,2.72976 3.083533,4.31808 -1.404219,0.73578 -3.111567,2.0128 -4.208012,3.16053 -0.543605,0.56903 -0.393609,1.59673 0.567924,1.44074 0.484838,-0.0787 0.892251,-0.47256 1.26969,-0.75809 0.706939,-0.53479 1.407918,-1.07739 2.116666,-1.60972 0.354769,-0.26646 0.937689,-0.8885 1.42782,-0.6687 0.606448,0.27197 1.130825,1.12356 1.615922,1.57923 0.184139,0.17297 0.453306,0.39163 0.397909,0.67748 -0.140399,0.72445 -2.04986,1.55203 -1.018543,2.43603 0.993356,0.85148 1.940801,-1.21821 2.826184,-1.33945 0.859555,-0.11771 2.005284,0.87855 2.794145,1.17822 -0.33106,0.38848 -0.792061,0.82651 -0.874882,1.3534 -0.09594,0.61033 0.470173,1.04877 1.04128,0.82218 0.665236,-0.26395 0.911196,-1.17179 1.614372,-1.34256 0.835546,-0.20291 2.006513,0.31904 2.875793,0.35192 -0.259679,0.62558 -0.163204,1.80521 0.841293,1.41232 0.487526,-0.19069 0.658584,-0.76741 1.128096,-0.971 0.448685,-0.19455 0.956469,0.0684 1.404049,-0.1726 0.930052,-0.50071 0.234395,-1.37593 -0.49506,-1.53841 -0.0114,-0.16993 -0.01491,-0.34177 -0.07648,-0.50333 -0.470897,-1.23576 -1.471239,0.148 -2.129069,0.20206 -0.770108,0.0633 -1.700569,-0.21161 -2.451014,-0.37621 0.349684,-0.44802 0.912125,-0.9453 1.024227,-1.5229 0.107094,-0.5518 -0.382596,-1.04374 -0.936893,-0.90176 -0.853819,0.21869 -1.067837,1.38276 -1.872754,1.6459 -0.448149,0.14652 -1.065154,-0.23553 -1.431437,-0.46199 -0.219077,-0.13544 -0.4605,-0.29277 -0.618567,-0.50023 -0.215972,-0.28346 -0.08526,-0.53338 0.131258,-0.76894 0.481868,-0.52425 1.298592,-1.00386 1.506368,-1.7229 0.291367,-1.00832 -0.855141,-1.09205 -1.442806,-0.6413 -0.236399,0.18132 -0.456386,0.38656 -0.676962,0.58653 -0.365812,0.33164 -0.714194,0.6775 -1.100708,0.98547 l -1.947684,-2.45515 v -0.0847 c 1.119032,-0.7478 2.276672,-1.57222 3.279903,-2.47065 0.398637,-0.357 0.728911,-0.98335 0.223759,-1.41645 -0.376995,-0.32321 -0.848641,-0.14764 -1.217497,0.0863 -0.829298,0.52595 -1.590373,1.18168 -2.370915,1.77612 -0.420708,0.32039 -0.89794,0.77136 -1.408699,0.36845 -1.42997,-1.12802 -2.556103,-2.77067 -3.557923,-4.27054 -2.134909,-3.19627 -3.863583,-6.68062 -5.08031,-10.32908 -2.426761,-7.27683 -3.355175,-15.0463 -2.622579,-22.69061 0.241619,-2.52117 0.780035,-4.90109 1.28416,-7.36596 0.965434,-4.7204 2.218138,-9.43312 4.299479,-13.80071 3.081476,-6.46631 7.724056,-11.91848 13.182141,-16.5163 4.948866,-4.16886 10.317185,-8.085502 16.425355,-10.36836 3.65162,-1.364754 7.52041,-2.287179 11.42979,-2.405538 14.39757,-0.43586 26.02324,10.039138 32.56752,22.008478 2.91462,5.33079 5.13991,11.19999 6.21513,17.18758 0.98469,5.48348 1.0185,11.14096 0.60358,16.67908 -0.46641,6.22539 -1.58492,12.35083 -3.80029,18.20354 -1.19419,3.15491 -3.09676,5.8855 -5.34799,8.38192 -4.1439,4.59523 -9.73874,8.35804 -15.75976,9.97459 -2.19878,0.59034 -4.59145,0.77307 -6.85798,0.87023 -5.94055,0.25466 -11.82628,-0.68737 -17.35657,-2.90318 -3.84532,-1.54068 -7.540154,-3.69978 -10.668077,-6.42338 -1.054768,-0.91843 -2.580431,-2.06615 -3.132625,-3.38068 -2.076483,-2.06232 -3.047891,-4.59817 -4.396114,-7.11222 -4.722497,-8.80611 -5.177622,-19.06964 -2.442228,-28.53263 0.912533,-3.15688 1.920414,-6.30868 3.765661,-9.05939 4.623025,-6.89153 11.383086,-11.4067 19.159033,-13.99812 4.81255,-1.60384 10.13925,-2.49265 15.15567,-1.33325 11.88632,2.74716 20.25592,15.24449 20.14295,27.18491 -0.0514,5.43297 -1.78657,10.66501 -4.68757,15.23989 -2.3815,3.75564 -5.55397,6.92121 -9.69811,8.65839 -6.02634,2.52618 -13.17363,1.27961 -18.96525,-1.30225 -2.82882,-1.26106 -5.52768,-3.03895 -7.36338,-5.57795 -2.517476,-3.48199 -2.903095,-8.12229 -2.719726,-12.27677 0.104976,-2.37829 0.470101,-4.83383 1.441256,-7.02748 2.63394,-5.94959 9.86007,-9.90371 16.26154,-9.90586 3.467,-0.001 7.20713,1.30403 9.08885,4.40232 2.30274,3.79152 3.96133,9.19182 2.04432,13.46223 -2.06565,4.60155 -9.67396,6.87313 -13.49065,3.11454 -2.15058,-2.11784 -2.56083,-5.90288 -0.60565,-8.2765 1.15645,-1.40397 4.21904,-3.26933 5.8074,-1.51671 0.84613,0.93364 1.27664,3.76919 -0.55811,3.95377 -0.87517,0.088 -1.46754,-0.86975 -2.36729,-0.69815 -0.71089,0.13559 -1.0046,0.9403 -0.68782,1.55546 0.94189,1.829 3.87594,1.90208 5.25085,0.65577 2.33358,-2.1153 1.57962,-6.78323 -1.26453,-8.10234 -2.37731,-1.10259 -5.52671,0.0926 -7.36544,1.72289 -3.97735,3.52645 -3.02519,10.6843 1.26969,13.52837 4.3058,2.8513 11.05072,1.63226 14.4446,-2.12855 4.0468,-4.48429 3.03791,-11.12773 0.69556,-16.17007 -0.93363,-2.00979 -2.12794,-3.94393 -3.87986,-5.34955 -1.86824,-1.49894 -4.64013,-2.36213 -7.02697,-2.43499 -7.71008,-0.23538 -16.48895,3.41692 -19.865449,10.74818 -1.785535,3.87687 -1.912162,8.42322 -1.650545,12.61422 0.270764,4.3375 1.196251,8.74568 4.498434,11.83752 2.54511,2.383 5.6429,3.92758 8.88938,5.11235 5.94407,2.16922 12.94381,2.99229 18.96525,0.67386 4.39121,-1.69075 7.77053,-4.96074 10.35699,-8.81755 4.37621,-6.52558 6.46815,-14.53596 5.24051,-22.35161 -1.58314,-10.07897 -8.71701,-20.23412 -18.47588,-23.80216 -7.97691,-2.91651 -16.39897,-1.06817 -23.96081,2.18798 -3.495344,1.50511 -6.87007,3.29472 -9.821622,5.72006 -2.928146,2.40611 -5.505819,5.41791 -7.12618,8.86664 -1.992023,4.23977 -3.775408,8.65855 -4.586283,13.29273 -1.69169,9.66804 0.460282,19.14872 5.265312,27.60142 0.714328,1.25661 1.360201,2.54038 2.195215,3.72535 2.1906,3.10871 5.288007,5.62319 8.401037,7.76232 7.005521,4.81387 15.139761,7.64779 23.706561,7.38818 3.02034,-0.0915 5.95727,-0.64995 8.8899,-1.3379 5.22163,-1.22494 9.91463,-2.94641 14.05444,-6.48746 5.68436,-4.86221 8.98452,-11.46907 11.13627,-18.5012 0.73079,-2.38829 1.43312,-4.79689 1.77198,-7.28173 0.12658,-0.92812 0.0798,-1.8641 0.16123,-2.79362 0.21679,-2.4734 0.54217,-4.97023 0.63924,-7.45071 0.0557,-1.42469 -0.077,-2.88669 -0.077,-4.31808 0,-1.56007 0.1339,-3.19038 -0.0413,-4.74132 -0.25455,-2.25119 -0.98094,-4.42687 -1.54202,-6.60425 -1.78197,-6.91541 -4.44798,-13.51403 -8.28477,-19.55797 -6.68613,-10.532384 -18.54119,-19.490142 -31.53399,-19.129586 -11.17361,0.31008 -20.970275,5.66113 -29.294852,12.803866 -4.360313,3.74129 -8.370678,7.97836 -11.453048,12.84521 -1.360377,2.14794 -2.343889,4.3179 -3.414779,6.60425 -0.441131,0.94181 -1.00507,1.81655 -1.373559,2.79363 -0.592631,1.57142 -0.473413,3.51318 -1.453658,4.91081 -0.277575,-3.02801 -1.295591,-5.95845 -2.283582,-8.80515 -0.629466,-1.81368 -1.160104,-3.70771 -1.934765,-5.4653 -1.095695,-2.48598 -2.577021,-4.87777 -4.17959,-7.06571 -1.516259,-2.07009 -3.267372,-3.97672 -5.318022,-5.52731 -0.576973,-0.43627 -2.25579,-1.10968 -2.236556,-1.9296 0.0542,-2.310716 1.033968,-5.056603 2.046904,-7.105512 0.346961,-0.701807 0.797088,-1.762332 1.555977,-2.103231 1.202738,-0.540267 3.098214,-0.158564 4.390946,-0.185518 2.154613,-0.04494 4.235767,-0.675225 5.92677,-2.035018 2.290186,-1.841624 3.783857,-4.492047 4.617806,-7.275525 0.376127,-1.255407 0.538035,-2.547174 0.868681,-3.810104 0.348713,-1.331929 0.914228,-2.587128 1.286743,-3.894852 -1.593164,-0.260056 -3.446874,0.944086 -4.99556,1.296561 -1.759288,0.400409 -3.553772,0.504611 -5.249292,1.172022 -3.173801,1.24933 -5.228684,4.161916 -6.372738,7.26829 -0.427116,1.159722 -0.729154,2.337841 -0.93741,3.555855 -0.115905,0.677891 -0.08822,1.475651 -0.361735,2.112016 -0.212778,0.495039 -0.663236,0.858759 -0.991154,1.275374 -0.43172,0.548494 -0.784547,1.152737 -1.093474,1.777153 -1.204066,2.433671 -1.698474,5.062085 -2.181262,7.704959 -2.967803,-0.98121 -5.440993,-0.96201 -8.381917,0.0847 -0.656414,-2.496483 -0.973421,-4.973653 -2.034501,-7.365962 -0.34488,-0.777565 -0.783805,-1.521292 -1.294495,-2.201416 -0.378558,-0.504155 -0.875391,-0.997315 -1.074353,-1.608688 -0.356066,-1.094114 -0.353539,-2.346109 -0.63717,-3.471622 -0.744913,-2.956015 -2.270557,-6.08395 -4.781104,-7.914763 -2.774502,-2.023319 -6.10803,-1.826617 -9.228377,-2.89543 -0.731016,-0.250404 -1.447633,-0.602114 -2.201416,-0.777731 -0.09351,-0.02178 -0.221797,-0.04907 -0.349333,-0.05581 -0.02657,-0.0014 -0.05292,-0.0017 -0.07906,-0.001 z m 27.546122,36.814806 c -0.138293,-0.009 -0.287223,0.002 -0.447517,0.0362 -1.043978,0.22341 -1.314259,1.30899 -1.449524,2.22622 -0.304785,2.06671 -0.150638,4.25756 0.428914,6.26525 0.263704,0.91353 0.939984,2.31367 2.120801,2.02985 0.952092,-0.22885 1.277544,-1.35579 1.422652,-2.19935 0.353627,-2.05577 0.20929,-4.3502 -0.387573,-6.35 -0.26702,-0.89465 -0.719702,-1.9437 -1.687753,-2.00815 z m -6.940661,0.66404 c -0.141989,0.001 -0.291813,0.0265 -0.449068,0.0806 -0.893214,0.30725 -1.199268,1.36193 -1.338937,2.1947 -0.335054,1.99777 -0.165539,4.35116 0.496611,6.26525 0.32002,0.92508 1.068775,2.32354 2.280481,1.93011 0.891538,-0.28947 1.236077,-1.35539 1.381311,-2.18384 0.354865,-2.02424 0.174408,-4.31623 -0.471806,-6.26525 -0.282599,-0.85234 -0.904667,-2.0303 -1.898592,-2.02159 z m 10.517704,8.47235 c -0.05336,0.003 -0.116333,0.0198 -0.190169,0.0548 -0.301005,0.14246 -0.458319,0.52635 -0.662492,0.77101 -0.296974,0.35587 -0.724421,0.62449 -0.965833,1.02371 -0.18325,0.30304 -0.08427,0.72062 0.341582,0.60462 0.651294,-0.17742 1.364371,-0.94586 1.638659,-1.53944 0.115729,-0.25044 0.21175,-0.9348 -0.161747,-0.91468 z m -12.186853,1.44953 c -0.04962,-8.4e-4 -0.101586,0.0123 -0.155029,0.0444 -0.398413,0.23959 -0.08868,0.91796 0.08268,1.19838 0.395668,0.6475 1.612769,1.62532 2.428792,1.10846 0.196735,-0.12461 0.281459,-0.38638 0.104387,-0.56793 -0.230905,-0.23675 -0.695002,-0.20288 -0.98702,-0.339 -0.515835,-0.24046 -0.764796,-0.65419 -1.05575,-1.11362 -0.09172,-0.14482 -0.24084,-0.32773 -0.418062,-0.33073 z m 8.472351,12.61422 c -0.751971,0.012 -1.510058,0.53088 -2.20555,0.90123 0.655418,0.3745 0.75199,1.41753 -0.363802,2.33939 -0.192546,0.15909 -0.385742,0.31742 -0.576192,0.47905 -0.0089,0.21683 -0.04878,0.45555 -0.126091,0.71416 -0.191787,0.64152 -0.374638,1.28703 -0.49661,1.94614 -0.05776,0.37033 -0.123942,0.743 -0.113172,1.11931 0.02008,0.70166 -0.170001,1.20199 -0.452685,1.50068 0.0066,0.0829 0.01503,0.16551 0.02584,0.24805 0.837612,-0.13697 1.712785,-0.19565 2.533179,-0.21601 0.144132,-0.004 0.288345,-0.004 0.432531,-0.004 0.02231,-0.006 0.04487,-0.0114 0.06718,-0.0171 0.460861,-0.12674 0.984307,-0.26591 1.440739,-0.4098 0.978839,-0.30857 1.94057,-0.67581 2.865458,-1.12138 0.206621,-0.1076 0.416983,-0.20894 0.620117,-0.32298 0.76775,-0.43103 1.482787,-0.95189 2.142505,-1.53375 0.18689,-0.22398 0.399043,-0.45821 0.476973,-0.74621 0.03264,-0.16066 0.02073,-0.0623 -0.02015,-0.3452 -0.05878,-0.40673 -0.139136,-0.80962 -0.212391,-1.21388 -0.394865,0.12696 -0.812425,0.16258 -1.228348,0.0904 -0.464363,-0.0805 -0.613148,-0.18081 -1.03818,-0.37362 -0.0028,-0.002 -0.0055,-0.003 -0.0083,-0.005 -0.0098,0.0208 -0.01934,0.042 -0.02842,0.0636 -0.09875,0.23353 -0.08916,0.20208 -0.174666,0.43977 -0.02711,0.0753 -0.07018,0.20127 -0.0956,0.28577 -0.0064,0.0211 -0.0076,0.0442 -0.01705,0.0641 l -5.17e-4,5.1e-4 v 5.2e-4 l -5.17e-4,5.2e-4 -5.16e-4,5.1e-4 h -5.17e-4 v -5.1e-4 c -2.55e-4,-0.005 0.005,-0.0286 0.0062,-0.0382 v -5.2e-4 c 0.294893,-2.42652 -2.893209,2.05347 -2.444295,-0.34933 0.08768,-0.46927 0.267203,-0.91571 0.449068,-1.35496 0.09366,-0.21487 0.205445,-0.42009 0.336414,-0.61185 -0.08769,-0.0766 -0.175065,-0.15328 -0.263034,-0.22944 -0.26501,-0.21788 -0.514186,-0.46486 -0.820621,-0.62529 -0.06873,-0.0291 -0.147082,-0.0561 -0.223242,-0.0491 -0.02116,-5.6e-4 -0.03259,-0.004 -0.03669,-0.004 h -5.16e-4 -5.17e-4 -5.17e-4 -5.17e-4 v 5.1e-4 h 5.17e-4 v 5.2e-4 c 5.68e-4,9.9e-4 0.0018,0.003 0.0036,0.005 0.247296,0.32325 0.343234,0.47056 0.342615,0.49144 v 5.2e-4 l -5.17e-4,5.1e-4 v 5.2e-4 h -5.16e-4 l -5.17e-4,5.2e-4 h -5.17e-4 l -5.17e-4,-5.2e-4 c -0.0412,-0.0102 -0.45981,-0.5237 -0.791166,-1.12034 z m 5.48752,2.60604 c 0.01987,0.0105 0.04037,0.0197 0.06046,0.0294 0.0089,0.005 0.01924,0.008 0.02894,0.006 h 5.16e-4 5.17e-4 v -5.2e-4 -5.2e-4 -5.1e-4 -5.2e-4 c -10e-4,-0.002 -0.0036,-0.004 -0.0052,-0.006 -2.08e-4,-2.8e-4 -9.01e-4,-0.001 -10e-4,-0.002 -0.02022,-0.007 -0.04023,-0.0142 -0.06046,-0.0212 -0.0079,-10e-4 -0.01582,-0.003 -0.02377,-0.004 z M 168.38714,174.6219 c -0.0383,2.6e-4 -0.0757,0.002 -0.11162,0.006 -2.12319,0.20182 -1.95516,3.4164 -1.22887,4.75113 1.23313,2.26618 5.70527,3.26344 4.95009,6.43475 -0.0853,0.35811 -0.23693,0.69696 -0.41858,1.01596 -0.37451,0.6577 -0.88754,1.19789 -1.36529,1.77819 -0.34259,0.41613 -0.80844,1.55746 0.18241,1.5446 0.62837,-0.008 1.13642,-0.76674 1.48105,-1.20612 1.03229,-1.31607 1.92542,-2.92282 1.57975,-4.65657 -0.34109,-1.7107 -1.71308,-2.83989 -3.0639,-3.79666 -0.9617,-0.68115 -2.16182,-1.45286 -2.33784,-2.72284 -0.0592,-0.42722 -0.087,-1.19112 0.32556,-1.46709 0.41671,-0.27869 1.14621,0.0579 1.26711,-0.66042 0.11362,-0.67517 -0.686,-1.02455 -1.25987,-1.02061 z m -4.45709,2.01486 c -0.10783,0.003 -0.22465,0.0385 -0.35089,0.11369 -0.66055,0.39349 -0.24369,1.52992 -0.16898,2.12029 0.21095,1.66681 0.5313,3.9592 -0.0605,5.57692 -0.21359,0.58401 -0.95953,0.86868 -1.4242,1.22473 -0.75998,0.58233 -1.40017,1.3136 -1.82987,2.17299 -0.49055,0.9811 -0.9058,2.95085 0.47853,3.4339 0.64621,0.22549 1.30347,-0.14661 1.76578,-0.57878 0.96166,-0.89896 1.52471,-2.22015 1.92702,-3.44785 0.15242,-0.46511 0.21989,-1.09805 0.59324,-1.44642 0.46702,-0.43578 1.61934,-0.66529 2.20814,-0.39326 0.47197,0.21805 0.7991,1.02649 1.42265,0.6103 0.7179,-0.47917 0.14087,-1.44371 -0.38861,-1.78852 -0.91097,-0.59325 -2.14783,-0.37636 -3.12901,-0.11472 0.11308,-2.06262 -0.0315,-4.04057 -0.12609,-6.09575 -0.023,-0.49982 -0.33501,-1.40575 -0.91725,-1.38752 z m -1.07332,10.19266 c -0.35964,1.06303 -0.81292,2.30841 -1.77767,2.96365 0.0514,-1.21894 0.75654,-2.30921 1.77767,-2.96365 z m -6.09576,65.78617 c -0.40989,1.34879 -0.67745,2.56364 -0.67747,3.97908 h 0.0848 c 0.19184,-1.23393 0.78238,-2.73397 0.59272,-3.97908 z"
       sodipodi:nodetypes="cssssssssssssssssssssssssssssssssssssssssssscssssssssssssssccssccsssssssscssssssssssssscsssssscscssssssscssscsscccscssssssssscccsssssssssssscssssssssscsssssssssssscssssscssssssssssssssssssssssssssssssccscssssssscssssssssssscsssssssccssssssssccscsssssssscsssssssscssssssccsssssccccscscscccccscsccscccccscccccccsccscccccsccccccccsccccccccccccccccccsccccccsssscssssssccccscssssssssscscccccsccss" /><path
       style="fill:#008000;stroke:#000000;stroke-width:2.79537946;stroke-linecap:round;stroke-linejoin:round;stroke-miterlimit:20;stroke-dashoffset:135.831;stroke-dasharray:none"
       d="m 535.60352,1.6875 c -11.64822,4.683262 -22.82255,10.79583 -35.09486,13.990047 -26.82138,7.71553 -55.66271,13.153633 -77.77624,31.451359 -23.33774,17.340815 -39.51623,46.141627 -36.03711,75.755864 2.40833,23.35975 14.6608,44.75811 29.97852,62.0957 3.73941,4.48433 12.04448,6.1654 11.14062,13.43359 1.0414,23.55513 11.56152,45.40603 21.31024,66.45588 19.27056,38.15575 44.28365,75.79963 47.61164,119.55779 1.69675,20.8462 0.71477,42.83474 -9.97308,61.37092 -12.72721,24.65973 -44.88621,37.71973 -70.84333,27.34783 -5.27156,-2.29737 -8.61506,-8.15257 -14.0293,-9.7832 -3.28174,6.63709 -4.49021,15.20163 -11.92578,18.85352 -19.15358,11.47958 -41.68924,16.9586 -63.99777,15.47467 -11.42312,-0.78655 -23.53142,-0.10673 -34.34207,-4.16217 -4.22955,-2.95937 -5.22206,-9.58888 -10.05469,-11.50391 -5.21617,2.80481 -6.40628,10.11623 -11.58593,13.33008 -11.01775,7.5157 -24.3847,10.82919 -37.27149,13.62695 -16.643,1.83299 -33.68759,2.11808 -50.30859,-0.0273 -11.27819,-2.68611 -22.99725,-5.46797 -33.07032,-11.3457 -3.73711,-2.4506 -6.34497,-7.52621 -10.63281,-8.65626 -5.3186,5.71346 -10.08202,12.21904 -17.25195,15.89063 -26.702379,15.27621 -59.570474,19.34827 -89.404298,12.2793 -8.686056,-1.8609 -16.088933,-6.73625 -22.9433595,-12.1211 -4.2545219,-3.55571 -10.2629669,2.79798 -6.5585937,6.7461 11.6811782,12.92687 29.9270222,17.35948 46.6503902,19.00976 25.660434,1.91416 51.254281,-4.1947 74.455081,-14.93945 12.53658,-6.16883 27.5364,-7.08068 40.35547,-1.17774 35.56866,11.3822 75.34816,6.84161 108.5957,-9.57226 15.52912,-6.16516 31.39295,2.99121 47.26153,2.31909 20.90765,1.37304 42.42077,-0.65677 61.50214,-9.86401 11.55168,-4.6509 21.75051,-15.32812 35.16406,-12.71875 13.42742,2.58411 27.54607,3.57313 40.56055,-1.49219 23.68605,-7.33956 40.75106,-28.70694 46.68159,-52.27941 8.19223,-29.27599 2.59087,-60.20751 -6.05854,-88.68934 -14.022,-39.90759 -39.8378,-74.50959 -53.74414,-114.45703 -3.71229,-11.14079 -6.078,-22.70937 -6.76563,-34.43945 30.19573,-2.36645 59.80351,-14.1806 83.26953,-33.34961 24.24344,-20.06928 40.68493,-52.49887 34.50977,-84.355472 C 551.1254,53.629376 543.85313,32.28692 539.59308,10.245765 538.26935,7.9506438 539.08466,2.0242898 535.60352,1.6875 Z"
       id="path2"
       transform="matrix(0.30085361,0,0,0.30085361,29.634079,51.746819)" /><path
       id="path3"
       style="fill:#008000;stroke:#000000;stroke-width:3.22637;stroke-linecap:round;stroke-linejoin:round;stroke-miterlimit:20;stroke-dasharray:none;stroke-dashoffset:135.831"
       transform="scale(0.26458333)"
       d="m 274.69336,283.04102 c -0.19531,9.8e-4 -0.38863,0.01 -0.57617,0.0156 -10.35836,2.11381 -20.26201,6.2353 -30.76562,7.92774 -14.91558,3.08996 -24.92121,16.08039 -29.94532,29.69336 -4.21144,8.63192 -2.04657,19.58888 -9.40429,26.69141 -0.63552,0.8962 -1.22598,1.8131 -1.77539,2.74804 2.54122,0.50514 4.26196,1.81833 6.66252,2.25564 0.568,-0.74303 1.94705,-2.28068 2.64802,-2.90603 13.53253,-2.27586 29.42498,1.05005 40.36328,-9.32617 13.43163,-11.24804 17.79013,-28.90562 21.62305,-45.1836 0.41606,-3.76774 3.92874,-7.88476 2.84961,-11.53906 -0.49307,-0.32488 -1.09376,-0.37989 -1.67969,-0.37695 z m -124.62305,65.51953 c -7.60769,-10.65842 -6.61772,-24.77795 -13.48046,-35.88086 -5.51594,-10.88681 -15.25933,-20.15159 -27.75,-21.88672 -10.476749,-1.72438 -20.496495,-6.09501 -30.95313,-7.41992 -0.852127,6.32801 3.402788,12.74235 4.332031,19.04688 3.945722,15.29825 9.496198,31.9044 23.650389,40.73828 7.78794,5.58461 17.32128,4.99419 26.57422,4.85742 0.61721,-0.0769 1.23931,-0.12903 1.86524,-0.14844 0.76383,-0.0279 1.52992,-0.0647 2.29492,-0.0566 0.76499,0.008 1.52839,0.0611 2.2832,0.21485 0.11237,0.023 0.22408,0.0475 0.33594,0.0723 0.57419,0.0315 1.14561,0.0708 1.71289,0.12109 0.15411,0.16948 0.30683,0.33987 0.45703,0.51172 0.53493,0.20136 1.05681,0.43774 1.5625,0.7168 0.0413,0.0236 1.21351,0.82432 1.25456,0.84822 2.3369,-0.36652 3.54042,-1.46209 5.86067,-1.73495 z m 324.63282,74.59766 c -0.31661,2.96801 -0.90181,5.90131 -1.81641,8.74609 1.00543,0.37891 2.00366,0.77678 2.99415,1.19336 1.45872,-2.77348 1.42359,-5.6979 -1.17774,-9.93945 z m -63.41992,4.36523 c 0.7031,0.50502 1.35102,0.92795 2.2832,1.19532 0.22919,0.0653 0.0569,-0.66194 -0.0156,-0.72071 h -0.002 l -0.002,-0.002 c -0.3586,-0.19264 -0.77321,-0.25267 -1.16016,-0.37891 -0.36709,-0.0376 -0.73638,-0.0679 -1.10351,-0.0937 z m -152.89258,57.94532 c 0.002,0.0597 0.002,0.0654 0.002,0.002 z m 318.83203,146.08398 c -2.39436,4.55874 -4.89129,9.06326 -7.54687,13.47657 -3.40732,5.98068 -7.08031,11.79798 -11.14258,17.35937 -2.74534,3.77027 -5.59185,7.45982 -8.39062,11.18945 -2.31701,2.87048 -4.74372,5.65384 -7.35743,8.24414 15.9525,-13.24759 26.60354,-31.24982 34.4375,-50.26953 z m -44.21875,58.13282 c -5.41523,3.34685 -10.81355,6.03502 -17.19531,7.47656 -4.19418,1.06942 -8.41711,2.02012 -12.61133,3.08984 -5.88196,1.41528 -11.60853,3.42703 -17.4668,4.93555 -8.78284,2.40025 -17.59479,4.68124 -26.41796,6.92773 4.53004,-0.21055 9.04467,-0.52585 13.52148,-0.88086 20.84003,-4.09711 42.59933,-9.22646 60.16992,-21.54882 z m -376.25586,65.87109 c -0.81073,0.19758 -1.62282,0.3846 -2.4375,0.56445 0.82557,0.10749 1.68018,-0.11484 2.4375,-0.56445 z"
       sodipodi:nodetypes="sccccccccccsssccccccccccccccssccccscccccssccccccccccccccccccc" /></g></svg>
