<?xml version="1.0" encoding="UTF-8" standalone="no"?>
<!-- Created with Inkscape (http://www.inkscape.org/) -->

<svg
   width="42.133888mm"
   height="37.108829mm"
   viewBox="0 0 42.133888 37.108829"
   version="1.1"
   id="svg1"
   xml:space="preserve"
   xmlns="http://www.w3.org/2000/svg"
   xmlns:svg="http://www.w3.org/2000/svg"><defs
     id="defs1" /><g
     id="layer1"
     transform="translate(-65.176443,-153.17412)"><path
       id="path1"
       style="opacity:0.99;mix-blend-mode:screen;fill:#11700a;fill-opacity:0.956522;fill-rule:nonzero;stroke:#000000;stroke-width:0.49546;stroke-linecap:round;stroke-linejoin:round;stroke-miterlimit:20;stroke-dasharray:none;paint-order:markers fill stroke"
       d="m 103.4402,153.42423 c -1.05168,-0.0154 -2.2727,0.0408 -3.545006,0.25631 -2.54461,0.43094 -5.294113,1.49785 -7.120495,2.8112 -1.826382,1.31335 -2.729517,2.8731 -3.222026,4.84312 -0.492508,1.97001 -0.574508,4.35036 -0.697631,5.52007 -0.123124,1.16971 -0.287202,1.12845 -0.553972,0.96428 -0.266769,-0.16416 -0.635998,-0.4512 -0.759127,-0.38964 -0.123128,0.0616 6.7e-5,0.47197 -0.0615,0.63614 -0.06156,0.16417 -0.308157,0.0821 -1.25212,-0.49248 -0.943962,-0.57458 -2.585638,-1.64196 -3.898986,-2.23707 -1.313348,-0.59511 -2.297955,-0.71785 -3.63182,-0.65629 -1.333865,0.0616 -3.016445,0.30786 -4.801774,1.21078 -1.78533,0.90292 -3.673587,2.4623 -5.151107,4.71961 -1.47752,2.25731 -2.544365,5.2122 -3.016353,6.64869 -0.471989,1.43649 -0.348994,1.35448 0.12299,1.00562 0.471984,-0.34886 1.292873,-0.96467 2.134236,-1.23145 0.841363,-0.26678 1.703198,-0.18463 2.688208,-0.20515 0.98501,-0.0205 2.093331,-0.14344 3.570842,-0.82063 1.477511,-0.67718 3.324405,-1.90865 4.822444,-2.9347 1.49804,-1.02605 2.646905,-1.84682 3.857646,-2.40089 1.210741,-0.55407 2.482911,-0.84159 3.38584,-0.88263 0.902929,-0.041 1.436427,0.16422 1.908411,1.21078 0.471984,1.04656 0.987293,2.93402 0.871506,5.23275 -0.09271,1.84066 -1.234802,16.93894 1.160411,13.21573 0.779802,-1.39541 1.313108,-4.30946 1.456759,-6.95668 0.14365,-2.64721 -0.102727,-5.02771 -0.513147,-7.10034 -0.41042,-2.07263 -0.984744,-3.83737 -1.169438,-5.0276 -0.184694,-1.19022 0.02029,-1.80556 0.676961,-2.44171 0.656669,-0.63615 1.764913,-1.29286 3.488676,-1.99058 1.723763,-0.69771 4.063185,-1.43648 5.889572,-2.48305 1.82637,-1.04657 3.13963,-2.4011 3.96048,-3.91966 0.82084,-1.51855 1.14895,-3.20114 1.60042,-4.16563 0.45146,-0.9645 1.02617,-1.21043 1.29294,-1.3746 0.26678,-0.16416 0.22593,-0.24651 -0.96428,-0.39015 -0.59511,-0.0718 -1.47788,-0.15876 -2.52956,-0.17415 z" /><path
       style="opacity:0.48;fill:none;fill-opacity:1;fill-rule:nonzero;stroke:none;stroke-width:0.439758;stroke-linecap:round;stroke-linejoin:round;stroke-miterlimit:20;stroke-dasharray:none;stroke-opacity:0.953804;paint-order:markers fill stroke"
       d="m 75.971674,169.20818 -3.343656,2.82924 -0.578707,1.73613 v 1.15742"
       id="path115" /><path
       id="rect148"
       style="opacity:0.1675;fill:#000000;fill-opacity:1;fill-rule:nonzero;stroke:#000000;stroke-width:0.146586;stroke-linecap:round;stroke-linejoin:round;stroke-miterlimit:20;stroke-dasharray:none;stroke-opacity:1;paint-order:markers fill stroke"
       d="m 114.70774,164.22783 2.9e-4,11.81341 c 0.11498,-0.10758 0.234,-0.28905 0.35725,-0.55368 0.58373,-1.48813 0.71766,-4.44755 0.50164,-7.08985 -0.12195,-1.49168 -0.35547,-2.88229 -0.65944,-4.17004 z"
       transform="rotate(7.7798773)" /><path
       id="path185"
       style="opacity:0.0825;fill:#000000;fill-opacity:0.244565;fill-rule:nonzero;stroke:none;stroke-width:0.0778072;stroke-linecap:round;stroke-linejoin:round;stroke-miterlimit:20;stroke-dasharray:none;stroke-opacity:1;paint-order:markers fill stroke"
       d="m 79.683507,166.35109 c -1.129618,-0.0257 -2.30474,0.13395 -3.310392,0.68626 -0.343361,0.11937 -0.310533,0.45686 0.07651,0.27807 1.236603,-0.33657 2.503927,-0.64334 3.794047,-0.54627 0.790993,0.0318 1.623698,0.23998 2.231849,0.77974 0.09581,0.24533 0.410088,0.17345 0.618883,0.25623 0.223686,0.0477 0.447373,0.0955 0.67106,0.14319 -0.889805,-0.75568 -1.947301,-1.32088 -3.100923,-1.49061 -0.324306,-0.0568 -0.652338,-0.0933 -0.981038,-0.10661 z m 4.206465,1.61643 c -1.668508,0.13588 -3.253793,0.98244 -4.416082,2.2009 -0.211823,0.20571 -0.905955,1.06152 -0.280977,0.97614 1.006958,-0.55842 1.846366,-1.38402 2.826369,-1.99002 0.615408,-0.42122 1.305704,-0.71239 1.9303,-1.11398 0.05039,-0.0254 -4.96e-4,-0.11445 -0.05961,-0.073 z m -8.545218,0.0227 c -0.564905,0.4477 -0.950732,1.09914 -1.334357,1.70959 -0.739413,1.3173 -1.177798,2.79781 -1.429549,4.28858 -0.145463,0.33702 0.05691,1.07724 0.444659,0.56142 0.596465,-0.84064 0.774029,-1.89661 1.066493,-2.87183 0.270466,-1.05417 0.569187,-2.10798 1.07705,-3.07232 0.04558,-0.18031 0.267346,-0.44333 0.175704,-0.61544 z m -1.800921,1.17357 c -0.947662,0.05 -1.914877,0.31292 -2.628976,0.98482 -0.317796,0.33262 -1.102044,0.90651 -0.739401,1.39343 0.52248,-0.0331 0.818045,-0.57417 1.162368,-0.9143 0.388845,-0.44945 0.913708,-0.84475 1.528529,-0.81541 0.225828,-0.21618 0.451652,-0.43235 0.67748,-0.64854 z" /><path
       style="opacity:0.48;fill:none;fill-opacity:1;fill-rule:nonzero;stroke:none;stroke-width:0.957001;stroke-linecap:round;stroke-linejoin:round;stroke-miterlimit:20;stroke-dasharray:none;stroke-opacity:0.611413;paint-order:markers fill stroke"
       d="m 80.286264,167.54467 c -0.730708,0.24357 -1.461413,0.48714 -1.943478,0.79668 -0.482066,0.30954 -0.71548,0.68503 -0.86771,0.99964 -0.152231,0.31461 -0.223271,0.56833 -0.233419,0.43639 -0.01015,-0.13194 0.04059,-0.64951 0.248648,-1.03516 0.208053,-0.38566 0.573395,-0.63937 0.842336,-0.82205 0.268941,-0.18267 0.441469,-0.29431 0.613995,-0.40594"
       id="path219" /></g></svg>
